<?xml version="1.0" encoding="utf-8"?>
<!-- Generator: Adobe Illustrator 27.5.0, SVG Export Plug-In . SVG Version: 6.00 Build 0)  -->
<svg version="1.1" xmlns="http://www.w3.org/2000/svg" xmlns:xlink="http://www.w3.org/1999/xlink" x="0px" y="0px"
	 viewBox="0 0 500 500" style="enable-background:new 0 0 500 500;" xml:space="preserve">
<g id="BACKGROUND">
	<g>
		<defs>
			<rect id="SVGID_1_" width="500" height="500"/>
		</defs>
		<clipPath id="SVGID_00000173149262719587097600000005440814918361531033_">
			<use xlink:href="#SVGID_1_"  style="overflow:visible;"/>
		</clipPath>
		
			<radialGradient id="SVGID_00000070831520926355129920000015858111956568901533_" cx="251" cy="252.5" r="292.7501" gradientUnits="userSpaceOnUse">
			<stop  offset="0.6967" style="stop-color:#FFFFFF"/>
			<stop  offset="0.8659" style="stop-color:#F8F7F6"/>
			<stop  offset="1" style="stop-color:#F0EDEC"/>
		</radialGradient>
		
			<rect x="-42" y="-40" style="clip-path:url(#SVGID_00000173149262719587097600000005440814918361531033_);fill:url(#SVGID_00000070831520926355129920000015858111956568901533_);" width="586" height="585"/>
	</g>
	<rect style="fill:#032442;" width="500" height="500"/>
	
		<radialGradient id="SVGID_00000066483335878571573160000010088144946894690453_" cx="250" cy="250" r="190.1302" gradientUnits="userSpaceOnUse">
		<stop  offset="0" style="stop-color:#FFFFFF"/>
		<stop  offset="0.1584" style="stop-color:#C1C9D1;stop-opacity:0.9683"/>
		<stop  offset="0.3244" style="stop-color:#8898A6;stop-opacity:0.9351"/>
		<stop  offset="0.4854" style="stop-color:#586E82;stop-opacity:0.9029"/>
		<stop  offset="0.6373" style="stop-color:#334E66;stop-opacity:0.8725"/>
		<stop  offset="0.7779" style="stop-color:#193752;stop-opacity:0.8444"/>
		<stop  offset="0.903" style="stop-color:#092946;stop-opacity:0.8194"/>
		<stop  offset="1" style="stop-color:#032442;stop-opacity:0.8"/>
	</radialGradient>
	
		<ellipse style="opacity:0.84;fill:url(#SVGID_00000066483335878571573160000010088144946894690453_);" cx="250" cy="250" rx="192.725" ry="187.5"/>
</g>
<g id="OBJECTS">
	<path style="fill:#032442;" d="M150.689,125.985c0,0-11.972,13.622-12.928,2.367c-0.956-11.254,17.52-12.252,17.52-12.252
		c-0.463-2.744-8.511-10.556-8.511-10.556c-16.675-9.876-18.843,10.394-23.184,19.375c-4.341,8.981-6.806,3.146-6.806,3.146
		c-6.931-14.76,19.439-27.601,19.439-27.601c-8.866-7.459-15.827-4.463-15.827-4.463c-27.722,9.234-10.695,25.188-15.861,35.664
		c-5.166,10.475-7.45,2.521-7.45,2.521c-4.456-19.242,10.348-36.426,10.348-36.426c-8.551-6.006-17.686-1.104-17.686-1.104
		c-15.483,15.951-0.65,41.25-11.469,36.293c-10.819-4.958,4.411-32.243,4.411-32.243s-6.76-6.563-15.327,2.907
		s6.77,32.962-1.067,28.797s-10.684-21.845-10.684-21.845c-24.905,21.147,8.656,44.546,8.656,44.546l-0.058,0.068
		c0,0-17.335,33.686,16.233,43.015c0,0-6.967-16.847-2.221-23.555c4.746-6.709,3.706,20.095,16.433,25.26
		c12.727,5.165,15.224-3.268,15.224-3.268s-28.245-18.498-21.266-27.053c6.978-8.555,7.358,19.666,29.734,27.964
		c0,0,10.777,0.877,15.171-7.745c0,0-22.434-9.657-28.806-28.512c0,0-2.241-7.962,7.996-0.6
		c10.236,7.362,3.637,28.092,33.311,25.725c0,0,7.815,0.01,11.708-10.028c0,0-30.408-1.364-32.165-17.17c0,0-0.94-6.143,7.758,0.203
		c8.698,6.346,21.528,23.584,31.082,8.407c0,0,2.973-10.04,1.911-12.663c0,0-17.005,6.174-22.203-4.223
		c-5.199-10.397,12.796-2.832,12.796-2.832s11.771,11.497,16.586-3.209l3.707-12.517l0.146-0.029l-10.141-9.844
		C155.001,111.238,150.689,125.985,150.689,125.985z"/>
	<g>
		<g>
			<path style="fill:#0B6060;" d="M171.066,284.841c-5.716-12.258-30.754-19.171-30.754-19.171
				c-43.12-13.037-33.889-72.372-33.889-72.372l11.364,4.704l-9.184-6.974l-0.009-6.115c3.038-12.672,13.094-6.572,13.094-6.572
				c10.037-6.131,21.417,9.139,23.61,14.898c2.193,5.758,7,7.331,7,7.331l2.639,11.789l-0.014-9.173
				c28.424,20.485,18.426,51.513,12.321,58.075c-6.105,6.562,0.024,15.208,0.024,15.208L171.066,284.841z"/>
		</g>
		<g>
			<path style="fill:#10949B;" d="M121.688,178.339c12.142,30.309,23.769,62.062,40.103,90.396
				c2.509,4.352,5.885,7.661,9.034,11.547c2.495,3.079,6.504,9.804,4.13,13.92c-2.599,4.507-8.051-13.454-9.011-15.487
				c-2.579-5.46-7.058-9.853-9.181-15.548C153.4,254.145,125.791,195.659,121.688,178.339z"/>
		</g>
		<g>
			<path style="fill:#10949B;" d="M126.295,177.871c-0.081,0.009,0.007-0.144,0.066-0.088c0.059,0.056,0.022,0.153-0.019,0.223
				c-0.882,1.526-1.864,2.994-2.938,4.391"/>
		</g>
		<g>
			<path style="fill:#10949B;" d="M128.427,177.167c-0.193,2.8-1.477,5.511-3.522,7.433"/>
		</g>
		<g>
			<path style="fill:#10949B;" d="M132.297,178.761c-0.041,4.198-1.845,8.351-4.886,11.246"/>
		</g>
		<g>
			<path style="fill:#10949B;" d="M136.222,181.067c-0.41,4.794-3.154,9.129-6.581,12.507"/>
		</g>
		<g>
			<path style="fill:#10949B;" d="M139.979,185.02c-0.419,2.158-1.637,4.065-2.858,5.894c-1.953,2.924-4.068,5.887-7.089,7.686"/>
		</g>
		<g>
			<path style="fill:#10949B;" d="M144.144,190.353c-2.388,5.402-5.707,10.782-10.967,13.467"/>
		</g>
		<g>
			<path style="fill:#10949B;" d="M146.917,196.65c-1.86,5.571-6.378,10.189-11.908,12.169"/>
		</g>
		<g>
			<path style="fill:#10949B;" d="M150.939,200.136c-1.14,3.261-2.448,6.523-4.574,9.245c-2.126,2.723-5.188,4.877-8.625,5.22"/>
		</g>
		<g>
			<path style="fill:#10949B;" d="M152.508,204.021c-0.562,3.612-1.669,7.18-3.628,10.266c-1.959,3.086-4.817,5.669-8.25,6.925"/>
		</g>
		<g>
			<path style="fill:#10949B;" d="M155.044,212.659c0.447,1.448,0.183,3.043-0.429,4.43c-0.611,1.387-1.548,2.602-2.49,3.79
				c-2.551,3.215-5.457,6.5-9.407,7.615"/>
		</g>
		<g>
			<path style="fill:#10949B;" d="M160.882,208.602c0.356,4.86,0.669,9.967-1.392,14.383c-2.42,5.183-7.617,8.4-12.551,11.293"/>
		</g>
		<g>
			<path style="fill:#10949B;" d="M166.751,215.103c-0.506,5.787-1.773,11.594-4.56,16.691c-2.787,5.097-7.216,9.448-12.707,11.345"
				/>
		</g>
		<g>
			<path style="fill:#10949B;" d="M170.48,221.219c0.615,4.579-1.254,9.12-3.486,13.166c-3.393,6.15-8.263,12.15-15.083,13.831"/>
		</g>
		<g>
			<path style="fill:#10949B;" d="M173.685,233.565c-0.804,6.545-5.7,11.756-10.516,16.261c-2.239,2.094-4.663,4.225-7.657,4.881"/>
		</g>
		<g>
			<path style="fill:#10949B;" d="M173.373,248.407c-2.859,2.569-5.497,5.384-7.877,8.403c-1.708,2.168-3.623,4.642-6.371,4.899"/>
		</g>
		<g>
			<path style="fill:#10949B;" d="M122.554,182.694c-0.807,0.291-1.697,0.348-2.535,0.162c-0.44-0.098-0.864-0.261-1.274-0.448
				c-1.734-0.791-3.259-2.036-4.381-3.577"/>
		</g>
		<g>
			<path style="fill:#10949B;" d="M123.798,184.871c-2.343,0.624-4.878,0.517-7.152-0.324c-2.274-0.841-4.274-2.416-5.605-4.442"/>
		</g>
		<g>
			<path style="fill:#10949B;" d="M126.062,190.711c-1.259-0.282-2.56,0.09-3.843,0.223c-4.655,0.483-9.236-2.359-11.733-6.317"/>
		</g>
		<g>
			<path style="fill:#10949B;" d="M127.423,194.201c-1.597,1.345-3.797,1.732-5.885,1.737c-1.344,0.003-2.74-0.147-3.89-0.843"/>
		</g>
		<g>
			<path style="fill:#10949B;" d="M128.92,198.616c-1.973,0.749-4.131,0.824-6.241,0.811c-0.445-0.003-0.895-0.01-1.326-0.118
				c-0.408-0.102-0.787-0.292-1.163-0.48c-0.748-0.375-1.497-0.75-2.245-1.125"/>
		</g>
		<g>
			<path style="fill:#10949B;" d="M130.905,204.906c-2.039,0.653-4.118,1.312-6.259,1.31c-1.135-0.001-2.261-0.188-3.381-0.376
				c-2.334-0.39-4.681-0.783-6.91-1.576c-2.229-0.793-4.356-2.015-5.881-3.824"/>
		</g>
		<g>
			<path style="fill:#10949B;" d="M132.936,209.102c-2.166,0.967-4.484,1.62-6.85,1.805c-4.474,0.349-8.892-0.968-13.187-2.272
				c-2.07-0.628-4.283-1.354-5.576-3.088"/>
		</g>
		<g>
			<path style="fill:#10949B;" d="M135.089,214.666c-3.914,2.685-8.927,3.082-13.673,3.1c-2.322,0.009-4.669-0.054-6.915-0.645
				c-2.245-0.591-4.405-1.756-5.81-3.605"/>
		</g>
		<g>
			<path style="fill:#10949B;" d="M138.875,222.061c-4.541,3.193-10.087,4.999-15.636,4.843c-5.549-0.156-11.061-2.323-15.065-6.167
				"/>
		</g>
		<g>
			<path style="fill:#10949B;" d="M141.795,228.921c-1.351,1.199-2.715,2.408-4.285,3.301c-1.442,0.82-3.029,1.355-4.63,1.792
				c-3.906,1.065-7.998,1.567-12.02,1.107c-4.022-0.46-7.974-1.916-11.118-4.467"/>
		</g>
		<g>
			<path style="fill:#10949B;" d="M144.504,236.184c-4.68,4.011-10.979,5.538-17.093,6.324c-4.257,0.547-8.816,0.745-12.595-1.289"
				/>
		</g>
		<g>
			<path style="fill:#10949B;" d="M148.457,243.826c-0.259,0.641-0.826,1.099-1.387,1.503c-7.341,5.294-17.22,6.15-26.003,3.966"/>
		</g>
		<g>
			<path style="fill:#10949B;" d="M150.636,249.174c-6.243,6.231-15.984,8.696-24.44,6.184"/>
		</g>
		<g>
			<path style="fill:#10949B;" d="M153.427,255.446c-4.023,4.132-10.063,6.201-15.774,5.403"/>
		</g>
		<g>
			<path style="fill:#10949B;" d="M156.049,262.087c-1.716,1.708-4.176,2.423-6.561,2.837c-2.138,0.371-4.31,0.553-6.48,0.543"/>
		</g>
	</g>
	<path style="fill:#032442;" d="M337.59,172.757c0,0,4.66-19.38,10.772-9.128c6.112,10.252-10.392,21.017-10.392,21.017
		c1.701,2.378,12.726,5.572,12.726,5.572c19.908,0.586,12.471-19.943,12.281-30.835c-0.19-10.891,4.787-6.622,4.787-6.622
		c13.231,10.43-5.016,36.709-5.016,36.709c11.612,2.423,16.611-4.138,16.611-4.138c21.165-23.549-1.893-29.759-2.021-42.517
		c-0.128-12.758,5.669-6.367,5.669-6.367c13.043,16.029,7.438,40.318,7.438,40.318c10.647,1.201,16.757-8.336,16.757-8.336
		c6.801-23.471-18.589-39.78-6.347-40.786s10.945,33.167,10.945,33.167s9.261,2.684,12.725-10.918
		c3.463-13.602-21.549-27.917-12.414-28.097c9.135-0.18,19.972,15.21,19.972,15.21c13.037-33.442-28.668-37.989-28.668-37.989
		l0.021-0.096c0,0,0.253-41.409-34.915-32.502c0,0,14.234,12.406,12.996,21.339c-1.239,8.934-12.75-17.242-26.84-15.422
		c-14.091,1.82-12.462,11.209-12.462,11.209s34.543,2.685,32.113,14.569s-15.905-14.893-40.314-10.944
		c0,0-10.306,4.885-10.33,15.461c0,0,25.094-2.681,39.717,11.96c0,0,5.761,6.422-7.064,4.82
		c-12.825-1.602-16.406-24.924-42.557-6.904c0,0-7.182,4.141-6.088,15.804c0,0,28.561-14.844,37.527-0.666
		c0,0,3.72,5.373-7.219,3.926c-10.94-1.447-30.74-11.114-32.455,8.469c0,0,1.939,11.177,4.135,13.12c0,0,12.746-14.932,22.356-7.754
		c9.61,7.178-10.434,9.502-10.434,9.502s-16.158-4.74-13.741,11.876l2.417,13.935l-0.121,0.106l13.892,4.025
		C340.49,189.145,337.59,172.757,337.59,172.757z"/>
	<g>
		<g>
			<polygon style="fill:#6D431B;" points="261.54,285.135 256.282,284.599 266.235,146.221 271.493,146.758 			"/>
		</g>
		<g>
			<g>
				<polygon style="fill:#6D431B;" points="199.564,152.411 202.128,154.117 337.891,161.037 335.534,158.268 				"/>
			</g>
			<g>
				<polygon style="fill:#6D431B;" points="335.565,122.688 337.102,124.198 336.578,142.499 329.952,143.88 335.041,140.989 				
					"/>
			</g>
			<g>
				<polygon style="fill:#6D431B;" points="334.951,144.135 336.529,144.215 336.259,153.652 332.97,153.484 336.095,159.371 
					334.516,159.291 326.016,152.557 329.813,148.741 				"/>
			</g>
			<g>
				<polygon style="fill:#B4763B;" points="200.612,115.808 203.334,121.962 200.383,123.815 200.17,131.25 201.551,133.612 
					200.047,135.54 199.564,152.411 334.516,159.291 330.512,151.927 334.697,152.999 334.951,144.135 329.952,143.88 
					335.041,140.989 335.565,122.688 				"/>
			</g>
			<g style="opacity:0.38;">
				<g>
					<path style="fill:#6D431B;" d="M223.842,116.548c-0.183,1.054-0.573,2.03-1.242,2.941c-0.343,0.445-0.775,0.863-1.309,1.177
						c-0.527,0.324-1.179,0.493-1.771,0.484c-1.204-0.018-2.128-0.565-3.1-0.67c-0.978-0.144-1.883,0.173-2.64,0.787
						c-0.764,0.592-1.522,1.296-2.606,1.751c-1.1,0.488-2.338,0.575-3.39,0.437c-1.068-0.15-2.007-0.401-2.987-0.688
						c-0.97-0.298-1.935-0.626-2.879-1.105l0.028-0.198c2.055-0.366,4.137-0.272,6.043-0.135c0.932,0.058,1.756,0.123,2.547-0.09
						c0.808-0.226,1.727-0.656,2.757-0.953c1.015-0.33,2.132-0.479,3.161-0.45c1.026-0.002,2.093-0.121,2.894-0.345
						c0.404-0.11,0.735-0.22,1.085-0.384c0.343-0.174,0.688-0.407,1.034-0.688c0.706-0.555,1.363-1.307,2.202-1.972L223.842,116.548
						z"/>
				</g>
				<g>
					<path style="fill:#6D431B;" d="M233.792,117.702c-0.719,1.5-2.12,2.693-3.768,3.3c-0.813,0.312-1.747,0.448-2.591,0.441
						c-0.834,0.012-1.548-0.051-2.156,0.048c-0.547,0.073-1.161,0.379-1.469,0.87c-0.16,0.252-0.217,0.524-0.191,0.898
						c0.027,0.367,0.135,0.809,0.045,1.303c-0.075,0.505-0.446,0.925-0.857,1.146c-0.416,0.232-0.887,0.3-1.359,0.253
						c-0.9-0.125-1.651-0.561-2.349-0.724c-1.412-0.343-2.819-0.034-4.265,0.387c-1.446,0.447-2.917,1.09-4.596,1.441
						c-3.349,0.649-6.931-0.009-9.621-1.891l0.08-0.184c3.152,0.659,6.208,0.7,9.088-0.01c1.436-0.328,2.944-0.856,4.586-1.189
						c0.819-0.168,1.68-0.294,2.566-0.249c0.883,0.035,1.778,0.275,2.561,0.675c0.786,0.399,1.372,0.927,2.061,1.073
						c0.633,0.167,1.431-0.217,1.463-0.827c0.029-0.304-0.099-0.648-0.211-1.059c-0.133-0.404-0.174-0.961-0.028-1.45
						c0.295-0.999,1.098-1.745,2.078-2.076c0.945-0.3,1.847-0.241,2.599-0.207c0.747,0.035,1.415-0.011,2.128-0.158
						c1.411-0.289,2.764-0.965,4.049-1.939L233.792,117.702z"/>
				</g>
				<g>
					<path style="fill:#6D431B;" d="M244.524,117.864c0.547-0.054,1.024,0.433,1.205,0.92c0.19,0.495,0.241,1.092-0.035,1.661
						c-0.24,0.522-0.676,0.939-1.127,1.213c-0.449,0.282-0.923,0.477-1.355,0.623c-0.423,0.148-0.805,0.296-1.106,0.469
						c-0.323,0.182-0.484,0.318-0.693,0.624c-0.128,0.167-0.271,0.421-0.599,0.679c-0.16,0.125-0.386,0.249-0.613,0.305
						c-0.221,0.059-0.401,0.064-0.529,0.069c-0.286,0.007-0.274,0.016-0.294,0.006c-0.029-0.002-0.117,0.05-0.217,0.17
						c-0.214,0.229-0.441,0.642-0.782,1.06c-0.334,0.398-0.721,0.739-1.136,1.015c-0.835,0.55-1.747,0.88-2.661,1.078
						c-1.84,0.4-3.695,0.255-5.497,0.221l-5.335-0.067c-1.77,0.001-3.533,0.052-5.296,0.1c-3.532,0.043-7.055,0.237-10.691,0.339
						l-0.041-0.196c3.388-1.367,7.013-2.046,10.65-2.275c1.822-0.088,3.649-0.023,5.464,0.143c1.815,0.136,3.62,0.449,5.385,0.869
						c1.734,0.41,3.531,0.735,5.198,0.238c0.818-0.251,1.571-0.7,2.118-1.298c0.275-0.297,0.502-0.622,0.673-0.966
						c0.172-0.32,0.293-0.744,0.607-1.243c0.162-0.242,0.391-0.525,0.762-0.735c0.177-0.101,0.408-0.181,0.595-0.205
						c0.186-0.027,0.326-0.027,0.42-0.034c0.223-0.024,0.092-0.006,0.118-0.015c0.027-0.02,0.145-0.139,0.288-0.327
						c0.309-0.43,0.867-0.873,1.353-1.079c0.504-0.225,0.988-0.33,1.425-0.434c0.852-0.184,1.571-0.381,2.001-0.89
						c0.361-0.399,0.467-1.508-0.274-1.839L244.524,117.864z"/>
				</g>
				<g>
					<path style="fill:#6D431B;" d="M251.133,118.506c0.6,0.224,0.921,0.957,0.895,1.592c-0.023,0.644-0.227,1.273-0.628,1.813
						c-0.186,0.269-0.477,0.527-0.757,0.708c-0.272,0.175-0.558,0.314-0.837,0.433c-0.559,0.237-1.101,0.411-1.569,0.597
						c-0.479,0.19-0.839,0.409-1.144,0.71c-0.331,0.306-0.664,0.758-1.136,1.214c-0.936,0.902-2.076,1.425-3.149,1.811
						c-2.182,0.791-4.465,1.077-6.674,1.466c-2.217,0.375-4.417,0.804-6.61,1.285c-1.099,0.235-2.245,0.489-3.47,0.468
						c-1.235-0.017-2.384-0.31-3.449-0.53c-2.088-0.45-4.174-0.403-6.346-0.222c-2.167,0.145-4.383,0.484-6.665,0.562
						c-2.267,0.109-4.636-0.068-6.779-0.855l0.043-0.195c4.489,0.296,8.626-1.128,13.208-1.635c1.142-0.112,2.315-0.158,3.49-0.087
						c1.169,0.101,2.379,0.288,3.487,0.604c1.105,0.3,2.12,0.621,3.122,0.758c1.01,0.133,2.098,0.118,3.21,0.049
						c2.234-0.136,4.466-0.316,6.63-0.836c2.168-0.505,4.219-1.406,6.154-2.363c0.981-0.473,1.884-0.954,2.596-1.578
						c0.352-0.301,0.704-0.743,1.208-1.182c0.527-0.452,1.188-0.74,1.766-0.906c0.587-0.182,1.136-0.265,1.631-0.399
						c0.249-0.064,0.479-0.145,0.697-0.238c0.208-0.088,0.37-0.173,0.541-0.336c0.328-0.307,0.608-0.733,0.736-1.198
						c0.123-0.457,0.097-0.973-0.303-1.336L251.133,118.506z"/>
				</g>
				<g>
					<path style="fill:#6D431B;" d="M259.154,118.902c0.546,0.487,0.758,1.343,0.591,2.085c-0.147,0.751-0.522,1.429-1.025,1.997
						c-0.25,0.287-0.544,0.541-0.868,0.769c-0.35,0.229-0.66,0.366-0.987,0.523c-0.645,0.295-1.273,0.544-1.833,0.816
						c-0.56,0.274-1.032,0.596-1.35,0.994c-0.341,0.348-0.481,0.929-1.015,1.694c-0.271,0.379-0.714,0.736-1.159,0.906
						c-0.448,0.178-0.879,0.238-1.265,0.266c-0.789,0.051-1.37-0.013-2.019,0.041c-1.278,0.05-2.567,0.268-3.81,0.68
						c-1.245,0.398-2.452,1.032-3.689,1.632c-2.464,1.285-5.335,1.753-8.111,1.595c-2.794-0.101-5.499-0.699-8.121-1.15
						c-2.623-0.458-5.213-0.503-7.838-0.289c-5.252,0.388-10.46,1.914-15.773,3.184l-0.069-0.188
						c4.867-2.444,10.043-4.523,15.653-5.121c2.785-0.29,5.676-0.055,8.381,0.566c2.713,0.563,5.264,1.438,7.882,1.909
						c1.308,0.205,2.641,0.339,3.955,0.165c1.317-0.155,2.574-0.595,3.745-1.248c1.178-0.642,2.288-1.449,3.561-2.085
						c1.268-0.626,2.641-1.082,4.065-1.307c0.702-0.105,1.483-0.128,2.05-0.161c0.606-0.061,0.92-0.18,1.157-0.473
						c0.286-0.321,0.543-1.097,1.151-1.746c0.581-0.631,1.315-1.009,1.991-1.282c1.365-0.56,2.69-0.681,3.571-1.45
						c0.455-0.387,0.871-0.869,1.097-1.429c0.244-0.552,0.266-1.195-0.071-1.766L259.154,118.902z"/>
				</g>
				<g>
					<path style="fill:#6D431B;" d="M278.854,119.668c0.864,0.471,1.114,1.601,0.933,2.523c-0.159,0.989-0.917,1.822-1.742,2.285
						c-0.836,0.495-1.718,0.736-2.562,0.98c-0.855,0.231-1.714,0.443-2.573,0.608c-3.423,0.692-6.815,1.147-9.703,2.661
						c-0.361,0.192-0.706,0.37-1.117,0.61c-0.401,0.223-0.916,0.464-1.46,0.536c-1.052,0.129-1.84-0.069-2.447,0.199
						c-0.634,0.266-1.352,0.905-2.13,1.35c-0.781,0.442-1.576,0.856-2.417,1.144c-3.349,1.221-6.92,1.359-10.398,1.422
						c-3.486,0.055-6.931,0.031-10.332,0.25c-3.393,0.228-6.726,0.919-10.127,1.573c-3.398,0.625-6.86,1.282-10.401,1.425
						c-1.767,0.087-3.55-0.03-5.304-0.25c-1.755-0.257-3.466-0.758-5.076-1.435l0.063-0.19c1.701,0.355,3.396,0.574,5.099,0.617
						c1.704,0.03,3.398-0.093,5.086-0.312c3.375-0.451,6.717-1.223,10.117-1.948c3.392-0.708,6.908-1.265,10.449-1.36
						c3.529-0.134,7.023,0.204,10.463,0.535c3.41,0.289,6.958,0.383,10.123-0.931c0.79-0.309,1.511-0.757,2.202-1.226
						c0.325-0.272,0.654-0.51,0.968-0.806c0.324-0.289,0.671-0.609,1.131-0.86c0.987-0.526,2.022-0.373,2.664-0.57
						c0.595-0.128,1.189-0.739,2.021-1.221c1.574-0.969,3.339-1.559,5.079-1.921c1.745-0.382,3.481-0.589,5.185-0.82
						c1.671-0.258,3.457-0.439,4.905-1.004c0.701-0.316,1.324-0.784,1.575-1.511c0.253-0.708,0.229-1.632-0.387-2.186
						L278.854,119.668z"/>
				</g>
				<g>
					<path style="fill:#6D431B;" d="M331.544,126.364c-5.628-0.769-11.246-1.395-16.88-1.733
						c-5.632-0.368-11.269-0.404-16.907-0.322c-5.632,0.092-11.311,0.332-16.895,1.189c-2.749,0.471-5.542,1.289-7.62,3.123
						c-0.508,0.461-0.973,0.959-1.384,1.514c-0.41,0.557-0.783,1.156-1.194,1.75c-0.78,1.201-1.915,2.349-3.285,2.999
						c-1.355,0.683-2.831,1.004-4.269,1.205c-1.449,0.199-2.859,0.285-4.278,0.39c-2.837,0.205-5.679,0.367-8.523,0.452
						c-5.678,0.2-11.407,0.203-17.052,0.017c-2.817-0.089-5.552,0.008-8.284,0.471c-2.743,0.452-5.503,1.148-8.351,1.597
						c-2.832,0.468-5.825,0.607-8.682,0.011c-1.402-0.269-2.753-0.633-4.094-0.503c-1.319,0.127-2.667,0.798-3.3,2.048l-0.184-0.079
						c0.498-1.415,1.931-2.337,3.386-2.607c1.488-0.285,2.969-0.035,4.353,0.143c2.752,0.386,5.508,0.023,8.234-0.562
						c2.731-0.584,5.451-1.388,8.291-1.955c2.848-0.602,5.812-0.722,8.663-0.697c5.695,0.133,11.314,0.296,16.979,0.235
						c2.827-0.038,5.655-0.074,8.483-0.157c2.824-0.141,5.692,0.043,8.161-1.001c1.234-0.516,2.223-1.392,3.056-2.516
						c0.838-1.1,1.688-2.337,2.831-3.271c2.283-1.889,5.161-2.704,7.945-3.244c5.607-1.01,11.246-1.832,16.948-2.215
						c5.698-0.318,11.426-0.153,17.099,0.441c5.677,0.565,11.3,1.607,16.793,3.082L331.544,126.364z"/>
				</g>
				<g>
					<path style="fill:#6D431B;" d="M198.806,142.034c1.446-0.894,3.048-1.528,4.678-2.017c1.632-0.492,3.294-0.864,4.954-1.165
						c3.321-0.626,6.66-1.184,10.017-1.585c6.714-0.816,13.468-1.234,20.214-1.343c6.745-0.064,13.493,0.055,20.237,0.278
						c6.744,0.195,13.481,0.667,20.195,1.393c6.722,0.702,13.39,1.72,20.04,2.955c3.329,0.636,6.668,1.409,9.92,2.558
						c0.809,0.297,1.62,0.595,2.411,0.947c0.393,0.176,0.783,0.328,1.245,0.59c0.443,0.253,0.954,0.624,1.312,1.219
						c0.345,0.587,0.479,1.315,0.304,2.015c-0.172,0.687-0.568,1.2-0.971,1.579c-0.829,0.744-1.748,1.158-2.761,1.362
						c-6.967,1.309-13.752-0.159-20.357-0.188c-1.653,0.014-3.308,0.037-4.933,0.278c-0.821,0.079-1.615,0.28-2.422,0.438
						c-0.4,0.092-0.787,0.226-1.182,0.337c-0.394,0.121-0.801,0.217-1.131,0.379c-0.687,0.308-1.275,0.812-1.275,1.411
						c-0.027,0.293,0.161,0.668,0.239,1.175c0.082,0.519-0.113,1.087-0.461,1.446c-0.689,0.727-1.725,0.897-2.571,0.764
						c-0.848-0.096-1.667-0.317-2.45-0.067l-0.072-0.187c0.828-0.354,1.743-0.211,2.553-0.188c0.808,0.066,1.599-0.19,2.05-0.744
						c0.211-0.272,0.284-0.586,0.213-0.9c-0.06-0.324-0.314-0.712-0.35-1.273c-0.05-0.548,0.201-1.096,0.531-1.47
						c0.335-0.38,0.731-0.654,1.141-0.872c0.419-0.231,0.831-0.351,1.233-0.502c0.408-0.141,0.81-0.306,1.224-0.428
						c0.834-0.217,1.664-0.476,2.516-0.61c1.694-0.35,3.414-0.491,5.124-0.551c6.83-0.198,13.583,0.946,19.959-0.34
						c0.631-0.131,1.303-0.443,1.721-0.834c0.209-0.193,0.326-0.392,0.357-0.526c0.038-0.118,0.009-0.277-0.065-0.417
						c-0.13-0.28-0.782-0.622-1.575-0.948c-0.748-0.332-1.508-0.642-2.275-0.937c-3.08-1.158-6.306-1.979-9.577-2.671
						c-6.571-1.339-13.18-2.637-19.811-3.714c-6.636-1.062-13.34-1.752-20.066-1.83c-3.362-0.044-6.726,0.061-10.086,0.215
						c-3.361,0.147-6.723,0.334-10.081,0.523c-6.716,0.341-13.423,0.63-20.107,1.221c-3.341,0.301-6.683,0.616-10.009,1.079
						c-3.323,0.441-6.653,0.898-9.707,2.324L198.806,142.034z"/>
				</g>
				<g>
					<path style="fill:#6D431B;" d="M224.428,149.515c-2.039,0.417-4.031,0.692-6.125,0.892c-0.553,0.037-1.2,0.018-1.874-0.308
						c-0.675-0.32-1.21-1.063-1.298-1.795c-0.11-0.727,0.037-1.409,0.343-2.02c0.153-0.301,0.368-0.606,0.619-0.843
						c0.243-0.23,0.512-0.423,0.789-0.58c0.553-0.32,1.127-0.487,1.665-0.596c0.539-0.119,1.04-0.174,1.558-0.244
						c1.029-0.133,2.064-0.206,3.093-0.285c2.064-0.113,4.103-0.282,6.144-0.486l6.126-0.683c2.046-0.216,4.095-0.288,6.138-0.369
						c2.046-0.093,4.188-0.142,6.338,0.348c1.066,0.258,2.14,0.627,3.123,1.212c0.976,0.588,1.868,1.365,2.512,2.306l0.536,0.782
						l-0.731,0.432c-1.195,0.705-2.471,1.261-3.786,1.648c-1.314,0.389-2.673,0.598-4.019,0.621l-0.031-0.198
						c1.276-0.381,2.493-0.87,3.649-1.447c1.155-0.579,2.245-1.256,3.259-2.019l-0.195,1.214c-1.213-1.368-2.915-2.121-4.767-2.474
						c-0.926-0.183-1.887-0.303-2.868-0.356c-0.982-0.081-1.977-0.106-2.998-0.123c-2.043-0.035-4.081-0.057-6.12-0.158
						c-2.039-0.09-4.082-0.182-6.118-0.092c-2.035,0.093-4.063,0.351-6.04,0.847c-0.991,0.23-1.971,0.498-2.945,0.771
						c-0.98,0.28-1.971,0.501-2.629,0.89c-0.166,0.099-0.311,0.209-0.437,0.333c-0.119,0.115-0.212,0.225-0.297,0.376
						c-0.168,0.29-0.251,0.655-0.217,0.942c0.04,0.285,0.133,0.481,0.368,0.64c0.235,0.16,0.644,0.232,1.104,0.263
						c1.99,0.045,4.08,0.116,6.124,0.356L224.428,149.515z"/>
				</g>
				<g>
					<path style="fill:#6D431B;" d="M246.962,150.717c1.461,0.186,2.92,0.419,4.338,0.312c1.403-0.096,2.766-0.556,3.76-1.42
						c0.502-0.449,0.852-0.916,1.172-1.566c0.177-0.327,0.369-0.705,0.704-1.066c0.338-0.359,0.807-0.642,1.285-0.755
						c0.968-0.23,1.807-0.017,2.553,0.161c0.746,0.202,1.397,0.378,2.11,0.526c2.787,0.623,5.677,0.811,8.497,0.632
						c1.37-0.084,2.497-0.493,2.985-1.505c0.238-0.484,0.279-0.994,0.035-1.403c-0.24-0.442-0.73-0.699-1.007-0.565l-3.763,1.821
						l3.044-2.837l1.54-1.436l0.325,0.934c-6.721-1.136-13.509-1.813-20.316-2.118c-3.401-0.185-6.808-0.262-10.207-0.422
						c-3.404-0.111-6.801-0.319-10.159-0.271c-6.7,0.113-13.324,1.404-19.938,2.933l-4.969,1.162
						c-1.547,0.314-3.086,1.092-2.684,2.301c0.174,0.579,0.773,1.127,1.445,1.582c0.682,0.476,1.395,0.911,2.126,1.317
						c1.465,0.813,3.046,1.422,4.683,1.876l-0.039,0.196c-1.705-0.212-3.383-0.688-4.988-1.354
						c-0.806-0.328-1.583-0.726-2.336-1.169c-0.744-0.444-1.599-0.984-2.048-2.025c-0.208-0.521-0.241-1.118-0.069-1.681
						c0.169-0.57,0.547-1.016,0.936-1.352c0.789-0.673,1.718-0.991,2.564-1.238c1.634-0.486,3.272-0.97,4.923-1.418
						c6.573-1.818,13.427-3.29,20.392-3.116c3.46,0.053,6.867,0.32,10.264,0.623c3.402,0.276,6.793,0.693,10.184,1.072
						c6.778,0.816,13.554,1.519,20.366,2.008l1.11,0.08l-0.785,0.855l-1.424,1.551l-0.719-1.016c0.518-0.265,1.15-0.229,1.621-0.018
						c0.474,0.212,0.854,0.544,1.131,0.951c0.283,0.392,0.452,0.924,0.474,1.413c0.02,0.487-0.069,0.974-0.25,1.408
						c-0.348,0.874-1.043,1.576-1.859,1.992c-0.804,0.413-1.654,0.574-2.435,0.64c-3.05,0.252-6.093-0.053-9.032-0.783
						c-1.465-0.329-2.946-1.063-3.945-0.872c-0.481,0.078-0.779,0.391-1.164,1.046c-0.367,0.651-0.939,1.368-1.597,1.83
						c-1.327,0.969-2.958,1.339-4.484,1.253c-1.534-0.066-2.979-0.453-4.39-0.875L246.962,150.717z"/>
				</g>
				<g>
					<path style="fill:#6D431B;" d="M200.502,149.609c0.89,0.207,1.629,0.262,2.448,0.309c0.802,0.062,1.689,0.112,2.502,0.38
						c0.82,0.268,1.612,0.716,2.45,0.898c0.836,0.184,1.698,0.193,2.56,0.091c0.863-0.109,1.712-0.187,2.548-0.207
						c0.839-0.033,1.665-0.112,2.491-0.104c1.657,0.032,3.285,0.065,5.094,0.275l0.05,0.194c-1.515,1.048-3.305,1.509-5.07,1.666
						c-0.887,0.058-1.774-0.027-2.647-0.143c-0.876-0.09-1.736-0.309-2.576-0.592c-0.842-0.275-1.679-0.485-2.539-0.542
						c-0.858-0.063-1.759,0.122-2.629,0.109c-0.875-0.02-1.685-0.22-2.56-0.504c-0.848-0.309-1.781-0.811-2.243-1.675
						L200.502,149.609z"/>
				</g>
				<g>
					<path style="fill:#6D431B;" d="M332.409,138.637c-1.418,0.03-2.821,0.03-4.22,0.147c-1.397,0.081-2.786,0.218-4.165,0.395
						c-1.369,0.221-2.806,0.325-3.939,0.788c-0.583,0.218-1.112,0.524-1.48,0.894c-0.366,0.378-0.51,0.781-0.512,1.253l-0.699-0.853
						c0.759,0.181,1.522,0.346,2.279,0.539l1.034,0.265l-0.424,0.935c-0.244,0.538-0.692,0.949-1.214,1.16
						c-0.516,0.214-1.152,0.236-1.697-0.035l1.125-0.814c0.012,0.247,0.078,0.459,0.274,0.68c0.195,0.217,0.491,0.421,0.836,0.586
						c0.676,0.342,1.536,0.543,2.37,0.914c0.824,0.354,1.593,0.808,2.322,1.306c0.365,0.25,0.714,0.517,1.053,0.803
						c0.336,0.296,0.697,0.625,0.906,1.104c0.216,0.472,0.187,1.068-0.094,1.516c-0.274,0.447-0.686,0.732-1.099,0.934
						c-0.415,0.206-0.86,0.335-1.295,0.422l-1.26,0.273c-1.68,0.361-3.361,0.735-5.052,1.065c-3.375,0.703-6.794,1.207-10.233,1.509
						c-1.718,0.161-3.44,0.287-5.164,0.386c-0.851,0.058-1.751,0.061-2.563,0.092c-0.373,0.014-0.711,0.066-0.935,0.151
						c-0.232,0.098-0.279,0.151-0.338,0.246l-0.705-1.45c1.615,0.454,3.246,0.847,4.873,1.264c1.631,0.399,3.267,0.784,4.909,1.149
						c3.282,0.751,6.595,1.379,9.928,2.02l-0.019,0.199c-3.402,0.011-6.799-0.264-10.18-0.684c-1.689-0.221-3.373-0.488-5.047-0.807
						c-1.678-0.302-3.339-0.693-4.997-1.088l-1.171-0.279l0.465-1.171c0.28-0.704,0.964-1.22,1.536-1.405
						c0.582-0.209,1.108-0.255,1.589-0.276l2.576-0.061c1.701-0.03,3.402-0.088,5.102-0.18c3.398-0.213,6.798-0.447,10.204-0.755
						c1.7-0.172,3.401-0.361,5.091-0.622c0.846-0.155,1.714-0.21,2.415-0.555c0.353-0.164,0.679-0.392,0.85-0.685
						c0.168-0.286,0.18-0.644,0.033-0.951c-0.297-0.627-1.106-1.08-1.793-1.514c-0.717-0.422-1.489-0.737-2.272-0.981
						c-0.766-0.25-1.613-0.337-2.52-0.666c-0.446-0.16-0.911-0.382-1.34-0.754c-0.433-0.363-0.772-0.965-0.853-1.569l-0.149-1.104
						l1.274,0.29c0.108,0.025,0.243,0.017,0.378-0.052c0.133-0.068,0.233-0.186,0.271-0.303l0.61,1.2
						c-0.766-0.151-1.526-0.331-2.289-0.495l-0.694-0.149l-0.006-0.704c-0.004-0.47,0.076-0.958,0.273-1.404
						c0.2-0.439,0.481-0.826,0.802-1.138c0.651-0.613,1.396-0.985,2.139-1.239c0.734-0.252,1.541-0.375,2.243-0.441
						c0.714-0.076,1.43-0.135,2.147-0.159c1.433-0.069,2.868-0.041,4.293,0.058c1.424,0.138,2.842,0.293,4.233,0.603
						L332.409,138.637z"/>
				</g>
				<g>
					<path style="fill:#6D431B;" d="M325.526,131.605c-0.487-0.94-1.514-1.16-2.515-1.379l-3.117-0.647
						c-2.074-0.416-4.148-0.753-6.223-1.141c-2.071-0.393-4.17-0.867-6.303-0.94c-1.064-0.04-2.132-0.008-3.19,0.089
						c-1.048,0.086-2.085,0.341-2.906,0.808c-0.397,0.24-0.693,0.555-0.799,0.875c-0.101,0.315-0.067,0.663,0.08,1.012
						c0.309,0.726,0.927,1.155,1.816,1.381c0.87,0.212,1.997,0.299,3.031,0.415l3.151,0.322c4.202,0.459,8.42,0.691,12.737,0.947
						l0.018,0.199c-4.219,1.028-8.605,1.267-12.941,0.979c-1.083-0.094-2.166-0.199-3.238-0.38
						c-1.083-0.197-2.101-0.316-3.297-0.679c-0.586-0.193-1.199-0.479-1.718-0.941c-0.533-0.482-0.907-1.074-1.087-1.75
						c-0.187-0.663-0.155-1.466,0.229-2.116c0.38-0.648,0.979-1.023,1.539-1.246c1.128-0.454,2.265-0.462,3.346-0.502l3.235-0.06
						c2.153-0.05,4.336-0.22,6.514-0.062c2.174,0.166,4.316,0.645,6.393,1.29c1.039,0.325,2.061,0.7,3.058,1.135
						c0.505,0.206,1.035,0.473,1.498,0.844c0.46,0.367,0.841,0.916,0.884,1.497L325.526,131.605z"/>
				</g>
				<g>
					<path style="fill:#6D431B;" d="M329.509,129.209c-4.63-1.46-9.328-2.49-14.074-3.015c-2.372-0.273-4.756-0.374-7.139-0.393
						c-2.382-0.006-4.773,0.039-7.16,0.263c-2.385,0.224-4.804,0.6-7.25,0.764c-0.612,0.036-1.225,0.074-1.84,0.072
						c-0.618,0.004-1.229-0.047-1.808-0.017c-0.578,0.026-1.147,0.125-1.577,0.413c-0.436,0.284-0.691,0.759-0.751,1.281
						c-0.063,0.523,0.053,1.081,0.287,1.566c0.226,0.491,0.589,0.885,1.027,1.226c0.873,0.676,1.999,1.039,3.144,1.466
						c2.281,0.826,4.54,1.706,6.801,2.581l0.896,0.347l-0.471,0.889l-0.664,1.252l0.003-0.885c0.053,0.075,0.113,0.124,0.367,0.177
						c0.247,0.044,0.566,0.034,0.955-0.005l2.416-0.214l4.833-0.423c3.224-0.257,6.452-0.452,9.682-0.627
						c3.229-0.173,6.476-0.256,9.662-0.458c3.186-0.224,6.352-0.723,9.363-1.902l0.089,0.179c-1.399,0.84-2.926,1.477-4.492,1.979
						c-1.573,0.483-3.186,0.82-4.801,1.089c-3.242,0.526-6.46,0.764-9.678,1.095c-3.221,0.289-6.444,0.559-9.672,0.767l-4.844,0.275
						l-2.422,0.134c-0.415,0.024-0.914,0.048-1.461-0.067c-0.532-0.094-1.255-0.465-1.588-1.118l-0.241-0.474l0.244-0.411
						l0.724-1.219l0.424,1.235c-2.208-1.001-4.417-1.997-6.605-3.047c-1.072-0.522-2.272-0.997-3.272-1.888
						c-1.018-0.865-1.601-2.274-1.401-3.618c0.097-0.679,0.507-1.345,1.102-1.713c0.596-0.38,1.277-0.466,1.898-0.488
						c1.258,0.006,2.411,0.03,3.615-0.111c2.387-0.256,4.717-0.912,7.13-1.356c2.411-0.456,4.866-0.758,7.33-0.783
						c2.464-0.038,4.927,0.168,7.361,0.522c4.866,0.728,9.611,2.229,13.936,4.479L329.509,129.209z"/>
				</g>
			</g>
		</g>
		<g>
			<path style="fill:#F2F2F2;" d="M234.118,134.21c-0.077,3.272-0.648,5.774-1.711,7.503c-1.063,1.729-2.563,2.55-4.497,2.463
				c-1.934-0.087-3.445-1.053-4.534-2.899c-1.089-1.846-1.594-4.421-1.516-7.724c0.078-3.302,0.694-5.875,1.852-7.72
				c1.157-1.844,2.731-2.722,4.72-2.632c1.187,0.054,2.187,0.431,3.001,1.133c0.814,0.702,1.409,1.627,1.784,2.775
				C233.879,129.225,234.18,131.591,234.118,134.21z M233.118,133.658c0.064-2.757-0.313-4.977-1.131-6.663
				c-0.818-1.685-2.031-2.563-3.636-2.636c-1.607-0.072-2.902,0.688-3.891,2.282c-0.987,1.593-1.517,3.919-1.588,6.973
				c-0.084,3.551,0.593,6.192,2.031,7.925c0.8,0.95,1.729,1.448,2.787,1.496c1.058,0.047,1.931-0.171,2.618-0.657
				c0.686-0.485,1.224-1.176,1.61-2.072C232.653,138.631,233.052,136.415,233.118,133.658z"/>
			<path style="fill:#F2F2F2;" d="M249.391,137.13c-0.031,1.349-0.178,2.528-0.438,3.54c-0.262,1.011-0.577,1.786-0.945,2.325
				c-0.369,0.54-0.804,0.967-1.305,1.282c-1.262,0.817-2.624,0.934-4.091,0.352c-0.507-0.201-1.038-0.547-1.591-1.039
				c-0.555-0.492-0.994-1.251-1.317-2.278c-0.321-1.027-0.467-2.274-0.432-3.742c0.056-2.38,0.539-4.299,1.451-5.757
				c0.912-1.459,2.192-2.15,3.844-2.076c1.651,0.074,2.875,0.835,3.673,2.28C249.036,133.461,249.419,135.166,249.391,137.13z
				 M243.864,143.852l0.328,0.044l0.301-0.016c2.487-0.146,3.781-2.362,3.883-6.646c0.042-1.765-0.252-3.258-0.881-4.478
				c-0.628-1.219-1.664-1.862-3.104-1.927c-0.931-0.042-1.714,0.27-2.352,0.937c-1.105,1.182-1.688,3.071-1.75,5.669l-0.006,0.238
				c-0.038,1.646,0.239,3.044,0.833,4.192C241.709,143.015,242.624,143.676,243.864,143.852z"/>
			<path style="fill:#F2F2F2;" d="M264.471,137.809c-0.031,1.35-0.179,2.528-0.439,3.54c-0.262,1.011-0.576,1.786-0.945,2.325
				c-0.369,0.54-0.804,0.967-1.305,1.282c-1.261,0.817-2.624,0.935-4.09,0.352c-0.508-0.201-1.038-0.547-1.592-1.039
				c-0.555-0.491-0.994-1.251-1.316-2.278c-0.322-1.027-0.468-2.274-0.433-3.742c0.056-2.38,0.54-4.299,1.451-5.757
				c0.912-1.459,2.192-2.15,3.844-2.076c1.651,0.074,2.875,0.835,3.673,2.28C264.114,134.14,264.499,135.845,264.471,137.809z
				 M258.942,144.53l0.328,0.044l0.302-0.016c2.487-0.146,3.781-2.362,3.883-6.646c0.042-1.765-0.253-3.258-0.881-4.478
				c-0.628-1.219-1.664-1.862-3.105-1.927c-0.931-0.042-1.714,0.271-2.351,0.937c-1.105,1.182-1.689,3.071-1.751,5.67l-0.006,0.238
				c-0.038,1.646,0.239,3.045,0.833,4.192C256.789,143.693,257.704,144.355,258.942,144.53z"/>
			<path style="fill:#F2F2F2;" d="M270.784,153.552l-1.013-0.046l0.527-22.315l1.013,0.045l-0.043,1.785
				c1.237-1.354,2.54-2,3.908-1.939c0.748,0.034,1.498,0.375,2.251,1.024c1.575,1.342,2.328,3.511,2.258,6.506
				c-0.084,3.531-1.352,5.787-3.805,6.769c-1.254,0.499-2.894,0.743-4.921,0.731L270.784,153.552z M278.019,141.874
				c0.404-0.895,0.625-2.081,0.66-3.559c0.034-1.477-0.304-2.858-1.013-4.141c-0.709-1.283-1.603-1.949-2.679-1.997
				c-0.693-0.031-1.334,0.163-1.918,0.583c-0.585,0.421-1.198,1.003-1.836,1.749l-0.247,10.503
				C274.653,145.178,276.997,144.132,278.019,141.874z"/>
			<path style="fill:#F2F2F2;" d="M289.811,145.443c1.11-0.268,1.886-0.639,2.327-1.117c0.44-0.476,0.67-1.136,0.69-1.979
				c0.02-0.843-0.256-1.516-0.828-2.018c-0.573-0.502-1.273-0.841-2.101-1.018c-0.827-0.176-1.653-0.368-2.479-0.573
				c-0.827-0.206-1.524-0.61-2.096-1.211c-0.569-0.601-0.842-1.448-0.816-2.539c0.055-2.301,1.724-3.378,5.008-3.229
				c1.205,0.054,2.597,0.256,4.179,0.605l-0.027,1.16c-1.637-0.391-3.01-0.612-4.122-0.662c-1.113-0.05-2.061,0.081-2.845,0.394
				c-0.784,0.312-1.185,0.88-1.205,1.703c-0.02,0.823,0.258,1.47,0.83,1.943c0.574,0.473,1.273,0.811,2.101,1.018
				c0.825,0.206,1.655,0.437,2.489,0.693c0.835,0.256,1.536,0.72,2.105,1.39c0.568,0.671,0.838,1.592,0.811,2.762
				c-0.034,1.448-0.578,2.466-1.634,3.054c-0.518,0.295-1.016,0.526-1.496,0.692c-0.479,0.167-1.11,0.262-1.897,0.287
				c-1.243,0.063-2.431,0.069-3.561,0.019l-0.685-0.031l0.025-1.101C286.957,145.792,288.7,145.711,289.811,145.443z"/>
			<path style="fill:#F2F2F2;" d="M300.928,147.462l-2.107-0.095l0.066-2.826l2.107,0.095L300.928,147.462z"/>
			<path style="fill:#F2F2F2;" d="M308.619,147.809l-2.107-0.095l0.066-2.826l2.107,0.095L308.619,147.809z"/>
			<path style="fill:#F2F2F2;" d="M316.31,148.154l-2.108-0.095l0.066-2.826l2.107,0.095L316.31,148.154z"/>
		</g>
	</g>
	<path style="fill:#032442;" d="M146.349,284.351c0,0-19.29,0.89-11.399-7.562c7.892-8.452,22.359,4.003,22.359,4.003
		c1.754-2.224,1.754-13.345,1.754-13.345c-4.823-18.683-21.921-6.228-32.005-3.114s-7.453-2.669-7.453-2.669
		c6.138-15.124,35.512-5.231,35.512-5.231c-0.877-11.459-8.33-14.341-8.33-14.341c-27.62-13.345-27.182,9.786-39.019,13.345
		s-7.453-3.559-7.453-3.559c11.399-16.459,35.512-17.793,35.512-17.793c-1.754-10.231-12.276-13.345-12.276-13.345
		c-23.674,0-32.005,28.024-36.242,16.904c-4.237-11.121,27.912-19.128,27.912-19.128s0-9.341-13.591-8.897
		c-13.591,0.445-20.167,27.58-22.798,19.128s8.768-22.686,8.768-22.686c-34.635-3.114-27.62,36.921-27.62,36.921l-0.095,0.006
		c0,0-38.601,10.931-20.829,41.254c0,0,7.706-16.591,16.353-17.847c8.647-1.256-12.607,16.514-7.113,29.135
		c5.493,12.621,13.791,8.574,13.791,8.574s-6.816-32.868,4.898-33.811c11.714-0.943-9.57,18.816,0.687,40.465
		c0,0,7.325,8.273,17.173,5.444c0,0-9.262-22.628,0.419-40.183c0,0,4.423-7.093,6.39,5.274c1.967,12.367-18.769,21.987,5.051,41.463
		c0,0,5.789,5.567,16.348,1.404c0,0-21.514-22.575-10.739-34.74c0,0,3.997-4.911,5.6,5.659c1.603,10.57-2.053,31.602,16.632,27.918
		c0,0,9.878-4.818,11.094-7.385c0,0-17.332-7.834-13.244-18.712c4.089-10.878,11.656,7.147,11.656,7.147s-0.054,16.314,14.756,9.584
		l12.316-6.007l0.131,0.084v-14.012C160.817,277.233,146.349,284.351,146.349,284.351z"/>
	<path style="fill:#032442;" d="M333.815,320.119c0,0,14.117-15.482,14.547-2.944c0.43,12.539-20.226,14.083-20.226,14.083
		c0.361,3.052,8.893,11.584,8.893,11.584c18.034,10.634,21.596-12.04,26.943-22.165c5.347-10.125,7.766-3.67,7.766-3.67
		c6.895,16.313-23.232,31.259-23.232,31.259c9.464,8.119,17.394,4.612,17.394,4.612c31.429-10.952,13.346-28.362,19.698-40.174
		s8.448-2.988,8.448-2.988c3.882,21.373-13.594,40.897-13.594,40.897c9.195,6.504,19.656,0.82,19.656,0.82
		c18.163-18.163,3.054-46.055,14.836-40.774c11.783,5.281-6.739,36.09-6.739,36.09s7.167,7.167,17.253-3.602
		c10.086-10.768-5.687-36.632,2.816-32.166c8.503,4.466,10.678,24.133,10.678,24.133c28.962-24.184-7.136-49.517-7.136-49.517
		l0.068-0.078c0,0,21.229-38.002-15.67-47.631c0,0,6.817,18.641,1.147,26.239c-5.67,7.598-2.998-22.342-16.895-27.81
		c-13.897-5.468-17.159,4.003-17.159,4.003s30.447,19.987,22.183,29.698c-8.263,9.711-7.093-21.778-31.572-30.518
		c0,0-11.967-0.727-17.352,8.999c0,0,24.467,10.255,30.507,31.151c0,0,2.049,8.835-8.949,0.857
		c-10.997-7.978-2.469-31.269-35.687-27.936c0,0-8.713,0.171-13.62,11.466c0,0,33.826,0.814,34.893,18.414
		c0,0,0.701,6.834-8.638-0.045c-9.339-6.88-22.671-25.821-34.179-8.658c0,0-3.882,11.275-2.845,14.178
		c0,0,19.308-7.287,24.517,4.196c5.209,11.483-14.426,3.459-14.426,3.459s-12.475-12.557-18.674,3.968l-4.84,14.057l-0.165,0.036
		l10.75,10.75C328.175,336.679,333.815,320.119,333.815,320.119z"/>
	
		<text transform="matrix(1 0 0 1 139.9133 330.8438)" style="fill:#FFFFFF; font-family:'BubblerOne'; font-size:29.1112px; letter-spacing:2;">PAGE NOT FOUND</text>
	<g>
		<g>
			<path style="fill:#0B6060;" d="M344.656,285.301c3.078-10.973,22.951-20.142,22.951-20.142
				c34.071-16.731,18.289-64.803,18.289-64.803l-8.806,5.464l6.683-7.054l-0.828-5.086c-4.257-10.121-11.785-3.676-11.785-3.676
				c-9.183-3.726-16.559,10.525-17.595,15.612c-1.036,5.087-4.819,7.052-4.819,7.052l-0.583,10.163l-1.241-7.629
				c-20.834,20.916-8.282,45.348-2.31,49.969c5.972,4.621,2.058,12.648,2.058,12.648L344.656,285.301z"/>
		</g>
		<g>
			<path style="fill:#10949B;" d="M371.16,190.005c-5.954,26.859-11.283,54.848-20.993,80.639
				c-1.491,3.961-3.846,7.173-5.934,10.835c-1.654,2.9-4.068,9.04-1.532,12.138c2.777,3.392,4.856-12.286,5.376-14.108
				c1.398-4.892,4.522-9.156,5.509-14.182C355.15,257.366,370.115,204.966,371.16,190.005z"/>
		</g>
		<g>
			<path style="fill:#10949B;" d="M367.265,190.245c0.068-0.004-0.026-0.119-0.067-0.064c-0.041,0.054,0.003,0.13,0.046,0.183
				c0.942,1.148,1.959,2.234,3.043,3.249"/>
		</g>
		<g>
			<path style="fill:#10949B;" d="M365.397,189.951c0.543,2.302,1.981,4.38,3.944,5.699"/>
		</g>
		<g>
			<path style="fill:#10949B;" d="M362.397,191.805c0.608,3.485,2.675,6.691,5.599,8.683"/>
		</g>
		<g>
			<path style="fill:#10949B;" d="M359.449,194.259c0.996,3.93,3.87,7.159,7.181,9.5"/>
		</g>
		<g>
			<path style="fill:#10949B;" d="M356.865,198.059c0.643,1.737,1.917,3.157,3.182,4.51c2.023,2.164,4.187,4.339,6.944,5.422"/>
		</g>
		<g>
			<path style="fill:#10949B;" d="M354.131,203.061c2.723,4.166,6.218,8.185,10.959,9.698"/>
		</g>
		<g>
			<path style="fill:#10949B;" d="M352.685,208.676c2.308,4.378,6.695,7.6,11.563,8.491"/>
		</g>
		<g>
			<path style="fill:#10949B;" d="M349.818,212.124c1.393,2.555,2.927,5.089,5.066,7.062c2.14,1.973,4.979,3.346,7.884,3.162"/>
		</g>
		<g>
			<path style="fill:#10949B;" d="M349.044,215.568c0.961,2.926,2.369,5.742,4.419,8.04c2.051,2.298,4.78,4.056,7.806,4.63"/>
		</g>
		<g>
			<path style="fill:#10949B;" d="M348.115,223.097c-0.174,1.265,0.264,2.555,0.962,3.625c0.698,1.07,1.642,1.952,2.588,2.811
				c2.56,2.324,5.426,4.659,8.862,5.046"/>
		</g>
		<g>
			<path style="fill:#10949B;" d="M342.707,220.522c0.368,4.089,0.806,8.379,3.123,11.768c2.72,3.979,7.481,5.943,11.979,7.675"/>
		</g>
		<g>
			<path style="fill:#10949B;" d="M338.716,226.729c1.212,4.743,3.058,9.398,6.072,13.255c3.014,3.857,7.29,6.869,12.115,7.697"/>
		</g>
		<g>
			<path style="fill:#10949B;" d="M336.451,232.324c0.114,3.891,2.289,7.412,4.697,10.47c3.661,4.65,8.53,8.973,14.43,9.439"/>
		</g>
		<g>
			<path style="fill:#10949B;" d="M335.472,243.027c1.563,5.332,6.346,8.996,10.965,12.083c2.147,1.435,4.454,2.876,7.033,3.012"/>
		</g>
		<g>
			<path style="fill:#10949B;" d="M337.76,255.324c2.728,1.746,5.306,3.725,7.697,5.91c1.717,1.569,3.646,3.365,5.966,3.203"/>
		</g>
		<g>
			<path style="fill:#10949B;" d="M371.035,193.744c0.711,0.132,1.459,0.057,2.13-0.212c0.353-0.142,0.682-0.335,0.998-0.546
				c1.334-0.895,2.432-2.138,3.154-3.572"/>
		</g>
		<g>
			<path style="fill:#10949B;" d="M370.298,195.724c2.033,0.199,4.127-0.236,5.902-1.247c1.776-1.01,3.223-2.592,4.054-4.459"/>
		</g>
		<g>
			<path style="fill:#10949B;" d="M369.214,200.889c1.009-0.407,2.141-0.275,3.226-0.34c3.936-0.234,7.357-3.223,8.892-6.855"/>
		</g>
		<g>
			<path style="fill:#10949B;" d="M368.559,203.977c1.512,0.9,3.393,0.921,5.13,0.64c1.118-0.181,2.258-0.497,3.119-1.232"/>
		</g>
		<g>
			<path style="fill:#10949B;" d="M367.917,207.852c1.743,0.353,3.547,0.121,5.3-0.178c0.37-0.063,0.742-0.13,1.087-0.279
				c0.325-0.141,0.615-0.35,0.902-0.558c0.571-0.414,1.142-0.828,1.713-1.242"/>
		</g>
		<g>
			<path style="fill:#10949B;" d="M367.126,213.353c1.784,0.264,3.603,0.528,5.383,0.234c0.944-0.156,1.854-0.466,2.76-0.774
				c1.887-0.643,3.785-1.291,5.53-2.255c1.745-0.964,3.346-2.271,4.367-3.983"/>
		</g>
		<g>
			<path style="fill:#10949B;" d="M366.011,217.119c1.934,0.509,3.95,0.734,5.942,0.565c3.768-0.321,7.261-2.02,10.654-3.69
				c1.635-0.805,3.376-1.711,4.214-3.329"/>
		</g>
		<g>
			<path style="fill:#10949B;" d="M364.981,222.04c3.621,1.698,7.843,1.342,11.792,0.71c1.932-0.31,3.875-0.683,5.661-1.481
				c1.786-0.798,3.423-2.062,4.338-3.792"/>
		</g>
		<g>
			<path style="fill:#10949B;" d="M362.843,228.706c4.212,2.034,9.07,2.778,13.662,1.89c4.592-0.888,8.879-3.442,11.683-7.186"/>
		</g>
		<g>
			<path style="fill:#10949B;" d="M361.353,234.808c1.287,0.813,2.586,1.631,4.014,2.159c1.311,0.485,2.704,0.713,4.094,0.857
				c3.393,0.352,6.864,0.21,10.145-0.722c3.281-0.932,6.368-2.683,8.633-5.233"/>
		</g>
		<g>
			<path style="fill:#10949B;" d="M360.093,241.217c4.439,2.695,9.885,3.104,15.076,2.923c3.614-0.126,7.432-0.585,10.296-2.792"/>
		</g>
		<g>
			<path style="fill:#10949B;" d="M357.85,248.111c0.303,0.497,0.837,0.801,1.359,1.06c6.827,3.398,15.157,2.761,22.162-0.255"/>
		</g>
		<g>
			<path style="fill:#10949B;" d="M356.769,252.855c6.042,4.328,14.478,5.046,21.165,1.802"/>
		</g>
		<g>
			<path style="fill:#10949B;" d="M355.306,258.452c3.909,2.886,9.214,3.781,13.854,2.337"/>
		</g>
		<g>
			<path style="fill:#10949B;" d="M354.033,264.332c1.66,1.186,3.803,1.444,5.843,1.462c1.829,0.017,3.659-0.129,5.462-0.434"/>
		</g>
	</g>
	<g>
		<path style="fill:#17CECE;" d="M247.278,281.909c0,0,16.124,27.621,46.229,4.032c0,0-28.145,16.36-42.969-6.2L247.278,281.909z"/>
		<g>
			<g>
				<path style="fill:#0B6060;" d="M254.124,293.227c4.104-1.694,11.69,2.195,11.69,2.195c13.318,6.424,24.262-9.968,24.262-9.968
					l-3.791-1.386l3.768,0.353l1.36-1.476c2.079-3.738-1.706-4.496-1.706-4.496c-1.065-3.711-7.206-2.547-9.015-1.642
					c-1.809,0.905-3.32,0.218-3.32,0.218l-3.256,2.264l2.04-2.214c-11.419-1.36-15.892,8.36-15.874,11.302
					c0.019,2.942-3.383,3.671-3.383,3.671L254.124,293.227z"/>
			</g>
			<g>
				<path style="fill:#10949B;" d="M289.707,278.448c-9.665,4.63-19.526,9.723-29.766,12.945c-1.573,0.495-3.123,0.545-4.748,0.785
					c-1.287,0.19-3.749,0.926-4.089,2.448c-0.372,1.666,4.934-1.464,5.617-1.742c1.836-0.747,3.894-0.814,5.672-1.72
					C265.21,289.73,284.87,281.723,289.707,278.448z"/>
			</g>
			<g>
				<path style="fill:#10949B;" d="M288.698,277.312c0.018,0.02,0.03-0.036,0.004-0.036c-0.027,0-0.039,0.032-0.045,0.058
					c-0.126,0.565-0.214,1.137-0.265,1.714"/>
			</g>
			<g>
				<path style="fill:#10949B;" d="M288.339,276.668c-0.575,0.72-0.867,1.66-0.799,2.579"/>
			</g>
			<g>
				<path style="fill:#10949B;" d="M287.049,276.194c-0.922,1.024-1.408,2.428-1.316,3.803"/>
			</g>
			<g>
				<path style="fill:#10949B;" d="M285.589,275.88c-0.965,1.25-1.265,2.907-1.186,4.484"/>
			</g>
			<g>
				<path style="fill:#10949B;" d="M283.803,276.002c-0.378,0.615-0.507,1.346-0.618,2.059c-0.177,1.14-0.324,2.326,0.007,3.432"/>
			</g>
			<g>
				<path style="fill:#10949B;" d="M281.612,276.366c-0.622,1.836-1.015,3.873-0.339,5.69"/>
			</g>
			<g>
				<path style="fill:#10949B;" d="M279.543,277.272c-0.788,1.76-0.721,3.879,0.176,5.586"/>
			</g>
			<g>
				<path style="fill:#10949B;" d="M277.797,277.222c-0.449,1.041-0.857,2.12-0.947,3.25c-0.091,1.13,0.171,2.331,0.925,3.177"/>
			</g>
			<g>
				<path style="fill:#10949B;" d="M276.555,277.812c-0.666,0.998-1.191,2.106-1.403,3.287c-0.212,1.181-0.095,2.44,0.457,3.506"/>
			</g>
			<g>
				<path style="fill:#10949B;" d="M274.024,279.337c-0.43,0.251-0.72,0.695-0.88,1.166c-0.16,0.471-0.204,0.973-0.24,1.469
					c-0.097,1.344-0.124,2.783,0.583,3.93"/>
			</g>
			<g>
				<path style="fill:#10949B;" d="M273.514,277.06c-1.165,1.096-2.375,2.261-2.857,3.786c-0.566,1.79-0.024,3.722,0.526,5.517"/>
			</g>
			<g>
				<path style="fill:#10949B;" d="M270.652,277.328c-1.163,1.511-2.146,3.196-2.604,5.047c-0.458,1.851-0.354,3.886,0.552,5.564"/>
			</g>
			<g>
				<path style="fill:#10949B;" d="M268.392,277.979c-1.165,0.97-1.722,2.483-2.081,3.956c-0.546,2.24-0.701,4.772,0.575,6.692"/>
			</g>
			<g>
				<path style="fill:#10949B;" d="M264.876,280.251c-1.259,1.761-1.233,4.107-1.069,6.266c0.076,1.003,0.189,2.056,0.767,2.88"/>
			</g>
			<g>
				<path style="fill:#10949B;" d="M261.656,283.908c0.121,1.256,0.133,2.522,0.038,3.78c-0.068,0.903-0.155,1.927,0.452,2.599"/>
			</g>
			<g>
				<path style="fill:#10949B;" d="M288.531,279.308c0.13,0.25,0.333,0.461,0.577,0.602c0.128,0.074,0.267,0.129,0.407,0.175
					c0.595,0.194,1.24,0.232,1.853,0.108"/>
			</g>
			<g>
				<path style="fill:#10949B;" d="M287.747,279.558c0.428,0.671,1.064,1.208,1.801,1.51s1.569,0.365,2.341,0.171"/>
			</g>
			<g>
				<path style="fill:#10949B;" d="M285.903,280.467c0.367,0.211,0.599,0.59,0.879,0.907c1.018,1.15,2.756,1.481,4.239,1.078"/>
			</g>
			<g>
				<path style="fill:#10949B;" d="M284.799,281.009c0.088,0.68,0.533,1.262,1.037,1.727c0.324,0.299,0.695,0.573,1.127,0.66"/>
			</g>
			<g>
				<path style="fill:#10949B;" d="M283.457,281.743c0.311,0.619,0.815,1.116,1.328,1.582c0.108,0.098,0.218,0.196,0.347,0.266
					c0.121,0.066,0.255,0.104,0.388,0.142c0.264,0.076,0.528,0.151,0.792,0.227"/>
			</g>
			<g>
				<path style="fill:#10949B;" d="M281.58,282.823c0.348,0.61,0.704,1.232,1.222,1.707c0.275,0.252,0.589,0.457,0.901,0.66
					c0.651,0.424,1.305,0.85,2.02,1.153c0.715,0.303,1.5,0.48,2.271,0.382"/>
			</g>
			<g>
				<path style="fill:#10949B;" d="M280.158,283.386c0.309,0.715,0.724,1.387,1.255,1.957c1.004,1.078,2.365,1.741,3.692,2.379
					c0.64,0.308,1.336,0.624,2.034,0.492"/>
			</g>
			<g>
				<path style="fill:#10949B;" d="M278.402,284.253c0.35,1.518,1.473,2.727,2.617,3.785c0.559,0.518,1.141,1.024,1.815,1.38
					c0.674,0.356,1.455,0.554,2.205,0.418"/>
			</g>
			<g>
				<path style="fill:#10949B;" d="M275.845,285.2c0.389,1.78,1.328,3.448,2.704,4.642c1.376,1.194,3.189,1.895,5.011,1.854"/>
			</g>
			<g>
				<path style="fill:#10949B;" d="M273.616,286.21c0.06,0.59,0.121,1.185,0.303,1.749c0.167,0.518,0.431,1,0.721,1.461
					c0.708,1.125,1.585,2.155,2.66,2.937c1.074,0.782,2.353,1.307,3.679,1.389"/>
			</g>
			<g>
				<path style="fill:#10949B;" d="M271.348,287.364c0.241,2.009,1.424,3.777,2.727,5.324c0.907,1.078,1.965,2.138,3.331,2.485"/>
			</g>
			<g>
				<path style="fill:#10949B;" d="M268.696,288.333c-0.08,0.212-0.044,0.449,0.001,0.671c0.599,2.91,2.797,5.31,5.405,6.733"/>
			</g>
			<g>
				<path style="fill:#10949B;" d="M266.982,289.142c0.125,2.892,1.933,5.651,4.534,6.922"/>
			</g>
			<g>
				<path style="fill:#10949B;" d="M264.914,290.038c0.055,1.892,1.055,3.733,2.613,4.809"/>
			</g>
			<g>
				<path style="fill:#10949B;" d="M262.806,291.061c0.035,0.794,0.471,1.513,0.956,2.143c0.434,0.565,0.919,1.091,1.446,1.57"/>
			</g>
		</g>
	</g>
	
		<text transform="matrix(1 0 0 1 135.0887 293.9333)" style="fill:#F2F2F2; font-family:'FranklinGothic-DemiCond'; font-size:143.6415px;">404</text>
	
		<text transform="matrix(1 0 0 1 194.7994 391.1204)" style="fill:#F2F2F2; font-family:'FranklinGothic-DemiCond'; font-size:17.6024px;">GO BACK HOME</text>
	<path style="fill:#10949B;" d="M308.066,386.496c0,0,13.437-9.347,18.415-2.44C326.481,384.056,327.985,388.55,308.066,386.496z"/>
	<path style="fill:#10949B;" d="M189.452,386.496c0,0-13.437-9.347-18.415-2.44C171.037,384.056,169.533,388.55,189.452,386.496z"/>
	<g>
		<path style="fill:#17CECE;" d="M336.308,293.537c0,0,0.954-33.929,38.665-26.937c0,0-32.534-1.208-34.766,27.333L336.308,293.537z
			"/>
		<path style="fill:#17CECE;" d="M345.085,287.692c0,0,17.755-28.929,46.948-4.055c0,0-27.593-17.279-43.767,6.344L345.085,287.692z
			"/>
		<path style="fill:#10949B;" d="M332.953,294.756c0,0,24.585-17.102,33.694-4.464C366.647,290.293,369.4,298.514,332.953,294.756z"
			/>
		<path style="fill:#0B6060;" d="M333.807,295.318c0,0-6.691-16.693,1.934-20.317C335.741,275.001,340.923,274.499,333.807,295.318z
			"/>
	</g>
	<g>
		<path style="fill:#17CECE;" d="M172.022,292.828c0,0-1.273-45.248-51.563-35.923c0,0,43.388-1.611,46.364,36.452L172.022,292.828z
			"/>
		<path style="fill:#10949B;" d="M175.365,294.253c0,0-24.585-17.102-33.694-4.464C141.671,289.79,138.918,298.011,175.365,294.253z
			"/>
	</g>
	<line style="fill:none;stroke:#FFFFFF;stroke-miterlimit:10;" x1="190.682" y1="398.333" x2="306.677" y2="398.333"/>
	<g>
		<path style="fill:#FFF7BB;" d="M164.089,77.992c0,1.117-0.905,2.022-2.022,2.022c-1.117,0-2.022-0.905-2.022-2.022
			c0-1.117,0.905-2.022,2.022-2.022C163.183,75.97,164.089,76.875,164.089,77.992z"/>
		<path style="fill:#FFF7BB;" d="M175.907,95.667c0,0.741-0.601,1.342-1.342,1.342c-0.741,0-1.342-0.601-1.342-1.342
			c0-0.741,0.601-1.342,1.342-1.342C175.306,94.325,175.907,94.925,175.907,95.667z"/>
		<circle style="fill:#FFF7BB;" cx="304.461" cy="359" r="2.022"/>
		<circle style="fill:#FFF7BB;" cx="145.54" cy="368.5" r="2.022"/>
		<path style="fill:#FFF7BB;" d="M398.135,296.794c0,1.117-0.905,2.022-2.022,2.022c-1.117,0-2.022-0.905-2.022-2.022
			c0-1.117,0.905-2.022,2.022-2.022C397.229,294.771,398.135,295.677,398.135,296.794z"/>
		<path style="fill:#FFF7BB;" d="M424.26,126.827c0,1.117-0.905,2.022-2.022,2.022c-1.117,0-2.022-0.905-2.022-2.022
			c0-1.117,0.905-2.022,2.022-2.022C423.354,124.805,424.26,125.711,424.26,126.827z"/>
		<path style="fill:#FFF7BB;" d="M285.26,63.141c0,1.117-0.905,2.022-2.022,2.022c-1.117,0-2.022-0.905-2.022-2.022
			c0-1.117,0.905-2.022,2.022-2.022C284.354,61.119,285.26,62.024,285.26,63.141z"/>
		<path style="fill:#FFF7BB;" d="M161.01,180.52c0,1.117-0.905,2.022-2.022,2.022c-1.117,0-2.022-0.905-2.022-2.022
			c0-1.117,0.905-2.022,2.022-2.022C160.104,178.498,161.01,179.404,161.01,180.52z"/>
		<path style="fill:#FFF7BB;" d="M320.26,161.827c0,1.117-0.905,2.022-2.022,2.022c-1.117,0-2.022-0.905-2.022-2.022
			c0-1.117,0.905-2.022,2.022-2.022C319.354,159.805,320.26,160.711,320.26,161.827z"/>
		<path style="fill:#FFF7BB;" d="M158.907,281.667c0,0.741-0.601,1.342-1.342,1.342c-0.741,0-1.342-0.601-1.342-1.342
			c0-0.741,0.601-1.342,1.342-1.342C158.306,280.325,158.907,280.926,158.907,281.667z"/>
		<path style="fill:#FFF7BB;" d="M327.849,337.028c0,0.741-0.601,1.342-1.342,1.342c-0.741,0-1.342-0.601-1.342-1.342
			c0-0.741,0.601-1.342,1.342-1.342C327.248,335.686,327.849,336.287,327.849,337.028z"/>
		<path style="fill:#FFF7BB;" d="M315.432,366.528c0,0.741-0.601,1.342-1.342,1.342c-0.741,0-1.342-0.601-1.342-1.342
			c0-0.741,0.601-1.342,1.342-1.342C314.831,365.186,315.432,365.787,315.432,366.528z"/>
		<path style="fill:#FFF7BB;" d="M176.974,339.712c0,0.741-0.601,1.342-1.342,1.342c-0.741,0-1.342-0.601-1.342-1.342
			c0-0.741,0.601-1.342,1.342-1.342C176.373,338.37,176.974,338.971,176.974,339.712z"/>
		<path style="fill:#FFF7BB;" d="M409.911,179.153c0,0.741-0.601,1.342-1.342,1.342c-0.741,0-1.342-0.601-1.342-1.342
			c0-0.741,0.601-1.342,1.342-1.342C409.31,177.811,409.911,178.412,409.911,179.153z"/>
	</g>
</g>
<g id="DESIGNED_BY_FREEPIK">
	<g id="XMLID_76_">
		<g id="XMLID_929_">
			<path id="XMLID_958_" style="fill:#17CECE;" d="M181.087,472.134c-0.246,0-0.435,0.085-0.567,0.255
				c-0.133,0.17-0.199,0.421-0.199,0.753v2.392c-0.305-0.331-0.617-0.579-0.937-0.739c-0.321-0.159-0.715-0.24-1.182-0.24
				c-0.807,0-1.458,0.283-1.953,0.848c-0.494,0.566-0.742,1.356-0.742,2.369c0,0.478,0.063,0.923,0.187,1.335
				c0.124,0.412,0.307,0.77,0.549,1.074c0.241,0.305,0.527,0.539,0.857,0.703c0.33,0.164,0.689,0.246,1.078,0.246
				c0.293,0,0.563-0.04,0.809-0.122c0.248-0.08,0.477-0.199,0.689-0.356c0.212-0.156,0.427-0.359,0.644-0.608v0.16
				c0,0.297,0.072,0.525,0.217,0.685c0.145,0.161,0.328,0.24,0.549,0.24c0.226,0,0.409-0.077,0.552-0.231
				c0.143-0.154,0.214-0.386,0.214-0.694v-7.146c0-0.305-0.066-0.534-0.199-0.691C181.521,472.212,181.332,472.134,181.087,472.134z
				 M180.021,478.974c-0.14,0.306-0.328,0.533-0.563,0.682c-0.236,0.149-0.496,0.223-0.781,0.223c-0.281,0-0.539-0.079-0.777-0.236
				c-0.237-0.155-0.424-0.387-0.561-0.696c-0.136-0.309-0.204-0.682-0.204-1.122c0-0.415,0.063-0.78,0.193-1.095
				c0.128-0.315,0.309-0.556,0.543-0.724c0.233-0.168,0.499-0.253,0.795-0.253c0.285,0,0.547,0.082,0.786,0.246
				c0.239,0.165,0.429,0.402,0.569,0.712c0.141,0.311,0.21,0.682,0.21,1.114C180.232,478.284,180.162,478.667,180.021,478.974z"/>
			<path id="XMLID_954_" style="fill:#17CECE;" d="M188.452,478.054c0.233-0.122,0.35-0.385,0.35-0.793
				c0-0.438-0.114-0.87-0.339-1.294c-0.225-0.423-0.564-0.769-1.018-1.035c-0.453-0.268-0.996-0.4-1.628-0.4
				c-0.487,0-0.93,0.078-1.33,0.234c-0.4,0.157-0.737,0.381-1.009,0.674c-0.273,0.293-0.48,0.644-0.623,1.054
				c-0.143,0.409-0.214,0.853-0.214,1.332c0,1.017,0.289,1.822,0.867,2.415c0.577,0.592,1.387,0.89,2.427,0.89
				c0.455,0,0.858-0.059,1.207-0.178c0.352-0.12,0.641-0.268,0.873-0.448c0.231-0.18,0.404-0.368,0.519-0.564
				c0.115-0.197,0.172-0.367,0.172-0.514c0-0.166-0.052-0.294-0.155-0.386c-0.102-0.09-0.237-0.137-0.403-0.137
				c-0.154,0-0.273,0.035-0.356,0.107c-0.203,0.19-0.366,0.34-0.493,0.452c-0.126,0.111-0.265,0.215-0.415,0.312
				c-0.15,0.098-0.305,0.167-0.466,0.214c-0.16,0.045-0.337,0.067-0.531,0.067c-0.289,0-0.553-0.07-0.792-0.213
				c-0.239-0.142-0.432-0.354-0.576-0.635c-0.145-0.281-0.219-0.605-0.222-0.973h3.168
				C187.89,478.235,188.219,478.174,188.452,478.054z M184.297,477.315c0.056-0.546,0.212-0.959,0.472-1.238
				c0.259-0.28,0.59-0.418,0.994-0.418c0.423,0,0.764,0.137,1.024,0.412c0.259,0.275,0.409,0.69,0.448,1.244H184.297z"/>
			<path id="XMLID_952_" style="fill:#17CECE;" d="M193.879,477.617c-0.319-0.17-0.729-0.316-1.231-0.439
				c-0.425-0.103-0.756-0.19-0.997-0.261c-0.242-0.07-0.434-0.16-0.577-0.27c-0.142-0.109-0.213-0.248-0.213-0.419
				c0-0.186,0.096-0.341,0.29-0.465c0.194-0.126,0.437-0.187,0.73-0.187c0.286,0,0.511,0.047,0.677,0.142
				c0.166,0.095,0.31,0.222,0.433,0.38c0.151,0.19,0.284,0.332,0.401,0.427c0.116,0.095,0.258,0.143,0.423,0.143
				c0.231,0,0.408-0.06,0.532-0.178c0.124-0.119,0.186-0.271,0.186-0.457c0-0.171-0.058-0.345-0.175-0.523
				c-0.116-0.178-0.286-0.34-0.51-0.486c-0.223-0.146-0.502-0.264-0.837-0.35c-0.333-0.088-0.71-0.131-1.13-0.131
				c-0.535,0-0.99,0.085-1.367,0.259c-0.378,0.172-0.665,0.403-0.859,0.691c-0.194,0.289-0.291,0.596-0.291,0.92
				c0,0.364,0.105,0.671,0.315,0.92c0.21,0.249,0.489,0.45,0.84,0.602c0.35,0.152,0.804,0.298,1.362,0.436
				c0.494,0.12,0.849,0.244,1.066,0.375c0.216,0.131,0.323,0.338,0.323,0.622c0,0.187-0.104,0.352-0.311,0.497
				c-0.208,0.144-0.474,0.216-0.798,0.216c-0.4,0-0.715-0.071-0.947-0.213c-0.231-0.143-0.431-0.358-0.597-0.647
				c-0.082-0.15-0.17-0.267-0.261-0.35c-0.091-0.082-0.221-0.124-0.391-0.124c-0.194,0-0.355,0.064-0.481,0.19
				c-0.128,0.126-0.19,0.278-0.19,0.456c0,0.27,0.099,0.537,0.297,0.805c0.198,0.266,0.505,0.489,0.92,0.667
				c0.415,0.178,0.914,0.267,1.495,0.267c0.61,0,1.127-0.082,1.552-0.246c0.425-0.164,0.747-0.406,0.964-0.724
				c0.218-0.319,0.327-0.702,0.327-1.149c0-0.297-0.082-0.56-0.246-0.791C194.438,477.988,194.196,477.787,193.879,477.617z"/>
			<path id="XMLID_950_" style="fill:#17CECE;" d="M196.486,474.543c-0.237,0-0.43,0.081-0.578,0.243
				c-0.149,0.162-0.222,0.404-0.222,0.724v4.635c0,0.317,0.073,0.56,0.222,0.73c0.148,0.17,0.341,0.255,0.578,0.255
				c0.238,0,0.433-0.083,0.588-0.249c0.154-0.166,0.231-0.412,0.231-0.737v-4.682c0-0.289-0.077-0.514-0.231-0.677
				C196.919,474.624,196.724,474.543,196.486,474.543z"/>
			<path id="XMLID_949_" style="fill:#17CECE;" d="M196.504,472.204c-0.217,0-0.409,0.073-0.573,0.223
				c-0.164,0.149-0.246,0.337-0.246,0.567c0,0.254,0.08,0.45,0.24,0.588c0.16,0.139,0.353,0.208,0.579,0.208
				c0.217,0,0.405-0.071,0.563-0.211c0.158-0.14,0.238-0.335,0.238-0.585c0-0.257-0.081-0.453-0.243-0.588
				C196.9,472.272,196.714,472.204,196.504,472.204z"/>
			<path id="XMLID_945_" style="fill:#17CECE;" d="M203.626,474.543c-0.217,0-0.395,0.078-0.535,0.231
				c-0.139,0.155-0.208,0.372-0.208,0.653v0.22c-0.289-0.376-0.602-0.652-0.937-0.829c-0.337-0.175-0.735-0.264-1.194-0.264
				c-0.384,0-0.736,0.068-1.056,0.204c-0.32,0.137-0.604,0.34-0.849,0.609c-0.245,0.268-0.433,0.599-0.566,0.992
				c-0.133,0.391-0.199,0.831-0.199,1.318c0,0.653,0.109,1.228,0.327,1.727c0.217,0.499,0.529,0.886,0.934,1.163
				c0.407,0.277,0.88,0.416,1.422,0.416c0.45,0,0.84-0.091,1.165-0.273c0.327-0.182,0.615-0.447,0.864-0.796
				c-0.008,0.531-0.02,0.915-0.035,1.155c-0.016,0.24-0.07,0.464-0.163,0.673c-0.093,0.21-0.255,0.374-0.486,0.49
				c-0.231,0.117-0.557,0.175-0.977,0.175c-0.205,0-0.388-0.02-0.546-0.056c-0.159-0.038-0.294-0.095-0.406-0.172
				c-0.112-0.078-0.216-0.17-0.309-0.279c-0.093-0.109-0.183-0.217-0.27-0.324c-0.178-0.209-0.386-0.314-0.624-0.314
				c-0.189,0-0.352,0.062-0.486,0.187c-0.135,0.124-0.202,0.285-0.202,0.483c0,0.262,0.119,0.516,0.356,0.763
				c0.238,0.247,0.576,0.449,1.014,0.605c0.439,0.156,0.938,0.234,1.496,0.234c0.609,0,1.119-0.061,1.528-0.184
				c0.409-0.122,0.741-0.311,0.994-0.563c0.253-0.254,0.437-0.574,0.552-0.961c0.115-0.389,0.173-0.851,0.173-1.389v-4.706
				c0-0.384-0.051-0.678-0.155-0.882C204.146,474.645,203.938,474.543,203.626,474.543z M202.599,478.908
				c-0.151,0.291-0.345,0.508-0.586,0.653c-0.239,0.144-0.493,0.217-0.762,0.217c-0.455,0-0.826-0.168-1.113-0.505
				c-0.287-0.336-0.43-0.834-0.43-1.49c0-0.649,0.139-1.15,0.418-1.502s0.649-0.528,1.113-0.528c0.475,0,0.857,0.184,1.148,0.553
				c0.291,0.367,0.436,0.882,0.436,1.543C202.825,478.265,202.749,478.617,202.599,478.908z"/>
			<path id="XMLID_944_" style="fill:#17CECE;" d="M210.978,475.611c-0.165-0.339-0.417-0.602-0.753-0.788
				c-0.337-0.186-0.718-0.28-1.146-0.28c-0.439,0-0.827,0.088-1.166,0.264c-0.339,0.176-0.65,0.452-0.935,0.828v-0.196
				c0-0.193-0.034-0.358-0.104-0.493c-0.07-0.134-0.162-0.234-0.276-0.302c-0.115-0.068-0.244-0.101-0.387-0.101
				c-0.233,0-0.417,0.076-0.552,0.228c-0.134,0.153-0.201,0.383-0.201,0.692v4.682c0,0.317,0.076,0.56,0.226,0.73
				c0.15,0.17,0.342,0.255,0.576,0.255c0.241,0,0.438-0.082,0.59-0.246c0.152-0.164,0.228-0.411,0.228-0.74v-2.03
				c0-0.661,0.04-1.111,0.119-1.353c0.11-0.3,0.284-0.537,0.522-0.71c0.237-0.173,0.5-0.258,0.788-0.258
				c0.444,0,0.74,0.142,0.888,0.425c0.148,0.283,0.223,0.691,0.223,1.225v2.7c0,0.317,0.074,0.56,0.226,0.73
				c0.15,0.17,0.345,0.255,0.587,0.255c0.238,0,0.431-0.083,0.579-0.249c0.149-0.166,0.223-0.412,0.223-0.737v-3.015
				c0-0.356-0.016-0.648-0.048-0.878C211.155,476.023,211.085,475.809,210.978,475.611z"/>
			<path id="XMLID_939_" style="fill:#17CECE;" d="M217.821,478.054c0.234-0.122,0.35-0.385,0.35-0.793
				c0-0.438-0.113-0.87-0.338-1.294c-0.226-0.423-0.565-0.769-1.019-1.035c-0.453-0.268-0.995-0.4-1.628-0.4
				c-0.487,0-0.93,0.078-1.33,0.234c-0.4,0.157-0.736,0.381-1.009,0.674c-0.273,0.293-0.481,0.644-0.624,1.054
				c-0.142,0.409-0.214,0.853-0.214,1.332c0,1.017,0.289,1.822,0.867,2.415c0.578,0.592,1.387,0.89,2.427,0.89
				c0.455,0,0.858-0.059,1.208-0.178c0.35-0.12,0.64-0.268,0.871-0.448c0.232-0.18,0.405-0.368,0.52-0.564
				c0.115-0.197,0.172-0.367,0.172-0.514c0-0.166-0.051-0.294-0.154-0.386c-0.103-0.09-0.238-0.137-0.404-0.137
				c-0.154,0-0.273,0.035-0.356,0.107c-0.201,0.19-0.366,0.34-0.492,0.452c-0.128,0.111-0.266,0.215-0.416,0.312
				c-0.151,0.098-0.306,0.167-0.466,0.214c-0.161,0.045-0.338,0.067-0.532,0.067c-0.289,0-0.553-0.07-0.792-0.213
				c-0.239-0.142-0.431-0.354-0.575-0.635c-0.145-0.281-0.218-0.605-0.223-0.973h3.169
				C217.26,478.235,217.588,478.174,217.821,478.054z M213.667,477.315c0.055-0.546,0.212-0.959,0.471-1.238
				c0.259-0.28,0.591-0.418,0.995-0.418c0.423,0,0.765,0.137,1.024,0.412c0.259,0.275,0.409,0.69,0.448,1.244H213.667z"/>
			<path id="XMLID_936_" style="fill:#17CECE;" d="M224.207,472.134c-0.245,0-0.434,0.085-0.567,0.255
				c-0.132,0.17-0.2,0.421-0.2,0.753v2.392c-0.304-0.331-0.616-0.579-0.937-0.739c-0.32-0.159-0.714-0.24-1.181-0.24
				c-0.807,0-1.458,0.283-1.953,0.848c-0.495,0.566-0.741,1.356-0.741,2.369c0,0.478,0.062,0.923,0.187,1.335
				c0.124,0.412,0.307,0.77,0.549,1.074c0.241,0.305,0.527,0.539,0.857,0.703c0.33,0.164,0.689,0.246,1.077,0.246
				c0.293,0,0.563-0.04,0.81-0.122c0.247-0.08,0.476-0.199,0.688-0.356c0.211-0.156,0.426-0.359,0.643-0.608v0.16
				c0,0.297,0.073,0.525,0.217,0.685c0.145,0.161,0.328,0.24,0.549,0.24c0.226,0,0.41-0.077,0.552-0.231
				c0.143-0.154,0.214-0.386,0.214-0.694v-7.146c0-0.305-0.066-0.534-0.199-0.691C224.64,472.212,224.452,472.134,224.207,472.134z
				 M223.141,478.974c-0.14,0.306-0.328,0.533-0.564,0.682c-0.235,0.149-0.495,0.223-0.781,0.223c-0.281,0-0.54-0.079-0.776-0.236
				c-0.238-0.155-0.425-0.387-0.561-0.696c-0.137-0.309-0.205-0.682-0.205-1.122c0-0.415,0.064-0.78,0.193-1.095
				c0.129-0.315,0.31-0.556,0.543-0.724c0.233-0.168,0.499-0.253,0.795-0.253c0.285,0,0.547,0.082,0.787,0.246
				c0.239,0.165,0.43,0.402,0.57,0.712c0.14,0.311,0.21,0.682,0.21,1.114C223.352,478.284,223.281,478.667,223.141,478.974z"/>
			<path id="XMLID_933_" style="fill:#17CECE;" d="M233.586,474.937c-0.406-0.254-0.878-0.382-1.416-0.382
				c-0.467,0-0.859,0.084-1.175,0.252c-0.317,0.168-0.627,0.411-0.932,0.727v-2.475c0-0.297-0.068-0.524-0.202-0.685
				c-0.134-0.16-0.326-0.24-0.576-0.24c-0.237,0-0.423,0.084-0.555,0.252c-0.132,0.168-0.198,0.416-0.198,0.745v7.075
				c0,0.305,0.068,0.535,0.205,0.692c0.136,0.156,0.319,0.234,0.549,0.234c0.226,0,0.412-0.077,0.558-0.234
				c0.146-0.157,0.22-0.388,0.22-0.692v-0.16c0.178,0.205,0.322,0.361,0.43,0.463c0.109,0.103,0.241,0.203,0.395,0.3
				c0.154,0.098,0.341,0.175,0.561,0.234c0.22,0.06,0.454,0.089,0.704,0.089c0.407,0,0.781-0.082,1.118-0.246
				c0.338-0.164,0.626-0.397,0.864-0.698c0.237-0.3,0.418-0.656,0.543-1.065c0.125-0.41,0.187-0.859,0.187-1.35
				c0-0.665-0.112-1.241-0.336-1.725C234.305,475.563,233.991,475.193,233.586,474.937z M232.796,479.348
				c-0.295,0.354-0.646,0.531-1.053,0.531c-0.479,0-0.866-0.174-1.161-0.521c-0.295-0.346-0.442-0.841-0.442-1.487
				c0-0.439,0.069-0.818,0.208-1.136c0.138-0.319,0.328-0.562,0.57-0.73c0.24-0.168,0.516-0.253,0.825-0.253
				c0.3,0,0.564,0.085,0.79,0.253c0.225,0.168,0.399,0.406,0.522,0.715c0.123,0.308,0.184,0.677,0.184,1.104
				C233.238,478.486,233.09,478.993,232.796,479.348z"/>
			<path id="XMLID_931_" style="fill:#17CECE;" d="M240.529,474.641c-0.112-0.066-0.23-0.098-0.353-0.098
				c-0.171,0-0.303,0.03-0.395,0.09c-0.093,0.058-0.181,0.173-0.264,0.344c-0.083,0.17-0.176,0.406-0.279,0.706l-1.3,3.71
				l-1.371-3.988c-0.091-0.277-0.195-0.489-0.314-0.638c-0.119-0.148-0.295-0.223-0.529-0.223c-0.135,0-0.264,0.035-0.389,0.107
				c-0.124,0.071-0.222,0.166-0.294,0.285c-0.071,0.118-0.107,0.247-0.107,0.385c0,0.13,0.062,0.341,0.184,0.628l1.994,5.022
				l-0.148,0.362c-0.111,0.265-0.209,0.466-0.294,0.601c-0.085,0.138-0.181,0.234-0.288,0.289c-0.107,0.056-0.254,0.084-0.44,0.084
				c-0.074,0-0.163-0.012-0.266-0.035c-0.083-0.024-0.168-0.037-0.256-0.037c-0.221,0-0.388,0.051-0.5,0.152
				c-0.114,0.101-0.17,0.245-0.17,0.43c0,0.273,0.118,0.461,0.356,0.564c0.237,0.103,0.593,0.154,1.068,0.154
				c0.487,0,0.873-0.074,1.161-0.223c0.287-0.148,0.517-0.361,0.691-0.638c0.174-0.277,0.353-0.658,0.535-1.145l2.113-5.532
				c0.051-0.142,0.095-0.283,0.13-0.421c0.037-0.139,0.061-0.246,0.078-0.321c0-0.123-0.032-0.239-0.093-0.35
				C240.729,474.794,240.642,474.706,240.529,474.641z"/>
		</g>
		<g id="XMLID_365_">
			<g id="XMLID_380_">
				<path id="XMLID_928_" style="fill:#17CECE;" d="M262.93,472.129c-0.533,0-0.954,0.069-1.26,0.204
					c-0.307,0.137-0.527,0.354-0.654,0.652c-0.129,0.301-0.191,0.702-0.191,1.211v0.487h-0.387c-0.543,0-0.815,0.192-0.815,0.582
					c0,0.174,0.066,0.316,0.196,0.424c0.132,0.111,0.316,0.163,0.558,0.163h0.447v4.294c0,0.319,0.074,0.563,0.227,0.73
					c0.154,0.17,0.344,0.254,0.574,0.254c0.243,0,0.438-0.084,0.589-0.254c0.156-0.167,0.231-0.411,0.231-0.73v-4.294h0.395
					c0.29,0,0.517-0.035,0.68-0.107c0.166-0.071,0.245-0.24,0.245-0.502c0-0.374-0.306-0.56-0.926-0.56h-0.395v-0.386
					c0-0.322,0.043-0.568,0.122-0.74c0.087-0.172,0.273-0.259,0.566-0.259c0.107,0,0.241,0.014,0.389,0.034
					c0.156,0.026,0.267,0.038,0.33,0.038c0.134,0,0.252-0.054,0.348-0.16c0.101-0.107,0.15-0.236,0.15-0.384
					C264.35,472.359,263.879,472.129,262.93,472.129z"/>
				<path id="XMLID_926_" style="fill:#17CECE;" d="M268.089,474.795c-0.32-0.171-0.648-0.255-0.99-0.255
					c-0.342,0-0.611,0.084-0.818,0.255c-0.203,0.171-0.4,0.421-0.592,0.755c-0.014-0.334-0.08-0.584-0.198-0.755
					c-0.119-0.171-0.312-0.255-0.583-0.255c-0.525,0-0.788,0.364-0.788,1.093v4.513c0,0.323,0.078,0.569,0.225,0.733
					c0.15,0.169,0.34,0.25,0.579,0.25c0.237,0,0.432-0.081,0.586-0.247c0.151-0.163,0.234-0.41,0.234-0.737v-1.355
					c0-0.486,0.014-0.899,0.045-1.239c0.034-0.336,0.09-0.63,0.17-0.878c0.084-0.243,0.201-0.425,0.353-0.553
					c0.149-0.122,0.345-0.186,0.582-0.186c0.172,0,0.374,0.037,0.602,0.108c0.226,0.073,0.37,0.112,0.433,0.112
					c0.157,0,0.304-0.064,0.441-0.195c0.135-0.126,0.204-0.292,0.204-0.488C268.571,475.193,268.411,474.966,268.089,474.795z"/>
				<path id="XMLID_922_" style="fill:#17CECE;" d="M274.176,478.052c0.233-0.122,0.351-0.386,0.351-0.791
					c0-0.441-0.113-0.87-0.339-1.296c-0.222-0.423-0.566-0.77-1.018-1.034c-0.453-0.27-0.997-0.403-1.629-0.403
					c-0.488,0-0.931,0.078-1.33,0.233c-0.402,0.156-0.735,0.38-1.007,0.674c-0.276,0.295-0.484,0.643-0.624,1.055
					c-0.144,0.41-0.217,0.855-0.217,1.333c0,1.017,0.292,1.823,0.87,2.418c0.577,0.593,1.385,0.888,2.429,0.888
					c0.453,0,0.857-0.06,1.207-0.179c0.349-0.117,0.639-0.268,0.874-0.446c0.233-0.182,0.405-0.368,0.522-0.566
					c0.112-0.195,0.167-0.365,0.167-0.512c0-0.167-0.048-0.294-0.152-0.386c-0.105-0.092-0.238-0.139-0.406-0.139
					c-0.152,0-0.271,0.038-0.355,0.109c-0.202,0.189-0.367,0.34-0.494,0.449c-0.128,0.113-0.264,0.217-0.415,0.312
					c-0.15,0.097-0.307,0.17-0.466,0.213c-0.16,0.048-0.336,0.069-0.531,0.069c-0.29,0-0.552-0.07-0.793-0.212
					c-0.24-0.145-0.431-0.356-0.578-0.635c-0.144-0.281-0.216-0.607-0.221-0.974h3.171
					C273.615,478.233,273.943,478.173,274.176,478.052z M270.021,477.312c0.054-0.546,0.213-0.957,0.472-1.236
					c0.259-0.28,0.591-0.417,0.995-0.417c0.426,0,0.764,0.136,1.025,0.413c0.26,0.273,0.407,0.688,0.446,1.241H270.021z"/>
				<path id="XMLID_919_" style="fill:#17CECE;" d="M280.916,478.052c0.231-0.122,0.351-0.386,0.351-0.791
					c0-0.441-0.116-0.87-0.34-1.296c-0.222-0.423-0.563-0.77-1.013-1.034c-0.46-0.27-1.003-0.403-1.633-0.403
					c-0.486,0-0.932,0.078-1.33,0.233c-0.401,0.156-0.736,0.38-1.009,0.674c-0.273,0.295-0.481,0.643-0.622,1.055
					c-0.145,0.41-0.217,0.855-0.217,1.333c0,1.017,0.29,1.823,0.868,2.418c0.58,0.593,1.387,0.888,2.429,0.888
					c0.453,0,0.86-0.06,1.208-0.179c0.347-0.117,0.641-0.268,0.872-0.446c0.234-0.182,0.408-0.368,0.519-0.566
					c0.117-0.195,0.171-0.365,0.171-0.512c0-0.167-0.047-0.294-0.15-0.386c-0.104-0.092-0.238-0.139-0.406-0.139
					c-0.151,0-0.27,0.038-0.355,0.109c-0.203,0.189-0.368,0.34-0.492,0.449c-0.128,0.113-0.264,0.217-0.415,0.312
					c-0.152,0.097-0.307,0.17-0.469,0.213c-0.157,0.048-0.336,0.069-0.528,0.069c-0.291,0-0.555-0.07-0.795-0.212
					c-0.239-0.145-0.431-0.356-0.575-0.635c-0.144-0.281-0.218-0.607-0.222-0.974h3.17
					C280.354,478.233,280.682,478.173,280.916,478.052z M276.762,477.312c0.053-0.546,0.211-0.957,0.469-1.236
					c0.261-0.28,0.592-0.417,0.995-0.417c0.425,0,0.763,0.136,1.027,0.413c0.257,0.273,0.407,0.688,0.447,1.241H276.762z"/>
				<path id="XMLID_390_" style="fill:#17CECE;" d="M286.926,474.937c-0.42-0.256-0.882-0.386-1.379-0.386
					c-0.415,0-0.79,0.089-1.114,0.267c-0.331,0.176-0.649,0.452-0.952,0.828v-0.195c0-0.296-0.071-0.519-0.218-0.677
					c-0.143-0.156-0.329-0.234-0.56-0.234c-0.233,0-0.419,0.078-0.553,0.228c-0.134,0.155-0.2,0.382-0.2,0.692v6.995
					c0,0.355,0.051,0.62,0.146,0.807c0.102,0.183,0.301,0.275,0.607,0.275c0.518,0,0.778-0.359,0.778-1.068v-2.433
					c0.287,0.358,0.586,0.634,0.901,0.816c0.314,0.187,0.704,0.279,1.165,0.279c0.385,0,0.741-0.076,1.079-0.227
					c0.334-0.153,0.622-0.372,0.868-0.654c0.245-0.283,0.441-0.632,0.58-1.05c0.14-0.419,0.21-0.878,0.21-1.376
					c0-0.677-0.122-1.261-0.366-1.758C287.675,475.572,287.346,475.196,286.926,474.937z M286.451,478.94
					c-0.137,0.313-0.32,0.546-0.552,0.704c-0.229,0.154-0.48,0.232-0.748,0.232c-0.454,0-0.828-0.179-1.133-0.536
					c-0.306-0.358-0.46-0.862-0.46-1.504c0-0.686,0.154-1.204,0.462-1.558c0.306-0.35,0.684-0.527,1.13-0.527
					c0.281,0,0.541,0.084,0.77,0.248c0.229,0.163,0.411,0.397,0.541,0.705c0.13,0.306,0.197,0.674,0.197,1.101
					C286.658,478.248,286.589,478.626,286.451,478.94z"/>
				<path id="XMLID_389_" style="fill:#17CECE;" d="M289.9,474.54c-0.238,0-0.428,0.079-0.58,0.245
					c-0.146,0.162-0.222,0.403-0.222,0.721v4.641c0,0.313,0.076,0.555,0.222,0.729c0.152,0.17,0.342,0.254,0.58,0.254
					c0.238,0,0.432-0.082,0.588-0.25c0.154-0.165,0.231-0.41,0.231-0.732v-4.688c0-0.287-0.078-0.512-0.231-0.675
					C290.332,474.619,290.138,474.54,289.9,474.54z"/>
				<path id="XMLID_388_" style="fill:#17CECE;" d="M289.917,472.199c-0.217,0-0.408,0.076-0.571,0.223
					c-0.166,0.149-0.248,0.339-0.248,0.568c0,0.253,0.081,0.447,0.242,0.586c0.159,0.138,0.35,0.209,0.577,0.209
					c0.22,0,0.408-0.071,0.566-0.209c0.157-0.14,0.236-0.335,0.236-0.585c0-0.257-0.082-0.454-0.244-0.591
					C290.314,472.267,290.13,472.199,289.917,472.199z"/>
				<path id="XMLID_387_" style="fill:#17CECE;" d="M297.258,479.569l-1.662-2.614l0.86-0.789c0.438-0.395,0.659-0.714,0.659-0.951
					c0-0.192-0.068-0.355-0.2-0.483c-0.139-0.128-0.306-0.193-0.51-0.193c-0.168,0-0.312,0.043-0.431,0.13
					c-0.121,0.086-0.29,0.251-0.517,0.486l-1.822,1.914v-3.933c0-0.329-0.074-0.582-0.221-0.751
					c-0.148-0.172-0.344-0.258-0.593-0.258c-0.255,0-0.457,0.093-0.596,0.283c-0.135,0.189-0.207,0.462-0.207,0.821v6.913
					c0,0.323,0.073,0.569,0.215,0.733c0.141,0.169,0.339,0.25,0.588,0.25c0.213,0,0.406-0.084,0.566-0.254
					c0.165-0.167,0.248-0.406,0.248-0.718v-1.291l0.88-0.83l1.427,2.353c0.181,0.278,0.33,0.471,0.436,0.58
					c0.106,0.109,0.26,0.16,0.458,0.16c0.226,0,0.413-0.073,0.553-0.221c0.142-0.151,0.214-0.352,0.214-0.61
					c0-0.089-0.029-0.19-0.082-0.289C297.47,479.909,297.379,479.765,297.258,479.569z"/>
				<path id="XMLID_386_" style="fill:#17CECE;" d="M299.45,479.343c-0.25,0-0.458,0.087-0.63,0.261
					c-0.17,0.173-0.256,0.381-0.256,0.622c0,0.287,0.09,0.51,0.268,0.665c0.179,0.159,0.389,0.238,0.633,0.238
					c0.237,0,0.444-0.079,0.624-0.241c0.174-0.157,0.264-0.38,0.264-0.662c0-0.243-0.089-0.454-0.264-0.626
					C299.909,479.43,299.698,479.343,299.45,479.343z"/>
				<path id="XMLID_385_" style="fill:#17CECE;" d="M306.835,478.417c-0.167,0-0.308,0.054-0.422,0.156
					c-0.113,0.104-0.219,0.245-0.318,0.427c-0.178,0.309-0.381,0.538-0.616,0.689c-0.231,0.15-0.509,0.225-0.835,0.225
					c-0.24,0-0.463-0.045-0.665-0.141c-0.201-0.093-0.372-0.229-0.516-0.409c-0.143-0.18-0.252-0.398-0.325-0.652
					c-0.075-0.256-0.114-0.537-0.114-0.842c0-0.646,0.147-1.161,0.439-1.534c0.294-0.375,0.682-0.561,1.158-0.561
					c0.333,0,0.607,0.075,0.821,0.227c0.219,0.148,0.424,0.375,0.622,0.674c0.109,0.158,0.209,0.269,0.299,0.339
					c0.09,0.068,0.201,0.104,0.338,0.104c0.202,0,0.377-0.068,0.524-0.203c0.143-0.135,0.214-0.3,0.214-0.492
					c0-0.192-0.063-0.397-0.192-0.617c-0.128-0.218-0.314-0.424-0.556-0.62c-0.245-0.192-0.54-0.352-0.89-0.474
					c-0.353-0.123-0.737-0.184-1.157-0.184c-0.674,0-1.26,0.138-1.746,0.419c-0.486,0.279-0.859,0.674-1.113,1.183
					c-0.259,0.511-0.387,1.098-0.387,1.765c0,0.981,0.281,1.764,0.841,2.349c0.562,0.582,1.344,0.876,2.348,0.876
					c0.469,0,0.893-0.065,1.269-0.192c0.377-0.126,0.688-0.295,0.934-0.502c0.248-0.207,0.434-0.425,0.554-0.656
					c0.121-0.229,0.182-0.446,0.182-0.646c0-0.169-0.066-0.331-0.198-0.481C307.198,478.493,307.033,478.417,306.835,478.417z"/>
				<path id="XMLID_382_" style="fill:#17CECE;" d="M313.647,475.453c-0.288-0.29-0.629-0.518-1.027-0.674
					c-0.4-0.161-0.846-0.239-1.336-0.239c-0.483,0-0.924,0.078-1.326,0.234c-0.399,0.158-0.737,0.38-1.019,0.669
					c-0.281,0.288-0.498,0.636-0.649,1.045c-0.146,0.408-0.224,0.858-0.224,1.349c0,0.485,0.076,0.929,0.219,1.332
					c0.152,0.402,0.369,0.75,0.657,1.048c0.285,0.292,0.627,0.521,1.016,0.676c0.392,0.159,0.835,0.239,1.326,0.239
					c0.492,0,0.937-0.08,1.336-0.234c0.394-0.158,0.735-0.382,1.02-0.675c0.286-0.291,0.502-0.641,0.656-1.05
					c0.146-0.408,0.222-0.855,0.222-1.336c0-0.489-0.075-0.932-0.221-1.339C314.148,476.096,313.933,475.749,313.647,475.453z
					 M312.455,479.368c-0.29,0.372-0.682,0.557-1.171,0.557c-0.324,0-0.605-0.086-0.846-0.253c-0.24-0.168-0.423-0.409-0.553-0.729
					c-0.129-0.317-0.194-0.684-0.194-1.108c0-0.428,0.066-0.803,0.197-1.125c0.131-0.321,0.314-0.563,0.556-0.727
					c0.242-0.164,0.522-0.246,0.84-0.246c0.489,0,0.881,0.182,1.171,0.555c0.289,0.367,0.436,0.881,0.436,1.543
					C312.891,478.487,312.744,478.999,312.455,479.368z"/>
				<path id="XMLID_381_" style="fill:#17CECE;" d="M323.569,474.813c-0.32-0.173-0.705-0.262-1.146-0.262
					c-0.381,0-0.726,0.081-1.039,0.241c-0.313,0.161-0.607,0.408-0.881,0.738c-0.191-0.326-0.431-0.572-0.725-0.735
					c-0.292-0.162-0.641-0.243-1.048-0.243c-0.394,0-0.748,0.079-1.07,0.241c-0.319,0.156-0.619,0.403-0.903,0.738v-0.153
					c0-0.261-0.074-0.466-0.222-0.616c-0.15-0.145-0.334-0.221-0.557-0.221c-0.227,0-0.412,0.078-0.555,0.239
					c-0.14,0.157-0.21,0.389-0.21,0.694v4.636c0,0.336,0.078,0.591,0.235,0.765c0.156,0.171,0.357,0.257,0.604,0.257
					c0.248,0,0.447-0.087,0.603-0.257c0.15-0.173,0.226-0.428,0.226-0.765v-2.188c0-0.684,0.086-1.206,0.253-1.566
					c0.168-0.369,0.516-0.551,1.048-0.551c0.263,0,0.459,0.072,0.581,0.22c0.122,0.142,0.198,0.331,0.226,0.552
					c0.027,0.226,0.04,0.544,0.04,0.953v2.581c0,0.341,0.078,0.594,0.232,0.767c0.148,0.17,0.349,0.255,0.594,0.255
					c0.254,0,0.455-0.085,0.611-0.255c0.156-0.173,0.231-0.426,0.231-0.767v-2.154c0-0.694,0.062-1.178,0.178-1.452
					c0.109-0.209,0.259-0.383,0.45-0.508c0.192-0.125,0.395-0.192,0.609-0.192c0.264,0,0.463,0.072,0.596,0.215
					c0.128,0.142,0.209,0.319,0.239,0.529c0.029,0.209,0.043,0.486,0.043,0.836v2.725c0,0.336,0.079,0.591,0.235,0.765
					c0.157,0.171,0.356,0.257,0.603,0.257c0.253,0,0.458-0.085,0.612-0.255c0.154-0.173,0.229-0.426,0.229-0.767v-3.163
					c0-0.629-0.068-1.091-0.206-1.385C324.128,475.237,323.888,474.987,323.569,474.813z"/>
			</g>
			<g id="XMLID_366_">
				<path id="XMLID_379_" style="fill:#17CECE;" d="M245.273,477.444c-0.001-0.004-0.001-0.006-0.001-0.011
					C245.272,477.438,245.272,477.44,245.273,477.444z"/>
				<path id="XMLID_378_" style="fill:#17CECE;" d="M245.355,477.961c0.001,0,0.001,0,0.001,0c-0.031-0.147-0.055-0.294-0.073-0.438
					C245.301,477.669,245.326,477.816,245.355,477.961z"/>
				<path id="XMLID_377_" style="fill:#17CECE;" d="M245.891,479.466c-0.004-0.006-0.007-0.013-0.01-0.021
					C245.885,479.452,245.888,479.46,245.891,479.466z"/>
				<path id="XMLID_376_" style="fill:#17CECE;" d="M245.84,479.366c-0.014-0.027-0.027-0.056-0.041-0.084
					C245.813,479.311,245.826,479.338,245.84,479.366z"/>
				<path id="XMLID_375_" style="fill:#17CECE;" d="M245.506,478.541c0.079,0.25,0.175,0.492,0.286,0.724
					c-0.113-0.236-0.206-0.479-0.284-0.724H245.506z"/>
				<path id="XMLID_374_" style="fill:#17CECE;" d="M250.736,470.681l-0.076-0.259c0.299-0.063,0.524-0.329,0.524-0.646
					c0-0.364-0.297-0.659-0.66-0.659c-0.365,0-0.66,0.295-0.66,0.659c0,0.317,0.225,0.583,0.522,0.646l0.084,0.289
					c-1.021,0.14-1.834,0.539-1.834,0.539l0.144,0.441c0.618-0.206,1.153-0.331,1.64-0.383c0.476-0.051,0.834-0.073,1.126-0.073
					c0.314,0,0.544,0.025,0.809,0.069l0.075-0.476C252.429,470.828,251.698,470.603,250.736,470.681z"/>
				<path id="XMLID_373_" style="fill:#17CECE;" d="M245.453,473.188c-0.017,0.024-0.497,0.465-0.876,1.28
					c-0.016-0.026-0.035-0.051-0.056-0.074c-0.113-0.124-0.272-0.187-0.473-0.184c-0.002,0-0.006,0-0.01,0
					c-0.124,0-0.21-0.042-0.266-0.092c0.055-0.071,0.089-0.16,0.089-0.258c0-0.231-0.187-0.419-0.419-0.419
					c-0.23,0-0.417,0.188-0.417,0.419c0,0.231,0.187,0.417,0.417,0.417c0.037,0,0.071-0.005,0.105-0.012
					c0.102,0.113,0.265,0.214,0.504,0.209c0.123-0.001,0.214,0.03,0.273,0.097c0.07,0.076,0.093,0.185,0.1,0.267
					c-0.001,0.002-0.001,0.004-0.002,0.004c-0.272,0.743-0.195,1.668-0.195,1.668l0.661,0.026c0.013-0.336,0.062-0.926,0.232-1.393
					c0.328-0.906,0.741-1.472,0.757-1.496l0.004-0.005c0.024-0.031,0.047-0.06,0.071-0.089l-0.196-0.142L245.453,473.188z"/>
				<path id="XMLID_372_" style="fill:#17CECE;" d="M257.294,471.787c-0.23,0-0.418,0.187-0.418,0.417
					c0,0.037,0.006,0.071,0.015,0.104c-0.115,0.104-0.214,0.267-0.211,0.507c0.002,0.123-0.03,0.212-0.096,0.273
					c-0.053,0.047-0.12,0.072-0.185,0.088c-0.492-0.689-1.097-1.109-1.097-1.109l-0.474,0.508c0.358,0.326,0.724,0.734,1.08,1.244
					c0.246,0.352,0.499,0.806,0.71,1.259l0.64-0.304c0,0-0.292-0.722-0.704-1.369c0.071-0.025,0.143-0.064,0.207-0.12
					c0.125-0.113,0.187-0.273,0.183-0.474c-0.001-0.13,0.042-0.218,0.093-0.276c0.071,0.054,0.16,0.089,0.257,0.089
					c0.232,0,0.419-0.187,0.419-0.419C257.712,471.974,257.525,471.787,257.294,471.787z"/>
				<path id="XMLID_371_" style="fill:#17CECE;" d="M255.633,477.537c-0.88,0.429-2.33,0.996-4.237,1.262
					c-0.749,0.104-1.474,0.142-2.143,0.142c-0.869,0-1.637-0.065-2.226-0.139c-0.672-0.085-1.198-0.188-1.52-0.261
					c0.078,0.245,0.171,0.487,0.284,0.724c0.002,0.006,0.005,0.013,0.008,0.017c0.014,0.027,0.027,0.056,0.041,0.084
					c0.013,0.027,0.027,0.054,0.041,0.079c0.004,0.007,0.007,0.015,0.01,0.021c0.189,0.356,0.417,0.684,0.675,0.968
					c0.9,0.984,1.816,1.139,1.825,1.141l0.015,0.002l0.013,0.005c0.009,0.003,0.821,0.265,2.057,0.265
					c1.216,0,2.409-0.245,3.545-0.729c0.842-0.431,1.639-1.085,2.033-1.668c0.305-0.452,0.526-0.934,0.656-1.434
					c0.07-0.266,0.125-0.693,0.092-1.141C256.555,477.042,256.163,477.279,255.633,477.537z"/>
				<path id="XMLID_367_" style="fill:#17CECE;" d="M252.322,471.655c-0.264-0.043-0.477-0.068-0.777-0.068
					c-0.279,0-0.626,0.023-1.089,0.071c-0.465,0.049-0.982,0.171-1.583,0.373c-0.842,0.282-1.604,0.724-2.204,1.28l-0.02,0.019
					c-0.089,0.081-0.275,0.254-0.488,0.525c-0.026,0.037-0.408,0.578-0.709,1.408c-0.226,0.622-0.216,1.527-0.216,1.537v0.002
					c0,0.212,0.012,0.423,0.035,0.632c0,0.005,0,0.007,0.001,0.011c0.003,0.027,0.007,0.053,0.01,0.079
					c0.018,0.144,0.043,0.291,0.074,0.438c0.438,0.112,3.048,0.721,5.966,0.314c1.829-0.255,3.218-0.795,4.061-1.204
					c0.701-0.34,1.151-0.647,1.325-0.774c-0.173-0.643-0.651-1.65-1.089-2.279C254.367,472.229,253.016,471.769,252.322,471.655z
					 M248.679,476.914c-0.971,0-1.759-0.787-1.759-1.759c0-0.972,0.788-1.76,1.759-1.76c0.973,0,1.761,0.788,1.761,1.76
					C250.439,476.127,249.652,476.914,248.679,476.914z M253.829,475.617c-0.601,0-1.089-0.489-1.089-1.09
					c0-0.602,0.487-1.089,1.089-1.089c0.601,0,1.089,0.487,1.089,1.089C254.918,475.128,254.429,475.617,253.829,475.617z"/>
			</g>
		</g>
	</g>
</g>
</svg>
