<svg width="130" height="33" viewBox="0 0 130 33" fill="none" xmlns="http://www.w3.org/2000/svg">
            <path
              d="M6.22748 0.171202C6.0635 0.262318 5.91123 0.496616 5.8761 0.691867C5.82924 0.991249 5.47786 1.2646 3.6038 2.46213C1.57748 3.76379 1.35493 3.88094 1.0504 3.76379C0.195359 3.42536 -0.390284 4.54479 0.312488 5.15657C0.581884 5.40389 0.605309 5.495 0.605309 6.60142C0.605309 7.31733 0.546745 7.89007 0.464755 8.04627C0.347627 8.25453 0.347627 8.35867 0.464755 8.56693C0.546745 8.72313 0.605309 9.28285 0.605309 9.9467C0.605309 10.988 0.581884 11.0922 0.312488 11.3265C-0.0154721 11.6128 -0.0740364 12.1465 0.183647 12.537C0.324201 12.7583 0.687299 12.8234 1.19095 12.7062C1.28466 12.6802 2.38566 13.305 3.61551 14.099C5.40758 15.2314 5.8761 15.5829 5.8761 15.8042C5.8761 16.1426 6.22748 16.5071 6.53202 16.5071C6.8834 16.5071 7.28164 16.1426 7.28164 15.8172C7.28164 15.5829 7.7033 15.2575 9.56565 14.06C11.51 12.8104 11.8965 12.6151 12.1659 12.6932C12.5876 12.8104 12.7984 12.7583 12.9858 12.498C13.2318 12.1335 13.1615 11.5998 12.8452 11.3265L12.5524 11.0661V8.24152V5.41691L12.8452 5.15657C13.5597 4.53177 12.9624 3.42536 12.0956 3.76379C11.7794 3.88094 11.5803 3.78983 9.55393 2.48816C7.62131 1.25158 7.3402 1.0303 7.25821 0.678849C7.19965 0.44455 7.04738 0.223267 6.87169 0.132151C6.50859 -0.0500813 6.59058 -0.0500813 6.22748 0.171202ZM6.08693 1.51191C6.07521 1.56398 5.71212 2.26688 5.31388 3.07391L4.56426 4.53177H2.99473C2.12798 4.53177 1.42521 4.47971 1.42521 4.42764C1.42521 4.32351 5.85267 1.4208 6.02836 1.40778C6.08693 1.40778 6.11035 1.45985 6.08693 1.51191ZM9.48366 2.90469C10.7252 3.68569 11.7325 4.37558 11.7325 4.44066C11.7325 4.49272 11.018 4.51876 10.1396 4.50574L8.54663 4.46669L7.797 3.03486C7.07081 1.64208 6.94197 1.3427 7.14109 1.43382C7.19965 1.44683 8.25381 2.11068 9.48366 2.90469ZM6.46174 2.86565C6.45003 4.40161 6.36804 4.53177 5.47786 4.53177C4.98592 4.53177 4.81023 4.47971 4.84536 4.36256C4.93907 3.95904 6.18063 1.66811 6.32119 1.66811C6.4266 1.66811 6.46174 1.99353 6.46174 2.86565ZM7.65645 3.03486C8.03126 3.75078 8.3358 4.37558 8.3358 4.42764C8.3358 4.49272 8.04298 4.53177 7.69159 4.53177C6.71942 4.53177 6.57887 4.31049 6.57887 2.82659C6.57887 1.78526 6.60229 1.6551 6.77799 1.69415C6.8834 1.72018 7.28164 2.31895 7.65645 3.03486ZM8.90973 5.45596C9.17912 5.97662 9.37824 6.40617 9.36653 6.41919C9.07371 6.64047 6.76627 8.04627 6.68428 8.04627C6.62572 8.04627 6.57887 7.38242 6.57887 6.57539C6.57887 4.80512 6.63743 4.70099 7.69159 4.62289C8.07811 4.59686 8.40607 4.57082 8.41779 4.55781C8.4295 4.54479 8.65204 4.94831 8.90973 5.45596ZM4.09574 5.44294C3.88491 5.87249 3.66237 6.22394 3.6038 6.22394C3.4164 6.22394 1.42521 4.90926 1.42521 4.77909C1.42521 4.71401 2.09284 4.66194 2.94788 4.66194H4.48227L4.09574 5.44294ZM6.32119 4.81814C6.46174 4.97434 6.53202 8.04627 6.39146 8.04627C6.28605 8.04627 4.07232 6.61444 3.92005 6.44522C3.81463 6.32807 3.8732 6.10679 4.20116 5.46897L4.61111 4.66194H5.39587C5.85267 4.66194 6.23919 4.72702 6.32119 4.81814ZM11.7325 4.77909C11.7325 4.89624 9.72963 6.22394 9.54222 6.22394C9.44852 6.22394 8.90973 5.27372 8.71061 4.76607C8.68718 4.70099 9.35482 4.66194 10.1981 4.66194C11.0415 4.66194 11.7325 4.71401 11.7325 4.77909ZM2.33881 5.65121C2.85418 5.97662 3.33441 6.31505 3.40468 6.39315C3.48667 6.5103 3.40468 6.75762 3.147 7.22622C2.93617 7.59068 2.73705 7.9161 2.6902 7.94213C2.5965 7.98118 1.19095 5.37786 1.19095 5.16959C1.19095 4.96132 1.36665 5.03942 2.33881 5.65121ZM11.9668 5.13054C11.9668 5.27372 10.5144 8.04627 10.4441 8.04627C10.3387 8.04627 9.60079 6.47125 9.67106 6.39315C9.7062 6.3541 10.1747 6.0417 10.7018 5.69026C11.6154 5.10451 11.9668 4.94831 11.9668 5.13054ZM1.83516 6.79667L2.60821 8.28057L1.8703 9.72541C1.46035 10.5194 1.09725 11.1572 1.0504 11.1703C1.00355 11.1703 0.968408 9.85558 0.968408 8.24152C0.968408 6.62745 0.991834 5.31277 1.01526 5.31277C1.03869 5.31277 1.40178 5.97662 1.83516 6.79667ZM12.201 8.24152C12.201 9.85558 12.1542 11.1703 12.0956 11.1703C11.9434 11.1703 10.6784 8.59297 10.6784 8.26755C10.6784 7.94213 11.9902 5.31277 12.1425 5.31277C12.1776 5.31277 12.201 6.62745 12.201 8.24152ZM10.2684 8.17643C10.3153 8.50185 9.7062 9.6343 9.41338 9.75145C9.19083 9.84256 8.93315 9.72541 7.98441 9.11363C7.3402 8.71011 6.83655 8.31962 6.84826 8.26755C6.85998 8.20247 7.45733 7.78593 8.1601 7.34337L9.44852 6.52332L9.84676 7.25225C10.0576 7.65577 10.2567 8.0723 10.2684 8.17643ZM5.10305 7.40845C5.78239 7.85102 6.34461 8.24152 6.34461 8.29358C6.3329 8.33263 5.74725 8.73615 5.03277 9.19173C4.16602 9.73843 3.6975 9.97273 3.61551 9.88161C3.55695 9.81653 3.33441 9.42603 3.12357 9.02251L2.74876 8.28057L3.17043 7.4475C3.40468 6.99192 3.65065 6.61444 3.73264 6.61444C3.80292 6.61444 4.4237 6.9789 5.10305 7.40845ZM3.17043 9.37396L3.54524 10.1159L2.45594 10.8318C1.85859 11.2223 1.31979 11.4957 1.27294 11.4436C1.21438 11.3785 1.5072 10.6886 1.91715 9.89463C2.3271 9.10061 2.6902 8.48883 2.72534 8.5409C2.77219 8.59296 2.97131 8.97045 3.17043 9.37396ZM6.46174 10.194V11.9513H5.7004C5.25531 11.9513 4.93907 11.8992 4.93907 11.8211C4.93907 11.743 4.81023 11.6258 4.64625 11.5608C4.40028 11.4566 3.83806 10.5324 3.82635 10.22C3.82635 10.1419 6.27433 8.47582 6.43831 8.43677C6.45003 8.43677 6.46174 9.23078 6.46174 10.194ZM7.89071 9.21776C9.28454 10.1029 9.33139 10.207 8.83945 11.2614L8.51149 11.9513H7.55104H6.57887V10.194C6.57887 9.23078 6.60229 8.43677 6.62572 8.43677C6.64915 8.43677 7.22308 8.78821 7.89071 9.21776ZM11.2523 9.95971C11.6505 10.7277 11.9316 11.3915 11.8848 11.4436C11.7325 11.6128 9.88189 10.3632 9.7999 10.0378C9.74134 9.76446 10.2801 8.56693 10.4558 8.56693C10.491 8.56693 10.8541 9.19173 11.2523 9.95971ZM4.00204 10.975C4.20116 11.3655 4.34171 11.743 4.29486 11.8211C4.17773 12.0294 1.42521 11.9903 1.42521 11.782C1.42521 11.6779 3.36954 10.3112 3.61551 10.2591C3.62723 10.2591 3.80292 10.5845 4.00204 10.975ZM10.6901 11.0141C11.2172 11.3525 11.674 11.7039 11.7091 11.7951C11.7442 11.9122 11.3929 11.9513 10.2216 11.9513C9.37824 11.9513 8.68718 11.9122 8.68718 11.8732C8.68718 11.5738 9.46023 10.4413 9.7062 10.3893C9.71791 10.3893 10.1513 10.6626 10.6901 11.0141ZM4.48227 12.3287C4.86879 12.5891 6.19234 14.9711 5.99322 15.0492C5.8761 15.1013 1.83516 12.55 1.54234 12.2637C1.40178 12.1075 1.57748 12.0814 2.74876 12.0814C3.88491 12.0814 4.17773 12.1205 4.48227 12.3287ZM6.46174 13.5263C6.46174 14.6067 6.4266 14.9581 6.32119 14.9191C6.13378 14.841 4.93907 12.6021 4.93907 12.3027C4.93907 12.1205 5.0562 12.0814 5.7004 12.0814H6.46174V13.5263ZM8.3358 12.1595C8.3358 12.3938 6.8834 14.9451 6.76627 14.906C6.68428 14.88 6.62572 14.3593 6.60229 13.4742L6.56715 12.0814H7.45733C7.93756 12.0814 8.3358 12.1205 8.3358 12.1595ZM11.674 12.1986C11.4748 12.4068 7.29335 15.0753 7.1528 15.0753C7.00053 15.0753 6.96539 15.1403 7.80872 13.4742L8.51149 12.0814H10.1513C11.1352 12.0814 11.7325 12.1335 11.674 12.1986Z"
              fill="#D43325"
            />
            <path
              d="M73.3419 7.60307V11.456L72.932 11.0655C72.0535 10.2064 71.2219 9.81589 69.8632 9.62064C66.2791 9.12601 62.8941 11.7814 62.1562 15.6604C61.8985 17.0011 61.9336 19.1098 62.2147 20.3594C63.0463 23.978 65.7169 26.2689 69.1253 26.2689C70.7768 26.2689 72.0067 25.7873 73.0023 24.746L73.5762 24.1472V25.0844V26.0086H75.9188H78.2613V24.8892V23.7697L77.7928 23.171C76.7738 21.8953 76.153 19.8908 76.153 17.8732C76.153 15.8816 76.6684 14.1504 77.6991 12.6275L78.2613 11.8074V7.77228V3.75014H75.8016H73.3419V7.60307ZM71.6904 14.2155C72.1355 14.4758 72.7446 15.1787 72.9906 15.7254C73.2951 16.3893 73.4942 17.73 73.4005 18.511C73.3068 19.3311 72.85 20.4765 72.4283 20.9842C71.4093 22.1817 69.383 22.3119 68.1297 21.2445C67.5324 20.7499 67.0053 19.4612 66.9233 18.3548C66.7359 15.413 68.364 13.5256 70.7534 13.9292C71.0931 13.9942 71.5147 14.1244 71.6904 14.2155Z"
              fill="white"
            />
            <path
              d="M24.8042 9.76446C23.7735 12.3678 22.4851 15.5959 21.9463 16.9627C20.0137 21.8309 18.409 25.8921 18.409 25.9571C18.409 25.9832 19.5569 26.0092 20.9741 26.0092H23.5275L24.2771 23.9526L25.0385 21.909L29.1848 21.8699L33.3429 21.8439L34.0808 23.9266L34.8304 26.0092H37.4541C38.8948 26.0092 40.0778 25.9571 40.0778 25.9051C40.0778 25.84 39.9372 25.7229 39.7615 25.6317C39.1759 25.3324 38.1686 24.5253 37.583 23.8745C36.1774 22.3125 35.4981 20.4641 35.4629 18.1992C35.4629 17.4443 35.5215 16.416 35.6035 15.9213L35.7675 15.0102L33.788 10.0638L31.8085 5.11752L29.2434 5.07847L26.6666 5.05243L24.8042 9.76446ZM30.5552 14.125L31.8554 17.7437L29.2785 17.7827C27.8496 17.7957 26.6666 17.7827 26.6314 17.7437C26.5611 17.6656 29.0911 10.5194 29.1848 10.5194C29.22 10.5194 29.829 12.1465 30.5552 14.125Z"
              fill="white"
            />
            <path
              d="M83.4166 9.60851C79.5396 9.99901 76.67 13.2011 76.4709 17.3534C76.2952 20.7247 77.7359 23.5624 80.383 25.0983C81.8588 25.9444 82.8075 26.1787 84.9393 26.1917C86.9422 26.1917 87.8089 26.0225 89.0973 25.3456C90.1632 24.7859 90.6786 24.2652 90.6786 23.7316C90.6786 23.3671 90.5146 23.1198 89.6127 22.0524L88.5468 20.8028L88.1837 21.1152C86.8368 22.2347 84.9744 22.508 83.3346 21.8181C82.6201 21.5187 81.6714 20.4514 81.4606 19.7224L81.3317 19.2408H86.0051H90.6786V15.9606V12.6935L90.3858 12.2639C89.9992 11.7042 88.7811 10.741 87.9378 10.3244C86.6845 9.71264 85.0447 9.45231 83.4166 9.60851ZM85.6772 13.5656C86.6142 13.9431 87.4458 15.0104 87.5981 16.0387L87.6684 16.5073H84.4708H81.2849L81.3668 16.0257C81.566 14.8022 82.3273 13.865 83.4166 13.5005C83.8968 13.3443 85.197 13.3833 85.6772 13.5656Z"
              fill="white"
            />
            <path
              d="M98.8891 9.67333C97.8818 9.92065 97.0268 10.4023 96.3123 11.1182L95.7149 11.7169V10.8058V9.8816L95.1059 9.8035C94.7662 9.76445 93.7237 9.73841 92.7867 9.76445L91.0883 9.8035L91.0532 17.8998L91.0298 26.0092H93.4895H95.9492V21.3883C95.9492 17.0928 95.9609 16.7284 96.1834 16.0775C96.6051 14.8409 97.4953 14.1641 98.7017 14.1641C99.463 14.1641 100.154 14.5025 100.494 15.0362C101.009 15.8693 101.033 16.1036 101.079 21.154L101.126 26.0092H103.504C105.601 26.0092 105.893 25.9832 105.952 25.7879C105.999 25.6708 106.022 23.6142 106.022 21.2061C106.011 16.2598 106.069 15.8172 106.795 15.0102C107.322 14.4244 107.896 14.1641 108.669 14.1641C109.442 14.1641 109.841 14.3333 110.333 14.854C111.047 15.6219 111.094 16.0385 111.141 21.2581L111.188 25.9441L113.577 25.9832L115.978 26.0092V22.3385V18.6548L114.35 14.3723C113.448 12.0163 112.64 10.0378 112.558 9.98573C111.867 9.50412 109.396 9.42602 108.142 9.85556C107.229 10.168 106.139 10.9099 105.472 11.6779L105.003 12.2246L104.675 11.6909C104.254 11.014 103.188 10.22 102.251 9.89462C101.243 9.53015 99.8261 9.43903 98.8891 9.67333Z"
              fill="white"
            />
            <path
              d="M41.9045 9.82923C40.2061 10.2327 38.5663 11.248 37.5005 12.5627C36.8328 13.4088 36.0598 15.0749 35.8724 16.0902C35.7084 16.9754 35.7084 18.9018 35.8724 19.787C36.0598 20.8283 36.8211 22.4684 37.5005 23.3014C38.2032 24.1736 39.5619 25.2149 40.5107 25.6184C42.0568 26.2692 44.4462 26.4645 46.1094 26.074C46.9645 25.8787 48.5574 25.0587 49.1313 24.538L49.4593 24.2386L49.143 23.4576C48.9556 22.963 48.8151 22.3512 48.7799 21.7525L48.7097 20.8153L47.8898 20.3337C47.2456 19.9562 47.0464 19.8911 47.0113 20.0343C46.9762 20.1384 46.6599 20.5419 46.2968 20.9454C45.8166 21.4791 45.4886 21.7134 45.0553 21.8436C43.3686 22.3773 41.682 21.5572 41.0026 19.8651C40.7684 19.2793 40.7332 18.9669 40.7332 17.8735C40.7332 16.7801 40.7801 16.4807 41.0026 15.9861C41.354 15.2311 41.8811 14.6063 42.4784 14.2549C43.1578 13.8514 44.8444 13.8514 45.5355 14.2549C45.9923 14.5282 46.7185 15.3092 46.9527 15.7908C47.0699 15.9991 47.2221 15.947 48.698 15.088C49.5998 14.5673 50.3729 14.0987 50.4197 14.0336C50.4783 13.9815 50.2792 13.4218 49.9981 12.784C49.5881 11.8728 49.3656 11.5344 48.9439 11.196C48.1592 10.5842 47.023 10.0245 46.0977 9.8032C45.067 9.55588 42.9587 9.5689 41.9045 9.82923Z"
              fill="white"
            />
            <path
              d="M53.7115 9.80287C52.1069 10.1283 49.7994 11.0785 49.7994 11.43C49.7994 11.5211 51.0644 14.5409 51.2635 14.9184C51.2752 14.9314 51.6735 14.7492 52.1537 14.5019C53.8521 13.6298 55.9135 13.4345 57.12 14.0203C57.7056 14.3066 58.303 15.0486 58.4552 15.6864C58.7129 16.7017 58.8535 16.6366 56.3352 16.6366C53.1025 16.6496 51.6032 17.0011 50.3968 18.0684C49.4012 18.9406 48.9092 20.4765 49.1084 22.1036C49.4246 24.6418 51.4861 26.2689 54.3674 26.2689C56.3938 26.2689 57.7056 25.6311 58.5021 24.2644L58.8769 23.6005L58.912 24.8111L58.9472 26.0086H61.2195H63.5035V24.9542C63.5035 23.978 63.48 23.8608 63.1521 23.4053C62.6953 22.7674 62.1565 21.4788 61.8988 20.4114C61.7583 19.7997 61.6997 19.0968 61.6997 17.8732C61.7114 15.9988 61.8871 15.0095 62.4493 13.7469L62.7773 13.005L62.3322 12.3151C61.5708 11.1176 60.1302 10.2064 58.4318 9.81589C57.3542 9.56857 54.9062 9.55556 53.7115 9.80287ZM58.5841 20.2552C58.5841 21.0362 58.5372 21.2185 58.2444 21.674C57.811 22.3379 57.2722 22.7024 56.4758 22.8976C54.6954 23.3141 53.3016 21.8953 53.9692 20.3463C54.3089 19.5393 54.8008 19.3701 56.8623 19.3701H58.5841V20.2552Z"
              fill="white"
            />
            <path
              d="M112.966 9.89443C113.002 9.98554 114.395 13.6823 116.082 18.0949C117.769 22.5075 119.139 26.2303 119.139 26.3475C119.139 26.6729 118.589 27.4148 118.167 27.6621C117.546 28.0136 116.375 27.9485 115.485 27.4799L114.747 27.1024L113.892 28.9508L113.048 30.8122L113.775 31.2027C115.016 31.8795 116.305 32.1789 117.675 32.0878C120.428 31.9186 121.974 30.721 123.344 27.6752C123.695 26.9072 128.65 13.6562 129.997 9.89443C130.044 9.76426 129.575 9.73823 127.748 9.76426L125.441 9.80331L124.82 11.4955C124.48 12.4197 123.672 14.6845 123.004 16.5069C122.348 18.3292 121.763 19.8782 121.716 19.9303C121.669 19.9953 120.791 17.7174 119.772 14.8928L117.921 9.73823H115.414C113.458 9.73823 112.92 9.77728 112.966 9.89443Z"
              fill="white"
            />
            <path
              d="M4.25942 21.6486L4.29456 26.1654L6.57857 26.1524H8.86257L8.89771 21.7007L8.92114 17.262L8.60489 17.3401C7.48046 17.6135 5.21987 17.5484 4.41169 17.21C4.24771 17.1319 4.23599 17.6395 4.25942 21.6486Z"
              fill="white"
            />
            <path
              d="M13.3727 19.826V21.5833H15.0008H16.6406L16.6757 19.8781C16.6991 18.9409 16.6874 18.1469 16.664 18.1208C16.6406 18.0948 15.8792 18.0688 14.9891 18.0688H13.3727V19.826Z"
              fill="white"
            />
          </svg>