<svg width="40" height="40" viewBox="0 0 40 40" fill="none" xmlns="http://www.w3.org/2000/svg">
<g id="Building">
<path id="Vector" d="M36.875 36.25H35V14.375C35 14.2092 34.9342 14.0503 34.8169 13.9331C34.6997 13.8158 34.5408 13.75 34.375 13.75H32.5V11.875C32.5 11.7092 32.4342 11.5503 32.3169 11.4331C32.1997 11.3158 32.0408 11.25 31.875 11.25H30V9.375C30 9.20924 29.9342 9.05027 29.8169 8.93306C29.6997 8.81585 29.5408 8.75 29.375 8.75H28.125V6.875C28.125 6.70924 28.0592 6.55027 27.9419 6.43306C27.8247 6.31585 27.6658 6.25 27.5 6.25C27.3342 6.25 27.1753 6.31585 27.0581 6.43306C26.9408 6.55027 26.875 6.70924 26.875 6.875V8.75H25.625C25.4592 8.75 25.3003 8.81585 25.1831 8.93306C25.0658 9.05027 25 9.20924 25 9.375V11.25H23.75V3.125C23.75 2.95924 23.6842 2.80027 23.5669 2.68306C23.4497 2.56585 23.2908 2.5 23.125 2.5H5.625C5.45924 2.5 5.30027 2.56585 5.18306 2.68306C5.06585 2.80027 5 2.95924 5 3.125V36.25H3.125C2.95924 36.25 2.80027 36.3158 2.68306 36.4331C2.56585 36.5503 2.5 36.7092 2.5 36.875C2.5 37.0408 2.56585 37.1997 2.68306 37.3169C2.80027 37.4342 2.95924 37.5 3.125 37.5H36.875C37.0408 37.5 37.1997 37.4342 37.3169 37.3169C37.4342 37.1997 37.5 37.0408 37.5 36.875C37.5 36.7092 37.4342 36.5503 37.3169 36.4331C37.1997 36.3158 37.0408 36.25 36.875 36.25ZM26.25 10H28.75V11.25H26.25V10ZM31.25 12.5V13.75H23.75V12.5H31.25ZM6.25 3.75H22.5V13.75H9.375C9.20924 13.75 9.05027 13.8158 8.93306 13.9331C8.81585 14.0503 8.75 14.2092 8.75 14.375C8.75 14.5408 8.81585 14.6997 8.93306 14.8169C9.05027 14.9342 9.20924 15 9.375 15H20V17.5H9.375C9.20924 17.5 9.05027 17.5658 8.93306 17.6831C8.81585 17.8003 8.75 17.9592 8.75 18.125C8.75 18.2908 8.81585 18.4497 8.93306 18.5669C9.05027 18.6842 9.20924 18.75 9.375 18.75H20V21.25H9.375C9.20924 21.25 9.05027 21.3158 8.93306 21.4331C8.81585 21.5503 8.75 21.7092 8.75 21.875C8.75 22.0408 8.81585 22.1997 8.93306 22.3169C9.05027 22.4342 9.20924 22.5 9.375 22.5H20V25H9.375C9.20924 25 9.05027 25.0658 8.93306 25.1831C8.81585 25.3003 8.75 25.4592 8.75 25.625C8.75 25.7908 8.81585 25.9497 8.93306 26.0669C9.05027 26.1842 9.20924 26.25 9.375 26.25H20V28.75H9.375C9.20924 28.75 9.05027 28.8158 8.93306 28.9331C8.81585 29.0503 8.75 29.2092 8.75 29.375C8.75 29.5408 8.81585 29.6997 8.93306 29.8169C9.05027 29.9342 9.20924 30 9.375 30H20V32.5H9.375C9.20924 32.5 9.05027 32.5658 8.93306 32.6831C8.81585 32.8003 8.75 32.9592 8.75 33.125C8.75 33.2908 8.81585 33.4497 8.93306 33.5669C9.05027 33.6842 9.20924 33.75 9.375 33.75H20V36.25H6.25V3.75ZM23.125 36.25H21.25V15H33.75V36.25H23.125Z" fill="white"/>
<path id="Vector_2" d="M9.375 11.25H20.625C20.7908 11.25 20.9497 11.1842 21.0669 11.0669C21.1842 10.9497 21.25 10.7908 21.25 10.625C21.25 10.4592 21.1842 10.3003 21.0669 10.1831C20.9497 10.0658 20.7908 10 20.625 10H9.375C9.20924 10 9.05027 10.0658 8.93306 10.1831C8.81585 10.3003 8.75 10.4592 8.75 10.625C8.75 10.7908 8.81585 10.9497 8.93306 11.0669C9.05027 11.1842 9.20924 11.25 9.375 11.25ZM30.625 17.5H24.375C24.2092 17.5 24.0503 17.5658 23.9331 17.6831C23.8158 17.8003 23.75 17.9592 23.75 18.125C23.75 18.2908 23.8158 18.4497 23.9331 18.5669C24.0503 18.6842 24.2092 18.75 24.375 18.75H30.625C30.7908 18.75 30.9497 18.6842 31.0669 18.5669C31.1842 18.4497 31.25 18.2908 31.25 18.125C31.25 17.9592 31.1842 17.8003 31.0669 17.6831C30.9497 17.5658 30.7908 17.5 30.625 17.5ZM30.625 22.5H24.375C24.2092 22.5 24.0503 22.5658 23.9331 22.6831C23.8158 22.8003 23.75 22.9592 23.75 23.125C23.75 23.2908 23.8158 23.4497 23.9331 23.5669C24.0503 23.6842 24.2092 23.75 24.375 23.75H30.625C30.7908 23.75 30.9497 23.6842 31.0669 23.5669C31.1842 23.4497 31.25 23.2908 31.25 23.125C31.25 22.9592 31.1842 22.8003 31.0669 22.6831C30.9497 22.5658 30.7908 22.5 30.625 22.5ZM30.625 27.5H24.375C24.2092 27.5 24.0503 27.5658 23.9331 27.6831C23.8158 27.8003 23.75 27.9592 23.75 28.125C23.75 28.2908 23.8158 28.4497 23.9331 28.5669C24.0503 28.6842 24.2092 28.75 24.375 28.75H30.625C30.7908 28.75 30.9497 28.6842 31.0669 28.5669C31.1842 28.4497 31.25 28.2908 31.25 28.125C31.25 27.9592 31.1842 27.8003 31.0669 27.6831C30.9497 27.5658 30.7908 27.5 30.625 27.5ZM30.625 32.5H24.375C24.2092 32.5 24.0503 32.5658 23.9331 32.6831C23.8158 32.8003 23.75 32.9592 23.75 33.125C23.75 33.2908 23.8158 33.4497 23.9331 33.5669C24.0503 33.6842 24.2092 33.75 24.375 33.75H30.625C30.7908 33.75 30.9497 33.6842 31.0669 33.5669C31.1842 33.4497 31.25 33.2908 31.25 33.125C31.25 32.9592 31.1842 32.8003 31.0669 32.6831C30.9497 32.5658 30.7908 32.5 30.625 32.5ZM9.375 7.5H20.625C20.7908 7.5 20.9497 7.43415 21.0669 7.31694C21.1842 7.19973 21.25 7.04076 21.25 6.875C21.25 6.70924 21.1842 6.55027 21.0669 6.43306C20.9497 6.31585 20.7908 6.25 20.625 6.25H9.375C9.20924 6.25 9.05027 6.31585 8.93306 6.43306C8.81585 6.55027 8.75 6.70924 8.75 6.875C8.75 7.04076 8.81585 7.19973 8.93306 7.31694C9.05027 7.43415 9.20924 7.5 9.375 7.5Z" fill="white"/>
</g>
</svg>
