<svg width="40" height="40" viewBox="0 0 40 40" fill="none" xmlns="http://www.w3.org/2000/svg">
<g id="clipboard-list-svgrepo-com 1">
<g id="Group">
<g id="Group_2">
<path id="Vector" d="M33.7828 35.019L35.6957 33.1061C35.9599 32.8419 35.9599 32.4138 35.6957 32.1497L33.7825 30.2362C33.5289 29.9825 33.0797 29.9825 32.8261 30.2362L30.9129 32.1497L29 30.2362C28.7464 29.9825 28.2972 29.9825 28.0436 30.2362L26.1304 32.1497C25.8662 32.4139 25.8662 32.842 26.1304 33.1061L28.0433 35.019L26.1304 36.9319C25.8662 37.1961 25.8662 37.6241 26.1304 37.8883L28.0436 39.8018C28.2973 40.0555 28.7464 40.0555 29 39.8018L30.9129 37.8883L32.8261 39.8018C32.9529 39.9286 33.125 39.9999 33.3043 39.9999C33.4837 39.9999 33.6557 39.9286 33.7825 39.8018L35.6957 37.8883C35.9599 37.6241 35.9599 37.1961 35.6957 36.9319L33.7828 35.019ZM33.3043 38.3672L31.3911 36.4537C31.2643 36.3269 31.0922 36.2556 30.9129 36.2556C30.7336 36.2556 30.5615 36.3269 30.4347 36.4537L28.5217 38.3672L27.5649 37.4101L29.4782 35.4972C29.6049 35.3704 29.6763 35.1987 29.6763 35.019C29.6763 34.8393 29.6049 34.6676 29.4782 34.5408L27.5649 32.6279L28.5217 31.6708L30.4346 33.5843C30.5614 33.7111 30.7335 33.7824 30.9128 33.7824C31.0922 33.7824 31.2642 33.7111 31.391 33.5843L33.3042 31.6708L34.261 32.6279L32.3478 34.5408C32.221 34.6676 32.1497 34.8394 32.1497 35.019C32.1497 35.1986 32.221 35.3704 32.3478 35.4972L34.261 37.4101L33.3043 38.3672Z" fill="#D43325"/>
</g>
</g>
<g id="Group_3">
<g id="Group_4">
<path id="Vector_2" d="M29.2126 2.70547H25.8347C25.4612 2.70547 25.1583 3.00829 25.1583 3.38188C25.1583 3.7554 25.4611 4.05829 25.8347 4.05829H29.2126C29.5878 4.05829 29.8084 4.27626 29.8084 4.64813V26.2941C29.8084 26.668 30.1112 26.9706 30.4848 26.9706C30.8583 26.9706 31.1612 26.6681 31.1612 26.2941V4.64813C31.1611 3.53016 30.3336 2.70547 29.2126 2.70547Z" fill="#D43325"/>
</g>
</g>
<g id="Group_5">
<g id="Group_6">
<path id="Vector_3" d="M21.7765 35.848H6.22183C5.84761 35.848 5.45894 35.4609 5.45894 35.0891V4.64813C5.45894 4.27626 5.84964 4.05829 6.22612 4.05829H10.4231C10.7966 4.05829 11.0995 3.75547 11.0995 3.38188C11.0995 3.00837 10.7967 2.70547 10.4231 2.70547H6.22612C5.10386 2.70547 4.1062 3.53016 4.1062 4.64805V35.0889C4.1062 36.2065 5.10198 37.2006 6.22183 37.2006H21.7765C22.15 37.2006 22.4529 36.8981 22.4529 36.5242C22.4529 36.1505 22.15 35.848 21.7765 35.848Z" fill="#D43325"/>
</g>
</g>
<g id="Group_7">
<g id="Group_8">
<path id="Vector_4" d="M23.8057 2.70547H23.0447V1.94453C23.0447 0.825625 22.2181 0 21.0982 0H15.0147C13.8948 0 12.8991 0.825625 12.8991 1.94461V2.70555H12.3073C11.9338 2.70555 11.5464 2.92383 11.5464 3.29734V6.00281C11.5464 6.37633 11.9338 6.76375 12.3073 6.76375H23.8057C24.1792 6.76375 24.3975 6.37633 24.3975 6.00281V3.29734C24.3975 2.92383 24.1792 2.70547 23.8057 2.70547ZM14.2519 1.94461C14.2519 1.57172 14.6406 1.35281 15.0147 1.35281H21.0982C21.4787 1.35281 21.692 1.56547 21.692 1.94461V2.70555H14.2519V1.94461ZM23.0447 5.41102H12.8991V4.05828H13.6601H22.4529H23.0447V5.41102Z" fill="#D43325"/>
</g>
</g>
<g id="Group_9">
<g id="Group_10">
<path id="Vector_5" d="M21.7764 33.1424H8.91965C8.54973 33.1424 8.16434 32.7527 8.16434 32.3782V7.35923C8.16434 6.98439 8.55207 6.76376 8.92457 6.76376H9.6016C9.97512 6.76376 10.278 6.46095 10.278 6.08736C10.278 5.71384 9.97519 5.41095 9.6016 5.41095H8.92457C7.80598 5.41095 6.81152 6.23829 6.81152 7.35915V32.3781C6.81152 33.4991 7.80394 34.4951 8.91957 34.4951H21.7764C22.1499 34.4951 22.4528 34.1926 22.4528 33.8187C22.4528 33.445 22.15 33.1424 21.7764 33.1424Z" fill="#D43325"/>
</g>
</g>
<g id="Group_11">
<g id="Group_12">
<path id="Vector_6" d="M26.5085 5.41101H25.9569C25.5834 5.41101 25.2805 5.71382 25.2805 6.08742C25.2805 6.46093 25.5833 6.76382 25.9569 6.76382H26.5085C26.883 6.76382 27.1029 6.98445 27.1029 7.35929V26.2942C27.1029 26.668 27.4058 26.9706 27.7793 26.9706C28.1529 26.9706 28.4558 26.6681 28.4558 26.2942V7.35921C28.4557 6.23835 27.6287 5.41101 26.5085 5.41101Z" fill="#D43325"/>
</g>
</g>
<g id="Group_13">
<g id="Group_14">
<path id="Vector_7" d="M17.7182 10.1456H10.2781C9.90458 10.1456 9.60168 10.4484 9.60168 10.822C9.60168 11.1956 9.9045 11.4984 10.2781 11.4984H17.7182C18.0918 11.4984 18.3947 11.1956 18.3947 10.822C18.3947 10.4485 18.0918 10.1456 17.7182 10.1456Z" fill="#D43325"/>
</g>
</g>
<g id="Group_15">
<g id="Group_16">
<path id="Vector_8" d="M25.1584 10.1456H21.1001C20.7266 10.1456 20.4237 10.4484 20.4237 10.822C20.4237 11.1956 20.7265 11.4984 21.1001 11.4984H25.1584C25.5319 11.4984 25.8348 11.1956 25.8348 10.822C25.8348 10.4485 25.5319 10.1456 25.1584 10.1456Z" fill="#D43325"/>
</g>
</g>
<g id="Group_17">
<g id="Group_18">
<path id="Vector_9" d="M25.1584 13.5275H21.1001C20.7266 13.5275 20.4237 13.8303 20.4237 14.2039C20.4237 14.5774 20.7265 14.8803 21.1001 14.8803H25.1584C25.5319 14.8803 25.8348 14.5775 25.8348 14.2039C25.8348 13.8304 25.5319 13.5275 25.1584 13.5275Z" fill="#D43325"/>
</g>
</g>
<g id="Group_19">
<g id="Group_20">
<path id="Vector_10" d="M25.1584 16.9094H21.1001C20.7266 16.9094 20.4237 17.2122 20.4237 17.5858C20.4237 17.9593 20.7265 18.2622 21.1001 18.2622H25.1584C25.5319 18.2622 25.8348 17.9594 25.8348 17.5858C25.8348 17.2123 25.5319 16.9094 25.1584 16.9094Z" fill="#D43325"/>
</g>
</g>
<g id="Group_21">
<g id="Group_22">
<path id="Vector_11" d="M25.1584 20.2913H21.1001C20.7266 20.2913 20.4237 20.5941 20.4237 20.9677C20.4237 21.3412 20.7265 21.6441 21.1001 21.6441H25.1584C25.5319 21.6441 25.8348 21.3413 25.8348 20.9677C25.8348 20.5941 25.5319 20.2913 25.1584 20.2913Z" fill="#D43325"/>
</g>
</g>
<g id="Group_23">
<g id="Group_24">
<path id="Vector_12" d="M25.1584 23.6732H21.1001C20.7266 23.6732 20.4237 23.9757 20.4237 24.3496C20.4237 24.7235 20.7265 25.026 21.1001 25.026H25.1584C25.5319 25.026 25.8348 24.7235 25.8348 24.3496C25.8348 23.9757 25.5319 23.6732 25.1584 23.6732Z" fill="#D43325"/>
</g>
</g>
<g id="Group_25">
<g id="Group_26">
<path id="Vector_13" d="M25.1584 27.0551H21.1001C20.7266 27.0551 20.4237 27.3576 20.4237 27.7315C20.4237 28.1053 20.7265 28.4079 21.1001 28.4079H25.1584C25.5319 28.4079 25.8348 28.1054 25.8348 27.7315C25.8348 27.3576 25.5319 27.0551 25.1584 27.0551Z" fill="#D43325"/>
</g>
</g>
<g id="Group_27">
<g id="Group_28">
<path id="Vector_14" d="M17.7182 13.5275H10.2781C9.90458 13.5275 9.60168 13.8303 9.60168 14.2039C9.60168 14.5774 9.9045 14.8803 10.2781 14.8803H17.7182C18.0918 14.8803 18.3947 14.5775 18.3947 14.2039C18.3947 13.8304 18.0918 13.5275 17.7182 13.5275Z" fill="#D43325"/>
</g>
</g>
<g id="Group_29">
<g id="Group_30">
<path id="Vector_15" d="M17.7182 16.9094H10.2781C9.90458 16.9094 9.60168 17.2122 9.60168 17.5858C9.60168 17.9593 9.9045 18.2622 10.2781 18.2622H17.7182C18.0918 18.2622 18.3947 17.9594 18.3947 17.5858C18.3947 17.2123 18.0918 16.9094 17.7182 16.9094Z" fill="#D43325"/>
</g>
</g>
<g id="Group_31">
<g id="Group_32">
<path id="Vector_16" d="M17.7182 20.2913H10.2781C9.90458 20.2913 9.60168 20.5941 9.60168 20.9677C9.60168 21.3412 9.9045 21.6441 10.2781 21.6441H17.7182C18.0918 21.6441 18.3947 21.3413 18.3947 20.9677C18.3947 20.5941 18.0918 20.2913 17.7182 20.2913Z" fill="#D43325"/>
</g>
</g>
<g id="Group_33">
<g id="Group_34">
<path id="Vector_17" d="M17.7182 23.6732H10.2781C9.90458 23.6732 9.60168 23.9757 9.60168 24.3496C9.60168 24.7235 9.9045 25.026 10.2781 25.026H17.7182C18.0918 25.026 18.3947 24.7235 18.3947 24.3496C18.3947 23.9757 18.0918 23.6732 17.7182 23.6732Z" fill="#D43325"/>
</g>
</g>
<g id="Group_35">
<g id="Group_36">
<path id="Vector_18" d="M17.7182 27.0551H10.2781C9.90458 27.0551 9.60168 27.3576 9.60168 27.7315C9.60168 28.1053 9.9045 28.4079 10.2781 28.4079H17.7182C18.0918 28.4079 18.3947 28.1054 18.3947 27.7315C18.3947 27.3576 18.0918 27.0551 17.7182 27.0551Z" fill="#D43325"/>
</g>
</g>
</g>
</svg>
