<svg width="24" height="24" viewBox="0 0 24 24" fill="none" xmlns="http://www.w3.org/2000/svg">
<g id="exit">
<path id="Vector" d="M1.23078 19.713L8.88078 22.6597C9.35928 22.8457 9.90453 22.476 9.90003 21.9592V19.7625H14.937C15.1359 19.7625 15.3267 19.6835 15.4674 19.5428C15.608 19.4022 15.687 19.2114 15.687 19.0125V13.3897C15.687 13.1908 15.608 13.0001 15.4674 12.8594C15.3267 12.7188 15.1359 12.6397 14.937 12.6397C14.7381 12.6397 14.5474 12.7188 14.4067 12.8594C14.266 13.0001 14.187 13.1908 14.187 13.3897V18.2625H9.90003V4.98674C9.90013 4.83506 9.85424 4.68691 9.76841 4.56185C9.68258 4.43679 9.56085 4.34069 9.41928 4.28624L5.53428 2.78999H14.187V7.66274C14.187 7.86165 14.266 8.05241 14.4067 8.19307C14.5474 8.33372 14.7381 8.41274 14.937 8.41274C15.1359 8.41274 15.3267 8.33372 15.4674 8.19307C15.608 8.05241 15.687 7.86165 15.687 7.66274V2.04074C15.687 1.84182 15.608 1.65106 15.4674 1.51041C15.3267 1.36975 15.1359 1.29074 14.937 1.29074H1.50003C1.11678 1.26299 0.746278 1.66199 0.750028 2.04074V19.0132C0.750028 19.3237 0.940528 19.6012 1.23078 19.713ZM8.40003 20.8665L2.25003 18.498V3.13349L8.40003 5.50199V20.8665Z" fill="#6B7280"/>
<path id="Vector_2" d="M18.8602 14.1668C18.9298 14.2365 19.0125 14.2918 19.1035 14.3295C19.1945 14.3672 19.292 14.3867 19.3905 14.3867C19.489 14.3867 19.5865 14.3672 19.6775 14.3295C19.7685 14.2918 19.8511 14.2365 19.9207 14.1668L23.0302 11.0573C23.1 10.9876 23.1553 10.9049 23.193 10.8138C23.2308 10.7228 23.2502 10.6252 23.2502 10.5266C23.2502 10.4281 23.2308 10.3305 23.193 10.2394C23.1553 10.1484 23.1 10.0657 23.0302 9.99601L19.9207 6.88651C19.8511 6.81687 19.7684 6.76164 19.6775 6.72395C19.5865 6.68627 19.489 6.66687 19.3905 6.66687C19.292 6.66687 19.1945 6.68627 19.1035 6.72395C19.0125 6.76164 18.9299 6.81687 18.8602 6.88651C18.7906 6.95614 18.7354 7.03881 18.6977 7.12979C18.66 7.22077 18.6406 7.31828 18.6406 7.41676C18.6406 7.51523 18.66 7.61275 18.6977 7.70373C18.7354 7.79471 18.7906 7.87737 18.8602 7.94701L20.6895 9.77551H11.7427C11.5438 9.77551 11.3531 9.85452 11.2124 9.99518C11.0718 10.1358 10.9927 10.3266 10.9927 10.5255C10.9927 10.7244 11.0718 10.9152 11.2124 11.0558C11.3531 11.1965 11.5438 11.2755 11.7427 11.2755H20.6895L18.8602 13.1048C18.7905 13.1745 18.7351 13.2573 18.6974 13.3484C18.6596 13.4395 18.6402 13.5371 18.6402 13.6358C18.6402 13.7344 18.6596 13.832 18.6974 13.9231C18.7351 14.0143 18.7905 14.097 18.8602 14.1668Z" fill="#6B7280"/>
</g>
</svg>
