<svg width="21" height="21" viewBox="0 0 21 21" fill="none" xmlns="http://www.w3.org/2000/svg">
  <g id="Iconsax/Linear/eyeslash">
    <path id="Vector" d="M12.7136 8.28611L8.28611 12.7136C7.69898 12.1265 7.36914 11.3302 7.36914 10.4999C7.36914 10.0887 7.45012 9.68162 7.60745 9.30178C7.76479 8.92195 7.99539 8.57682 8.28611 8.28611C8.57682 7.99539 8.92195 7.76479 9.30178 7.60745C9.68162 7.45012 10.0887 7.36914 10.4999 7.36914C11.3302 7.36914 12.1265 7.69898 12.7136 8.28611Z" stroke="#6B7280" stroke-width="1.5" stroke-linecap="round" stroke-linejoin="round"/>
    <path id="Vector_2" d="M15.5919 5.04867C14.0606 3.89367 12.3106 3.26367 10.4994 3.26367C7.41062 3.26367 4.53187 5.08367 2.52812 8.23367C1.74062 9.46742 1.74062 11.5412 2.52812 12.7749C3.21937 13.8599 4.02437 14.7962 4.89937 15.5487M7.36687 17.0887C8.36437 17.5087 9.42312 17.7362 10.4994 17.7362C13.5881 17.7362 16.4669 15.9162 18.4706 12.7662C19.2581 11.5324 19.2581 9.45867 18.4706 8.22492C18.1819 7.76992 17.8669 7.34117 17.5431 6.93867" stroke="#6B7280" stroke-width="1.5" stroke-linecap="round" stroke-linejoin="round"/>
    <path id="Vector_3" d="M13.5713 11.1125C13.4527 11.7229 13.1545 12.2839 12.7148 12.7236C12.2752 13.1632 11.7141 13.4615 11.1037 13.58M8.28625 12.7137L1.75 19.25M19.25 1.75L12.7137 8.28625" stroke="#6B7280" stroke-width="1.5" stroke-linecap="round" stroke-linejoin="round"/>
  </g>
</svg>
