<svg xmlns="http://www.w3.org/2000/svg" width="40" height="41" viewBox="0 0 40 41" fill="none">
  <path d="M29.8667 11.5333C29.6976 11.1261 29.3739 10.8025 28.9667 10.6333C28.7663 10.5479 28.5511 10.5026 28.3334 10.5H11.6667C11.2247 10.5 10.8007 10.6756 10.4882 10.9882C10.1756 11.3007 10 11.7246 10 12.1667C10 12.6087 10.1756 13.0326 10.4882 13.3452C10.8007 13.6577 11.2247 13.8333 11.6667 13.8333H24.3167L10.4834 27.65C10.3271 27.8049 10.2031 27.9893 10.1185 28.1924C10.0339 28.3955 9.99036 28.6133 9.99036 28.8333C9.99036 29.0534 10.0339 29.2712 10.1185 29.4743C10.2031 29.6774 10.3271 29.8617 10.4834 30.0167C10.6383 30.1729 10.8226 30.2969 11.0257 30.3815C11.2288 30.4661 11.4467 30.5097 11.6667 30.5097C11.8867 30.5097 12.1045 30.4661 12.3076 30.3815C12.5107 30.2969 12.6951 30.1729 12.85 30.0167L26.6667 16.1833V28.8333C26.6667 29.2754 26.8423 29.6993 27.1548 30.0118C27.4674 30.3244 27.8913 30.5 28.3334 30.5C28.7754 30.5 29.1993 30.3244 29.5119 30.0118C29.8244 29.6993 30 29.2754 30 28.8333V12.1667C29.9974 11.9489 29.9521 11.7337 29.8667 11.5333Z" fill="#FD0000"/>
</svg>