<svg width="130" height="33" viewBox="0 0 130 33" fill="none" xmlns="http://www.w3.org/2000/svg">
<g id="Group">
<path id="Vector" d="M6.22748 0.619322C6.0635 0.710438 5.91123 0.944736 5.8761 1.13999C5.82924 1.43937 5.47786 1.71272 3.6038 2.91025C1.57748 4.21191 1.35493 4.32906 1.0504 4.21191C0.195359 3.87348 -0.390284 4.99291 0.312488 5.60469C0.581884 5.85201 0.605309 5.94312 0.605309 7.04954C0.605309 7.76545 0.546745 8.33819 0.464755 8.49439C0.347627 8.70265 0.347627 8.80679 0.464755 9.01505C0.546745 9.17125 0.605309 9.73097 0.605309 10.3948C0.605309 11.4361 0.581884 11.5403 0.312488 11.7746C-0.0154721 12.0609 -0.0740364 12.5946 0.183647 12.9851C0.324201 13.2064 0.687299 13.2715 1.19095 13.1543C1.28466 13.1283 2.38566 13.7531 3.61551 14.5471C5.40758 15.6796 5.8761 16.031 5.8761 16.2523C5.8761 16.5907 6.22748 16.9552 6.53202 16.9552C6.8834 16.9552 7.28164 16.5907 7.28164 16.2653C7.28164 16.031 7.7033 15.7056 9.56565 14.5081C11.51 13.2585 11.8965 13.0632 12.1659 13.1413C12.5876 13.2585 12.7984 13.2064 12.9858 12.9461C13.2318 12.5816 13.1615 12.0479 12.8452 11.7746L12.5524 11.5142V8.68964V5.86503L12.8452 5.60469C13.5597 4.97989 12.9624 3.87348 12.0956 4.21191C11.7794 4.32906 11.5803 4.23795 9.55393 2.93628C7.62131 1.6997 7.3402 1.47842 7.25821 1.12697C7.19965 0.89267 7.04738 0.671387 6.87169 0.580271C6.50859 0.398039 6.59058 0.398039 6.22748 0.619322ZM6.08693 1.96003C6.07521 2.0121 5.71212 2.715 5.31388 3.52203L4.56426 4.97989H2.99473C2.12798 4.97989 1.42521 4.92783 1.42521 4.87576C1.42521 4.77163 5.85267 1.86892 6.02836 1.8559C6.08693 1.8559 6.11035 1.90797 6.08693 1.96003ZM9.48366 3.35281C10.7252 4.13381 11.7325 4.8237 11.7325 4.88878C11.7325 4.94084 11.018 4.96688 10.1396 4.95386L8.54663 4.91481L7.797 3.48298C7.07081 2.0902 6.94197 1.79082 7.14109 1.88194C7.19965 1.89495 8.25381 2.5588 9.48366 3.35281ZM6.46174 3.31377C6.45003 4.84973 6.36804 4.97989 5.47786 4.97989C4.98592 4.97989 4.81023 4.92783 4.84536 4.81068C4.93907 4.40716 6.18063 2.11623 6.32119 2.11623C6.4266 2.11623 6.46174 2.44165 6.46174 3.31377ZM7.65645 3.48298C8.03126 4.1989 8.3358 4.8237 8.3358 4.87576C8.3358 4.94084 8.04298 4.97989 7.69159 4.97989C6.71942 4.97989 6.57887 4.75861 6.57887 3.27471C6.57887 2.23338 6.60229 2.10322 6.77799 2.14227C6.8834 2.1683 7.28164 2.76707 7.65645 3.48298ZM8.90973 5.90408C9.17912 6.42474 9.37824 6.85429 9.36653 6.86731C9.07371 7.08859 6.76627 8.49439 6.68428 8.49439C6.62572 8.49439 6.57887 7.83054 6.57887 7.02351C6.57887 5.25324 6.63743 5.14911 7.69159 5.07101C8.07811 5.04498 8.40607 5.01894 8.41779 5.00593C8.4295 4.99291 8.65204 5.39643 8.90973 5.90408ZM4.09574 5.89106C3.88491 6.32061 3.66237 6.67206 3.6038 6.67206C3.4164 6.67206 1.42521 5.35738 1.42521 5.22721C1.42521 5.16213 2.09284 5.11006 2.94788 5.11006H4.48227L4.09574 5.89106ZM6.32119 5.26626C6.46174 5.42246 6.53202 8.49439 6.39146 8.49439C6.28605 8.49439 4.07232 7.06256 3.92005 6.89334C3.81463 6.77619 3.8732 6.55491 4.20116 5.91709L4.61111 5.11006H5.39587C5.85267 5.11006 6.23919 5.17514 6.32119 5.26626ZM11.7325 5.22721C11.7325 5.34436 9.72963 6.67206 9.54222 6.67206C9.44852 6.67206 8.90973 5.72184 8.71061 5.21419C8.68718 5.14911 9.35482 5.11006 10.1981 5.11006C11.0415 5.11006 11.7325 5.16213 11.7325 5.22721ZM2.33881 6.09933C2.85418 6.42474 3.33441 6.76317 3.40468 6.84127C3.48667 6.95842 3.40468 7.20574 3.147 7.67434C2.93617 8.0388 2.73705 8.36422 2.6902 8.39025C2.5965 8.4293 1.19095 5.82598 1.19095 5.61771C1.19095 5.40944 1.36665 5.48754 2.33881 6.09933ZM11.9668 5.57866C11.9668 5.72184 10.5144 8.49439 10.4441 8.49439C10.3387 8.49439 9.60079 6.91937 9.67106 6.84127C9.7062 6.80222 10.1747 6.48982 10.7018 6.13838C11.6154 5.55263 11.9668 5.39643 11.9668 5.57866ZM1.83516 7.24479L2.60821 8.72869L1.8703 10.1735C1.46035 10.9675 1.09725 11.6054 1.0504 11.6184C1.00355 11.6184 0.968408 10.3037 0.968408 8.68964C0.968408 7.07557 0.991834 5.76089 1.01526 5.76089C1.03869 5.76089 1.40178 6.42474 1.83516 7.24479ZM12.201 8.68964C12.201 10.3037 12.1542 11.6184 12.0956 11.6184C11.9434 11.6184 10.6784 9.04109 10.6784 8.71567C10.6784 8.39025 11.9902 5.76089 12.1425 5.76089C12.1776 5.76089 12.201 7.07557 12.201 8.68964ZM10.2684 8.62455C10.3153 8.94997 9.7062 10.0824 9.41338 10.1996C9.19083 10.2907 8.93315 10.1735 7.98441 9.56175C7.3402 9.15823 6.83655 8.76774 6.84826 8.71567C6.85998 8.65059 7.45733 8.23405 8.1601 7.79149L9.44852 6.97144L9.84676 7.70037C10.0576 8.10389 10.2567 8.52042 10.2684 8.62455ZM5.10305 7.85657C5.78239 8.29914 6.34461 8.68964 6.34461 8.7417C6.3329 8.78075 5.74725 9.18427 5.03277 9.63985C4.16602 10.1865 3.6975 10.4208 3.61551 10.3297C3.55695 10.2646 3.33441 9.87415 3.12357 9.47063L2.74876 8.72869L3.17043 7.89562C3.40468 7.44004 3.65065 7.06256 3.73264 7.06256C3.80292 7.06256 4.4237 7.42702 5.10305 7.85657ZM3.17043 9.82208L3.54524 10.564L2.45594 11.2799C1.85859 11.6704 1.31979 11.9438 1.27294 11.8917C1.21438 11.8266 1.5072 11.1368 1.91715 10.3427C2.3271 9.54873 2.6902 8.93695 2.72534 8.98902C2.77219 9.04108 2.97131 9.41857 3.17043 9.82208ZM6.46174 10.6421V12.3994H5.7004C5.25531 12.3994 4.93907 12.3473 4.93907 12.2692C4.93907 12.1911 4.81023 12.074 4.64625 12.0089C4.40028 11.9047 3.83806 10.9806 3.82635 10.6682C3.82635 10.5901 6.27433 8.92394 6.43831 8.88489C6.45003 8.88489 6.46174 9.6789 6.46174 10.6421ZM7.89071 9.66588C9.28454 10.551 9.33139 10.6551 8.83945 11.7095L8.51149 12.3994H7.55104H6.57887V10.6421C6.57887 9.6789 6.60229 8.88489 6.62572 8.88489C6.64915 8.88489 7.22308 9.23633 7.89071 9.66588ZM11.2523 10.4078C11.6505 11.1758 11.9316 11.8397 11.8848 11.8917C11.7325 12.0609 9.88189 10.8113 9.7999 10.4859C9.74134 10.2126 10.2801 9.01505 10.4558 9.01505C10.491 9.01505 10.8541 9.63985 11.2523 10.4078ZM4.00204 11.4231C4.20116 11.8136 4.34171 12.1911 4.29486 12.2692C4.17773 12.4775 1.42521 12.4384 1.42521 12.2302C1.42521 12.126 3.36954 10.7593 3.61551 10.7072C3.62723 10.7072 3.80292 11.0326 4.00204 11.4231ZM10.6901 11.4622C11.2172 11.8006 11.674 12.1521 11.7091 12.2432C11.7442 12.3603 11.3929 12.3994 10.2216 12.3994C9.37824 12.3994 8.68718 12.3603 8.68718 12.3213C8.68718 12.0219 9.46023 10.8894 9.7062 10.8374C9.71791 10.8374 10.1513 11.1107 10.6901 11.4622ZM4.48227 12.7769C4.86879 13.0372 6.19234 15.4192 5.99322 15.4973C5.8761 15.5494 1.83516 12.9981 1.54234 12.7118C1.40178 12.5556 1.57748 12.5295 2.74876 12.5295C3.88491 12.5295 4.17773 12.5686 4.48227 12.7769ZM6.46174 13.9744C6.46174 15.0548 6.4266 15.4062 6.32119 15.3672C6.13378 15.2891 4.93907 13.0502 4.93907 12.7508C4.93907 12.5686 5.0562 12.5295 5.7004 12.5295H6.46174V13.9744ZM8.3358 12.6076C8.3358 12.8419 6.8834 15.3932 6.76627 15.3542C6.68428 15.3281 6.62572 14.8075 6.60229 13.9223L6.56715 12.5295H7.45733C7.93756 12.5295 8.3358 12.5686 8.3358 12.6076ZM11.674 12.6467C11.4748 12.855 7.29335 15.5234 7.1528 15.5234C7.00053 15.5234 6.96539 15.5885 7.80872 13.9223L8.51149 12.5295H10.1513C11.1352 12.5295 11.7325 12.5816 11.674 12.6467Z" fill="#D43325"/>
<path id="Vector_2" d="M73.3419 8.05122V11.9041L72.932 11.5136C72.0535 10.6545 71.2219 10.264 69.8632 10.0688C66.2791 9.57416 62.8941 12.2296 62.1562 16.1085C61.8985 17.4492 61.9336 19.5579 62.2147 20.8075C63.0463 24.4261 65.7169 26.7171 69.1253 26.7171C70.7768 26.7171 72.0067 26.2355 73.0023 25.1941L73.5762 24.5954V25.5326V26.4567H75.9188H78.2613V25.3373V24.2179L77.7928 23.6191C76.7738 22.3435 76.153 20.3389 76.153 18.3213C76.153 16.3298 76.6684 14.5986 77.6991 13.0756L78.2613 12.2556V8.22043V4.19829H75.8016H73.3419V8.05122ZM71.6904 14.6637C72.1355 14.924 72.7446 15.6269 72.9906 16.1736C73.2951 16.8374 73.4942 18.1782 73.4005 18.9592C73.3068 19.7792 72.85 20.9247 72.4283 21.4323C71.4093 22.6298 69.383 22.76 68.1297 21.6927C67.5324 21.198 67.0053 19.9094 66.9233 18.803C66.7359 15.8612 68.364 13.9738 70.7534 14.3773C71.0931 14.4424 71.5147 14.5726 71.6904 14.6637Z" fill="white"/>
<path id="Vector_3" d="M24.8042 10.2126C23.7735 12.8159 22.4851 16.044 21.9463 17.4108C20.0137 22.279 18.409 26.3402 18.409 26.4053C18.409 26.4313 19.5569 26.4573 20.9741 26.4573H23.5275L24.2771 24.4007L25.0385 22.3571L29.1848 22.318L33.3429 22.292L34.0808 24.3747L34.8304 26.4573H37.4541C38.8948 26.4573 40.0778 26.4053 40.0778 26.3532C40.0778 26.2881 39.9372 26.171 39.7615 26.0799C39.1759 25.7805 38.1686 24.9734 37.583 24.3226C36.1774 22.7606 35.4981 20.9122 35.4629 18.6474C35.4629 17.8924 35.5215 16.8641 35.6035 16.3694L35.7675 15.4583L33.788 10.512L31.8085 5.56564L29.2434 5.52659L26.6666 5.50055L24.8042 10.2126ZM30.5552 14.5731L31.8554 18.1918L29.2785 18.2308C27.8496 18.2438 26.6666 18.2308 26.6314 18.1918C26.5611 18.1137 29.0911 10.9675 29.1848 10.9675C29.22 10.9675 29.829 12.5946 30.5552 14.5731Z" fill="white"/>
<path id="Vector_4" d="M83.4166 10.0566C79.5396 10.4471 76.67 13.6492 76.4709 17.8015C76.2952 21.1728 77.7359 24.0105 80.383 25.5464C81.8588 26.3925 82.8075 26.6268 84.9393 26.6398C86.9422 26.6398 87.8089 26.4706 89.0973 25.7937C90.1632 25.234 90.6786 24.7134 90.6786 24.1797C90.6786 23.8152 90.5146 23.5679 89.6127 22.5005L88.5468 21.2509L88.1837 21.5633C86.8368 22.6828 84.9744 22.9561 83.3346 22.2662C82.6201 21.9669 81.6714 20.8995 81.4606 20.1706L81.3317 19.6889H86.0051H90.6786V16.4088V13.1416L90.3858 12.712C89.9992 12.1523 88.7811 11.1891 87.9378 10.7725C86.6845 10.1608 85.0447 9.90043 83.4166 10.0566ZM85.6772 14.0137C86.6142 14.3912 87.4458 15.4585 87.5981 16.4869L87.6684 16.9555H84.4708H81.2849L81.3668 16.4738C81.566 15.2503 82.3273 14.3131 83.4166 13.9486C83.8968 13.7924 85.197 13.8315 85.6772 14.0137Z" fill="white"/>
<path id="Vector_5" d="M98.8891 10.1215C97.8818 10.3688 97.0268 10.8504 96.3123 11.5663L95.7149 12.1651V11.2539V10.3297L95.1059 10.2516C94.7662 10.2126 93.7237 10.1865 92.7867 10.2126L91.0883 10.2516L91.0532 18.348L91.0298 26.4573H93.4895H95.9492V21.8364C95.9492 17.5409 95.9609 17.1765 96.1834 16.5256C96.6051 15.2891 97.4953 14.6122 98.7017 14.6122C99.463 14.6122 100.154 14.9506 100.494 15.4843C101.009 16.3174 101.033 16.5517 101.079 21.6021L101.126 26.4573H103.504C105.601 26.4573 105.893 26.4313 105.952 26.2361C105.999 26.1189 106.022 24.0623 106.022 21.6542C106.011 16.7079 106.069 16.2653 106.795 15.4583C107.322 14.8725 107.896 14.6122 108.669 14.6122C109.442 14.6122 109.841 14.7814 110.333 15.3021C111.047 16.0701 111.094 16.4866 111.141 21.7063L111.188 26.3923L113.577 26.4313L115.978 26.4573V22.7866V19.1029L114.35 14.8205C113.448 12.4644 112.64 10.4859 112.558 10.4339C111.867 9.95224 109.396 9.87414 108.142 10.3037C107.229 10.6161 106.139 11.358 105.472 12.126L105.003 12.6727L104.675 12.139C104.254 11.4622 103.188 10.6682 102.251 10.3427C101.243 9.97827 99.8261 9.88715 98.8891 10.1215Z" fill="white"/>
<path id="Vector_6" d="M41.9045 10.2774C40.2061 10.6809 38.5663 11.6962 37.5005 13.0108C36.8328 13.8569 36.0598 15.5231 35.8724 16.5384C35.7084 17.4235 35.7084 19.3499 35.8724 20.2351C36.0598 21.2764 36.8211 22.9165 37.5005 23.7496C38.2032 24.6217 39.5619 25.663 40.5107 26.0665C42.0568 26.7174 44.4462 26.9126 46.1094 26.5221C46.9645 26.3269 48.5574 25.5068 49.1313 24.9861L49.4593 24.6868L49.143 23.9058C48.9556 23.4111 48.8151 22.7994 48.7799 22.2006L48.7097 21.2634L47.8898 20.7818C47.2456 20.4043 47.0464 20.3392 47.0113 20.4824C46.9762 20.5865 46.6599 20.99 46.2968 21.3936C45.8166 21.9272 45.4886 22.1615 45.0553 22.2917C43.3686 22.8254 41.682 22.0053 41.0026 20.3132C40.7684 19.7274 40.7332 19.415 40.7332 18.3216C40.7332 17.2282 40.7801 16.9289 41.0026 16.4342C41.354 15.6793 41.8811 15.0545 42.4784 14.703C43.1578 14.2995 44.8444 14.2995 45.5355 14.703C45.9923 14.9764 46.7185 15.7574 46.9527 16.239C47.0699 16.4472 47.2221 16.3952 48.698 15.5361C49.5998 15.0154 50.3729 14.5468 50.4197 14.4817C50.4783 14.4297 50.2792 13.8699 49.9981 13.2321C49.5881 12.321 49.3656 11.9825 48.9439 11.6441C48.1592 11.0323 47.023 10.4726 46.0977 10.2513C45.067 10.004 42.9587 10.017 41.9045 10.2774Z" fill="white"/>
<path id="Vector_7" d="M53.7115 10.251C52.1069 10.5764 49.7994 11.5267 49.7994 11.8781C49.7994 11.9692 51.0644 14.9891 51.2635 15.3666C51.2752 15.3796 51.6735 15.1973 52.1537 14.95C53.8521 14.0779 55.9135 13.8827 57.12 14.4684C57.7056 14.7548 58.303 15.4967 58.4552 16.1345C58.7129 17.1498 58.8535 17.0848 56.3352 17.0848C53.1025 17.0978 51.6032 17.4492 50.3968 18.5166C49.4012 19.3887 48.9092 20.9247 49.1084 22.5517C49.4246 25.09 51.4861 26.7171 54.3674 26.7171C56.3938 26.7171 57.7056 26.0793 58.5021 24.7125L58.8769 24.0487L58.912 25.2592L58.9472 26.4567H61.2195H63.5035V25.4024C63.5035 24.4261 63.48 24.309 63.1521 23.8534C62.6953 23.2156 62.1565 21.9269 61.8988 20.8596C61.7583 20.2478 61.6997 19.5449 61.6997 18.3213C61.7114 16.4469 61.8871 15.4577 62.4493 14.1951L62.7773 13.4531L62.3322 12.7632C61.5708 11.5657 60.1302 10.6545 58.4318 10.264C57.3542 10.0167 54.9062 10.0037 53.7115 10.251ZM58.5841 20.7034C58.5841 21.4844 58.5372 21.6666 58.2444 22.1222C57.811 22.786 57.2722 23.1505 56.4758 23.3458C54.6954 23.7623 53.3016 22.3435 53.9692 20.7945C54.3089 19.9875 54.8008 19.8183 56.8623 19.8183H58.5841V20.7034Z" fill="white"/>
<path id="Vector_8" d="M112.966 10.3425C113.002 10.4337 114.395 14.1304 116.082 18.543C117.769 22.9557 119.139 26.6784 119.139 26.7956C119.139 27.121 118.589 27.8629 118.167 28.1103C117.546 28.4617 116.375 28.3966 115.485 27.928L114.747 27.5505L113.892 29.3989L113.048 31.2603L113.775 31.6508C115.016 32.3276 116.305 32.627 117.675 32.5359C120.428 32.3667 121.974 31.1692 123.344 28.1233C123.695 27.3553 128.65 14.1044 129.997 10.3425C130.044 10.2124 129.575 10.1863 127.748 10.2124L125.441 10.2514L124.82 11.9436C124.48 12.8678 123.672 15.1327 123.004 16.955C122.348 18.7773 121.763 20.3263 121.716 20.3784C121.669 20.4435 120.791 18.1655 119.772 15.3409L117.921 10.1863H115.414C113.458 10.1863 112.92 10.2254 112.966 10.3425Z" fill="white"/>
<path id="Vector_9" d="M4.25942 22.0968L4.29456 26.6135L6.57857 26.6005H8.86257L8.89771 22.1488L8.92114 17.7101L8.60489 17.7882C7.48046 18.0616 5.21987 17.9965 4.41169 17.6581C4.24771 17.58 4.23599 18.0876 4.25942 22.0968Z" fill="white"/>
<path id="Vector_10" d="M13.3727 20.2742V22.0314H15.0008H16.6406L16.6757 20.3262C16.6991 19.389 16.6874 18.595 16.664 18.569C16.6406 18.5429 15.8792 18.5169 14.9891 18.5169H13.3727V20.2742Z" fill="white"/>
</g>
</svg>
