<svg width="11" height="12" viewBox="0 0 11 12" fill="none" xmlns="http://www.w3.org/2000/svg">
<g id="Group">
<path id="Vector" fill-rule="evenodd" clip-rule="evenodd" d="M5.5 0.5C2.4625 0.5 0 2.9625 0 6C0 9.0375 2.4625 11.5 5.5 11.5C8.5375 11.5 11 9.0375 11 6C11 2.9625 8.5375 0.5 5.5 0.5ZM7.884 5.07C7.9279 5.01982 7.96132 4.96137 7.98229 4.89808C8.00327 4.8348 8.01137 4.76796 8.00613 4.70149C8.0009 4.63503 7.98242 4.57028 7.95179 4.51106C7.92116 4.45185 7.87899 4.39935 7.82777 4.35667C7.77656 4.31399 7.71732 4.28198 7.65355 4.26253C7.58978 4.24308 7.52276 4.23658 7.45644 4.24341C7.39012 4.25025 7.32584 4.27027 7.26737 4.30232C7.20891 4.33436 7.15744 4.37777 7.116 4.43L4.966 7.0095L3.8535 5.8965C3.7592 5.80542 3.6329 5.75502 3.5018 5.75616C3.3707 5.7573 3.24529 5.80989 3.15259 5.90259C3.05989 5.99529 3.0073 6.1207 3.00616 6.2518C3.00502 6.3829 3.05542 6.5092 3.1465 6.6035L4.6465 8.1035C4.69563 8.1526 4.75445 8.19092 4.81921 8.21603C4.88397 8.24114 4.95325 8.25248 5.02263 8.24932C5.09202 8.24617 5.15999 8.2286 5.22221 8.19772C5.28442 8.16685 5.33952 8.12335 5.384 8.07L7.884 5.07Z" fill={fill}/>
</g>
</svg>
