 <svg width="24" height="25" viewBox="0 0 24 25" fill="none" xmlns="http://www.w3.org/2000/svg">
                <path
                  d="M17.34 5.51188C17.1027 5.51188 16.8707 5.58226 16.6733 5.71412C16.476 5.84597 16.3222 6.03339 16.2313 6.25266C16.1405 6.47193 16.1168 6.71321 16.1631 6.94599C16.2094 7.17877 16.3236 7.39259 16.4915 7.56041C16.6593 7.72823 16.8731 7.84252 17.1059 7.88882C17.3387 7.93512 17.5799 7.91136 17.7992 7.82054C18.0185 7.72971 18.2059 7.5759 18.3378 7.37856C18.4696 7.18123 18.54 6.94922 18.54 6.71188C18.54 6.39362 18.4136 6.0884 18.1885 5.86335C17.9635 5.63831 17.6583 5.51188 17.34 5.51188ZM21.94 7.93188C21.9206 7.10218 21.7652 6.28128 21.48 5.50188C21.2257 4.83501 20.83 4.23116 20.32 3.73188C19.8248 3.21931 19.2196 2.82606 18.55 2.58188C17.7727 2.28804 16.9508 2.12909 16.12 2.11188C15.06 2.05188 14.72 2.05188 12 2.05188C9.28 2.05188 8.94 2.05188 7.88 2.11188C7.04915 2.12909 6.22734 2.28804 5.45 2.58188C4.78168 2.82853 4.17693 3.22144 3.68 3.73188C3.16743 4.22706 2.77418 4.83232 2.53 5.50188C2.23616 6.27922 2.07721 7.10103 2.06 7.93188C2 8.99188 2 9.33188 2 12.0519C2 14.7719 2 15.1119 2.06 16.1719C2.07721 17.0027 2.23616 17.8245 2.53 18.6019C2.77418 19.2714 3.16743 19.8767 3.68 20.3719C4.17693 20.8823 4.78168 21.2752 5.45 21.5219C6.22734 21.8157 7.04915 21.9747 7.88 21.9919C8.94 22.0519 9.28 22.0519 12 22.0519C14.72 22.0519 15.06 22.0519 16.12 21.9919C16.9508 21.9747 17.7727 21.8157 18.55 21.5219C19.2196 21.2777 19.8248 20.8845 20.32 20.3719C20.8322 19.8745 21.2283 19.2701 21.48 18.6019C21.7652 17.8225 21.9206 17.0016 21.94 16.1719C21.94 15.1119 22 14.7719 22 12.0519C22 9.33188 22 8.99188 21.94 7.93188ZM20.14 16.0519C20.1327 16.6867 20.0178 17.3156 19.8 17.9119C19.6403 18.3471 19.3839 18.7403 19.05 19.0619C18.7256 19.3924 18.3332 19.6483 17.9 19.8119C17.3037 20.0296 16.6748 20.1446 16.04 20.1519C15.04 20.2019 14.67 20.2119 12.04 20.2119C9.41 20.2119 9.04 20.2119 8.04 20.1519C7.38089 20.1642 6.72459 20.0627 6.1 19.8519C5.68578 19.68 5.31136 19.4247 5 19.1019C4.66809 18.7806 4.41484 18.3871 4.26 17.9519C4.01586 17.347 3.88044 16.7038 3.86 16.0519C3.86 15.0519 3.8 14.6819 3.8 12.0519C3.8 9.42188 3.8 9.05188 3.86 8.05188C3.86448 7.40294 3.98295 6.75983 4.21 6.15188C4.38605 5.72979 4.65627 5.35354 5 5.05188C5.30381 4.70805 5.67929 4.43498 6.1 4.25188C6.70955 4.03192 7.352 3.91696 8 3.91188C9 3.91188 9.37 3.85188 12 3.85188C14.63 3.85188 15 3.85188 16 3.91188C16.6348 3.91916 17.2637 4.03413 17.86 4.25188C18.3144 4.42053 18.7223 4.69473 19.05 5.05188C19.3777 5.35906 19.6338 5.73461 19.8 6.15188C20.0223 6.76081 20.1373 7.40366 20.14 8.05188C20.19 9.05188 20.2 9.42188 20.2 12.0519C20.2 14.6819 20.19 15.0519 20.14 16.0519ZM12 6.92188C10.9858 6.92386 9.99496 7.22641 9.15265 7.7913C8.31035 8.35619 7.65438 9.15808 7.26763 10.0956C6.88089 11.0332 6.78072 12.0643 6.97979 13.0588C7.17886 14.0533 7.66824 14.9664 8.38608 15.6829C9.10392 16.3993 10.018 16.8869 11.0129 17.084C12.0077 17.2812 13.0387 17.179 13.9755 16.7904C14.9123 16.4018 15.7129 15.7443 16.2761 14.9009C16.8394 14.0575 17.14 13.0661 17.14 12.0519C17.1413 11.377 17.0092 10.7085 16.7512 10.0848C16.4933 9.46119 16.1146 8.89469 15.6369 8.41793C15.1592 7.94117 14.5919 7.56356 13.9678 7.30681C13.3436 7.05006 12.6749 6.91924 12 6.92188ZM12 15.3819C11.3414 15.3819 10.6976 15.1866 10.15 14.8207C9.60234 14.4548 9.17552 13.9347 8.92348 13.3262C8.67144 12.7177 8.6055 12.0482 8.73398 11.4022C8.86247 10.7563 9.17963 10.1629 9.64533 9.69721C10.111 9.23151 10.7044 8.91435 11.3503 8.78586C11.9963 8.65738 12.6659 8.72332 13.2743 8.97536C13.8828 9.2274 14.4029 9.65422 14.7688 10.2018C15.1347 10.7494 15.33 11.3933 15.33 12.0519C15.33 12.4892 15.2439 12.9222 15.0765 13.3262C14.9092 13.7302 14.6639 14.0973 14.3547 14.4065C14.0454 14.7158 13.6784 14.9611 13.2743 15.1284C12.8703 15.2957 12.4373 15.3819 12 15.3819Z"
                  fill="#9CA3AF"
                />
              </svg>