 <svg width="25" height="26" viewBox="0 0 25 26" fill="none" xmlns="http://www.w3.org/2000/svg">
                <path
                  d="M22.4332 0.979417H1.98253C1.75265 0.976224 1.52439 1.01835 1.31078 1.10338C1.09718 1.18841 0.902417 1.31469 0.737621 1.475C0.572825 1.63532 0.441224 1.82652 0.350331 2.0377C0.259438 2.24888 0.211035 2.47589 0.207886 2.70578V23.3979C0.211035 23.6278 0.259438 23.8548 0.350331 24.066C0.441224 24.2772 0.572825 24.4684 0.737621 24.6287C0.902417 24.789 1.09718 24.9153 1.31078 25.0003C1.52439 25.0854 1.75265 25.1275 1.98253 25.1243H22.4332C22.6631 25.1275 22.8914 25.0854 23.105 25.0003C23.3186 24.9153 23.5134 24.789 23.6782 24.6287C23.8429 24.4684 23.9745 24.2772 24.0654 24.066C24.1563 23.8548 24.2047 23.6278 24.2079 23.3979V2.70578C24.2047 2.47589 24.1563 2.24888 24.0654 2.0377C23.9745 1.82652 23.8429 1.63532 23.6782 1.475C23.5134 1.31469 23.3186 1.18841 23.105 1.10338C22.8914 1.01835 22.6631 0.976224 22.4332 0.979417ZM7.48756 21.1887H3.86583V10.3235H7.48756V21.1887ZM5.6767 8.80235C5.17722 8.80235 4.69819 8.60394 4.345 8.25075C3.99182 7.89756 3.7934 7.41854 3.7934 6.91905C3.7934 6.41957 3.99182 5.94055 4.345 5.58736C4.69819 5.23417 5.17722 5.03575 5.6767 5.03575C5.94192 5.00568 6.21051 5.03196 6.46488 5.11288C6.71924 5.1938 6.95365 5.32753 7.15274 5.50533C7.35184 5.68312 7.51114 5.90096 7.6202 6.14459C7.72927 6.38821 7.78565 6.65213 7.78565 6.91905C7.78565 7.18598 7.72927 7.4499 7.6202 7.69352C7.51114 7.93715 7.35184 8.15499 7.15274 8.33278C6.95365 8.51058 6.71924 8.64431 6.46488 8.72523C6.21051 8.80615 5.94192 8.83243 5.6767 8.80235ZM20.5499 21.1887H16.9282V15.3577C16.9282 13.8969 16.4091 12.9432 15.0932 12.9432C14.6859 12.9462 14.2894 13.0739 13.957 13.3092C13.6246 13.5445 13.3723 13.876 13.234 14.2591C13.1396 14.5428 13.0986 14.8417 13.1133 15.1404V21.1766H9.49159C9.49159 21.1766 9.49159 11.3013 9.49159 10.3114H13.1133V11.8446C13.4423 11.2737 13.9209 10.8034 14.4974 10.4843C15.0739 10.1652 15.7265 10.0094 16.3849 10.0337C18.7994 10.0337 20.5499 11.5911 20.5499 14.9352V21.1887Z"
                  fill="#9CA3AF"
                />
              </svg>