<svg width="34" height="43" viewBox="0 0 34 43" fill="none" xmlns="http://www.w3.org/2000/svg">
<path id="Vector" d="M16.0861 0.445961C15.6625 0.683315 15.2692 1.29365 15.1784 1.80227C15.0574 2.58214 14.1498 3.2942 9.30891 6.4137C4.07475 9.80446 3.4999 10.1096 2.71326 9.80446C0.504629 8.92286 -1.00813 11.8389 0.807182 13.4326C1.50305 14.0768 1.56356 14.3142 1.56356 17.1963C1.56356 19.0612 1.41229 20.5532 1.2005 20.9601C0.897948 21.5026 0.897948 21.7738 1.2005 22.3164C1.41229 22.7233 1.56356 24.1813 1.56356 25.9106C1.56356 28.6232 1.50305 28.8944 0.807182 29.5048C-0.0399657 30.2507 -0.191242 31.641 0.474374 32.6582C0.837437 33.2346 1.77535 33.4041 3.07633 33.099C3.31837 33.0312 6.16236 34.6587 9.33917 36.7271C13.9682 39.6771 15.1784 40.5926 15.1784 41.169C15.1784 42.0506 16.0861 43 16.8727 43C17.7804 43 18.8091 42.0506 18.8091 41.2029C18.8091 40.5926 19.8983 39.7449 24.7088 36.6254C29.7312 33.3702 30.7296 32.8616 31.4255 33.0651C32.5147 33.3702 33.0593 33.2346 33.5434 32.5565C34.1787 31.607 33.9972 30.2168 33.1803 29.5048L32.4239 28.8266V21.4687V14.1107L33.1803 13.4326C35.0259 11.805 33.4829 8.92286 31.244 9.80446C30.4271 10.1096 29.9128 9.87227 24.6786 6.48151C19.6865 3.26029 18.9603 2.68386 18.7486 1.76836C18.5973 1.15802 18.204 0.581589 17.7501 0.344238C16.8122 -0.13047 17.024 -0.130466 16.0861 0.445961ZM15.723 3.93844C15.6928 4.07407 14.7549 5.90509 13.7262 8.00736L11.7898 11.805H7.73564C5.49675 11.805 3.68143 11.6694 3.68143 11.5337C3.68143 11.2625 15.1179 3.70109 15.5718 3.66718C15.723 3.66718 15.7835 3.80281 15.723 3.93844ZM24.4971 7.56656C27.7041 9.60101 30.3061 11.3981 30.3061 11.5677C30.3061 11.7033 28.4605 11.7711 26.1914 11.7372L22.0766 11.6355L20.1403 7.90563C18.2645 4.27752 17.9317 3.49765 18.446 3.735C18.5973 3.76891 21.3203 5.4982 24.4971 7.56656ZM16.6912 7.46484C16.6609 11.4659 16.4492 11.805 14.1498 11.805C12.879 11.805 12.4252 11.6694 12.516 11.3642C12.758 10.3131 15.9651 4.34533 16.3281 4.34533C16.6004 4.34533 16.6912 5.19303 16.6912 7.46484ZM19.7772 7.90563C20.7454 9.77055 21.532 11.3981 21.532 11.5337C21.532 11.7033 20.7757 11.805 19.868 11.805C17.3568 11.805 16.9938 11.2286 16.9938 7.36311C16.9938 4.6505 17.0543 4.31143 17.5081 4.41315C17.7804 4.48096 18.8091 6.04071 19.7772 7.90563ZM23.0146 14.2124C23.7104 15.5688 24.2248 16.6877 24.1945 16.7216C23.4381 17.298 17.4778 20.9601 17.2661 20.9601C17.1148 20.9601 16.9938 19.2308 16.9938 17.1285C16.9938 12.5171 17.145 12.2458 19.868 12.0424C20.8664 11.9745 21.7136 11.9067 21.7438 11.8728C21.7741 11.8389 22.3489 12.89 23.0146 14.2124ZM10.5796 14.1785C10.035 15.2975 9.46019 16.213 9.30891 16.213C8.82483 16.213 3.68143 12.7883 3.68143 12.4493C3.68143 12.2797 5.40598 12.1441 7.61462 12.1441H11.5781L10.5796 14.1785ZM16.3281 12.551C16.6912 12.9579 16.8727 20.9601 16.5097 20.9601C16.2374 20.9601 10.5191 17.2302 10.1258 16.7894C9.85351 16.4843 10.0048 15.9078 10.8519 14.2464L11.9109 12.1441H13.938C15.1179 12.1441 16.1164 12.3136 16.3281 12.551ZM30.3061 12.4493C30.3061 12.7544 25.1324 16.213 24.6483 16.213C24.4063 16.213 23.0146 13.7377 22.5002 12.4153C22.4397 12.2458 24.1643 12.1441 26.3426 12.1441C28.521 12.1441 30.3061 12.2797 30.3061 12.4493ZM6.04134 14.7211C7.37258 15.5688 8.61304 16.4503 8.79457 16.6538C9.00636 16.959 8.79457 17.6032 8.12896 18.8239C7.58436 19.7733 7.07002 20.621 6.949 20.6888C6.70696 20.7905 3.07633 14.009 3.07633 13.4665C3.07633 12.924 3.53016 13.1274 6.04134 14.7211ZM30.9112 13.3648C30.9112 13.7377 27.1595 20.9601 26.978 20.9601C26.7057 20.9601 24.7996 16.8572 24.9811 16.6538C25.0719 16.5521 26.2821 15.7383 27.6436 14.8228C30.0035 13.2969 30.9112 12.8901 30.9112 13.3648ZM4.74037 17.7049L6.73722 21.5704L4.83113 25.3341C3.7722 27.4025 2.83429 29.064 2.71326 29.0979C2.59224 29.0979 2.50148 25.6732 2.50148 21.4687C2.50148 17.2641 2.56199 13.8395 2.6225 13.8395C2.68301 13.8395 3.62092 15.5688 4.74037 17.7049ZM31.5163 21.4687C31.5163 25.6732 31.3953 29.0979 31.244 29.0979C30.8507 29.0979 27.5831 22.3842 27.5831 21.5365C27.5831 20.6888 30.9717 13.8395 31.365 13.8395C31.4558 13.8395 31.5163 17.2641 31.5163 21.4687ZM26.5242 21.2991C26.6452 22.1468 25.0719 25.0968 24.3155 25.402C23.7407 25.6393 23.0751 25.3341 20.6244 23.7405C18.9603 22.6893 17.6594 21.6721 17.6896 21.5365C17.7199 21.367 19.2629 20.2819 21.0782 19.129L24.4063 16.9929L25.435 18.8917C25.9796 19.9428 26.4939 21.0279 26.5242 21.2991ZM13.1816 19.2986C14.9364 20.4514 16.3886 21.4687 16.3886 21.6043C16.3584 21.706 14.8456 22.7572 13.0001 23.9439C10.7612 25.368 9.55096 25.9784 9.33917 25.741C9.18789 25.5715 8.61304 24.5543 8.06845 23.5031L7.10028 21.5704L8.18947 19.4003C8.79457 18.2135 9.42993 17.2302 9.64172 17.2302C9.82325 17.2302 11.4268 18.1796 13.1816 19.2986ZM8.18947 24.4186L9.15764 26.3514L6.3439 28.2163C4.80088 29.2335 3.40914 29.9456 3.28811 29.8099C3.13684 29.6404 3.89322 27.8433 4.95215 25.7749C6.01109 23.7066 6.949 22.1129 7.03977 22.2485C7.16079 22.3842 7.67513 23.3675 8.18947 24.4186ZM16.6912 26.5548V31.1323H14.7246C13.5749 31.1323 12.758 30.9967 12.758 30.7933C12.758 30.5898 12.4252 30.2846 12.0016 30.1151C11.3663 29.8439 9.91402 27.4364 9.88376 26.6226C9.88376 26.4192 16.2071 22.079 16.6307 21.9773C16.6609 21.9773 16.6912 24.0457 16.6912 26.5548ZM20.3823 24.0117C23.9827 26.3175 24.1037 26.5887 22.833 29.3352L21.9859 31.1323H19.5049H16.9938V26.5548C16.9938 24.0457 17.0543 21.9773 17.1148 21.9773C17.1753 21.9773 18.6578 22.8928 20.3823 24.0117ZM29.0656 25.9445C30.0943 27.945 30.8204 29.6743 30.6994 29.8099C30.3061 30.2507 25.5257 26.9956 25.314 26.1479C25.1627 25.4359 26.5544 22.3164 27.0082 22.3164C27.099 22.3164 28.0369 23.9439 29.0656 25.9445ZM10.3376 28.5893C10.8519 29.6065 11.215 30.5898 11.094 30.7933C10.7914 31.3358 3.68143 31.2341 3.68143 30.6915C3.68143 30.4203 8.70381 26.86 9.33917 26.7244C9.36942 26.7244 9.82325 27.572 10.3376 28.5893ZM27.6134 28.691C28.9748 29.5726 30.1548 30.4881 30.2456 30.7254C30.3363 31.0306 29.4287 31.1323 26.4031 31.1323C24.2248 31.1323 22.4397 31.0306 22.4397 30.9289C22.4397 30.149 24.4366 27.1991 25.0719 27.0634C25.1022 27.0634 26.2216 27.7755 27.6134 28.691ZM11.5781 32.1157C12.5765 32.7938 15.9953 38.9989 15.481 39.2023C15.1784 39.338 4.74037 32.6921 3.98399 31.9461C3.62092 31.5392 4.07475 31.4714 7.10028 31.4714C10.035 31.4714 10.7914 31.5731 11.5781 32.1157ZM16.6912 35.2352C16.6912 38.0495 16.6004 38.965 16.3281 38.8633C15.8441 38.6598 12.758 32.8277 12.758 32.0478C12.758 31.5731 13.0606 31.4714 14.7246 31.4714H16.6912V35.2352ZM21.532 31.6749C21.532 32.2852 17.7804 38.9311 17.4778 38.8294C17.2661 38.7615 17.1148 37.4052 17.0543 35.0995L16.9635 31.4714H19.2629C20.5034 31.4714 21.532 31.5731 21.532 31.6749ZM30.1548 31.7766C29.6405 32.3191 18.8393 39.2702 18.4763 39.2702C18.0829 39.2702 17.9922 39.4397 20.1706 35.0995L21.9859 31.4714H26.2216C28.7631 31.4714 30.3061 31.607 30.1548 31.7766Z" fill="#D43325"/>
</svg>
