<svg xmlns="http://www.w3.org/2000/svg" width="24" height="25" viewBox="0 0 24 25" fill="none">
  <path d="M12.0001 2.89999C10.0905 2.89999 8.25918 3.65856 6.90892 5.00883C5.55866 6.35909 4.80009 8.19044 4.80009 10.1V14.4032L3.95169 15.2516C3.78391 15.4194 3.66967 15.6332 3.62339 15.866C3.5771 16.0987 3.60087 16.3399 3.69167 16.5592C3.78248 16.7784 3.93624 16.9658 4.13354 17.0977C4.33083 17.2295 4.56279 17.2999 4.80009 17.3H19.2001C19.4374 17.2999 19.6693 17.2295 19.8666 17.0977C20.0639 16.9658 20.2177 16.7784 20.3085 16.5592C20.3993 16.3399 20.4231 16.0987 20.3768 15.866C20.3305 15.6332 20.2163 15.4194 20.0485 15.2516L19.2001 14.4032V10.1C19.2001 8.19044 18.4415 6.35909 17.0913 5.00883C15.741 3.65856 13.9096 2.89999 12.0001 2.89999ZM12.0001 22.1C11.0453 22.1 10.1296 21.7207 9.4545 21.0456C8.77937 20.3704 8.40009 19.4548 8.40009 18.5H15.6001C15.6001 19.4548 15.2208 20.3704 14.5457 21.0456C13.8705 21.7207 12.9549 22.1 12.0001 22.1Z" fill="#9CA3AF"/>
</svg>