<svg width="44" height="44" viewBox="0 0 44 44" fill="none" xmlns="http://www.w3.org/2000/svg">
<g id="online class">
<g id="Group">
<path id="Vector" d="M38.5 10.3125H37.125C36.9427 10.3125 36.7678 10.3849 36.6389 10.5139C36.5099 10.6428 36.4375 10.8177 36.4375 11C36.4375 11.1823 36.5099 11.3572 36.6389 11.4861C36.7678 11.6151 36.9427 11.6875 37.125 11.6875H37.8125V29.5625H6.1875V11.6875H6.875C7.05734 11.6875 7.2322 11.6151 7.36114 11.4861C7.49007 11.3572 7.5625 11.1823 7.5625 11C7.5625 10.8177 7.49007 10.6428 7.36114 10.5139C7.2322 10.3849 7.05734 10.3125 6.875 10.3125H5.5C5.4097 10.3124 5.32028 10.3302 5.23684 10.3647C5.15341 10.3993 5.0776 10.4499 5.01375 10.5137C4.9499 10.5776 4.89926 10.6534 4.86473 10.7368C4.83019 10.8203 4.81245 10.9097 4.8125 11V35.75C4.81245 35.8403 4.83019 35.9297 4.86473 36.0132C4.89926 36.0966 4.9499 36.1724 5.01375 36.2363C5.0776 36.3001 5.15341 36.3507 5.23684 36.3853C5.32028 36.4198 5.4097 36.4376 5.5 36.4375H15.6198L14.5886 40.5625H13.75C13.5677 40.5625 13.3928 40.6349 13.2639 40.7639C13.1349 40.8928 13.0625 41.0677 13.0625 41.25C13.0625 41.4323 13.1349 41.6072 13.2639 41.7361C13.3928 41.8651 13.5677 41.9375 13.75 41.9375H19.25C19.4323 41.9375 19.6072 41.8651 19.7361 41.7361C19.8651 41.6072 19.9375 41.4323 19.9375 41.25C19.9375 41.0677 19.8651 40.8928 19.7361 40.7639C19.6072 40.6349 19.4323 40.5625 19.25 40.5625H16.0059L17.0371 36.4375H26.9629L27.9941 40.5625H24.75C24.5677 40.5625 24.3928 40.6349 24.2639 40.7639C24.1349 40.8928 24.0625 41.0677 24.0625 41.25C24.0625 41.4323 24.1349 41.6072 24.2639 41.7361C24.3928 41.8651 24.5677 41.9375 24.75 41.9375H30.25C30.4323 41.9375 30.6072 41.8651 30.7361 41.7361C30.8651 41.6072 30.9375 41.4323 30.9375 41.25C30.9375 41.0677 30.8651 40.8928 30.7361 40.7639C30.6072 40.6349 30.4323 40.5625 30.25 40.5625H29.4114L28.3802 36.4375H38.5C38.5903 36.4376 38.6797 36.4198 38.7632 36.3853C38.8466 36.3507 38.9224 36.3001 38.9863 36.2363C39.0501 36.1724 39.1007 36.0966 39.1353 36.0132C39.1698 35.9297 39.1876 35.8403 39.1875 35.75V11C39.1876 10.9097 39.1698 10.8203 39.1353 10.7368C39.1007 10.6534 39.0501 10.5776 38.9863 10.5137C38.9224 10.4499 38.8466 10.3993 38.7632 10.3647C38.6797 10.3302 38.5903 10.3124 38.5 10.3125ZM27.5 35.0625H6.1875V30.9375H37.8125V35.0625H27.5Z" fill="#1F2A37"/>
<path id="Vector_2" d="M23.375 32.3125H20.625C20.4427 32.3125 20.2678 32.3849 20.1389 32.5139C20.0099 32.6428 19.9375 32.8177 19.9375 33C19.9375 33.1823 20.0099 33.3572 20.1389 33.4861C20.2678 33.6151 20.4427 33.6875 20.625 33.6875H23.375C23.5573 33.6875 23.7322 33.6151 23.8611 33.4861C23.9901 33.3572 24.0625 33.1823 24.0625 33C24.0625 32.8177 23.9901 32.6428 23.8611 32.5139C23.7322 32.3849 23.5573 32.3125 23.375 32.3125ZM9.625 25.4375H34.375C34.4653 25.4376 34.5547 25.4198 34.6382 25.3853C34.7216 25.3507 34.7974 25.3001 34.8613 25.2363C34.9251 25.1724 34.9757 25.0966 35.0103 25.0132C35.0448 24.9297 35.0626 24.8403 35.0625 24.75V2.75C35.0626 2.6597 35.0448 2.57028 35.0103 2.48684C34.9757 2.40341 34.9251 2.3276 34.8613 2.26375C34.7974 2.1999 34.7216 2.14926 34.6382 2.11473C34.5547 2.08019 34.4653 2.06245 34.375 2.0625H9.625C9.5347 2.06245 9.44528 2.08019 9.36184 2.11473C9.27841 2.14926 9.2026 2.1999 9.13875 2.26375C9.0749 2.3276 9.02426 2.40341 8.98973 2.48684C8.95519 2.57028 8.93745 2.6597 8.9375 2.75V24.75C8.93745 24.8403 8.95519 24.9297 8.98973 25.0132C9.02426 25.0966 9.0749 25.1724 9.13875 25.2363C9.2026 25.3001 9.27841 25.3507 9.36184 25.3853C9.44528 25.4198 9.5347 25.4376 9.625 25.4375ZM10.3125 14.4375H21.3125V24.0625H19.8489C19.7566 23.4961 19.5461 22.9554 19.2311 22.4757C18.9161 21.996 18.5036 21.5881 18.0204 21.2783C18.3059 20.8524 18.4602 20.3522 18.4645 19.8395C18.4645 19.1361 18.1851 18.4616 17.6877 17.9642C17.1904 17.4669 16.5158 17.1875 15.8125 17.1875C15.1092 17.1875 14.4346 17.4669 13.9373 17.9642C13.4399 18.4616 13.1605 19.1361 13.1605 19.8395C13.1648 20.3522 13.3191 20.8524 13.6042 21.2784C13.1212 21.5882 12.7088 21.9962 12.3938 22.4759C12.0788 22.9555 11.8684 23.4961 11.7761 24.0625H10.3125V14.4375ZM17.0895 19.8395C17.0902 20.0522 17.0374 20.2616 16.9357 20.4484C16.8341 20.6352 16.687 20.7934 16.5081 20.9083C16.3 21.0416 16.058 21.1123 15.811 21.1121C15.5639 21.1118 15.3221 21.0406 15.1143 20.9069C14.936 20.7919 14.7895 20.6338 14.6884 20.4472C14.5872 20.2606 14.5347 20.0516 14.5355 19.8394C14.5355 19.5008 14.6701 19.176 14.9095 18.9365C15.149 18.697 15.4738 18.5625 15.8125 18.5625C16.1512 18.5625 16.476 18.697 16.7155 18.9365C16.9549 19.176 17.0895 19.5008 17.0895 19.8395ZM13.1484 24.0625C13.2556 23.6553 13.4557 23.2785 13.7331 22.9617C14.0104 22.6448 14.3574 22.3966 14.7469 22.2365C15.0772 22.4037 15.4423 22.4908 15.8125 22.4908C16.1827 22.4908 16.5478 22.4037 16.8781 22.2366C17.2676 22.3967 17.6146 22.6449 17.8919 22.9617C18.1693 23.2785 18.3694 23.6553 18.4766 24.0625H13.1484ZM22.6875 24.0625V14.4375H33.6875V24.0625H22.6875ZM28.8831 9.90832C28.675 10.0416 28.433 10.1123 28.186 10.1121C27.9389 10.1118 27.6971 10.0406 27.4893 9.90694C27.311 9.79185 27.1645 9.63375 27.0634 9.4472C26.9622 9.26064 26.9097 9.05164 26.9105 8.83944C26.9105 8.50076 27.0451 8.17596 27.2845 7.93648C27.524 7.697 27.8488 7.56246 28.1875 7.56246C28.5262 7.56246 28.851 7.697 29.0905 7.93648C29.3299 8.17596 29.4645 8.50076 29.4645 8.83944C29.4652 9.05212 29.4124 9.26156 29.3107 9.44839C29.2091 9.63522 29.062 9.79341 28.8831 9.90832ZM27.1218 11.2366C27.4521 11.4037 27.8172 11.4908 28.1874 11.4908C28.5577 11.4909 28.9228 11.4038 29.2532 11.2367C29.6426 11.3967 29.9896 11.6449 30.2669 11.9617C30.5443 12.2785 30.7444 12.6553 30.8516 13.0625H25.5234C25.6305 12.6553 25.8306 12.2784 26.1079 11.9616C26.3853 11.6448 26.7323 11.3966 27.1218 11.2366ZM33.6875 13.0625H32.2535C32.1573 12.4938 31.9421 11.9517 31.6219 11.472C31.3017 10.9922 30.8837 10.5854 30.3954 10.2783C30.6809 9.85241 30.8352 9.35218 30.8395 8.83948C30.8395 8.13613 30.5601 7.46159 30.0627 6.96425C29.5654 6.4669 28.8908 6.1875 28.1875 6.1875C27.4842 6.1875 26.8096 6.4669 26.3123 6.96425C25.8149 7.46159 25.5355 8.13613 25.5355 8.83948C25.5398 9.35209 25.694 9.85224 25.9791 10.2783C25.4909 10.5854 25.073 10.9921 24.7529 11.4719C24.4328 11.9517 24.2176 12.4938 24.1215 13.0625H22.6875V3.4375H33.6875V13.0625ZM21.3125 3.4375V13.0625H10.3125V3.4375H21.3125Z" fill="#1F2A37"/>
<path id="Vector_3" d="M30.25 17.1875H26.125C25.9427 17.1875 25.7678 17.2599 25.6389 17.3889C25.5099 17.5178 25.4375 17.6927 25.4375 17.875C25.4375 18.0573 25.5099 18.2322 25.6389 18.3611C25.7678 18.4901 25.9427 18.5625 26.125 18.5625H30.25C30.4323 18.5625 30.6072 18.4901 30.7361 18.3611C30.8651 18.2322 30.9375 18.0573 30.9375 17.875C30.9375 17.6927 30.8651 17.5178 30.7361 17.3889C30.6072 17.2599 30.4323 17.1875 30.25 17.1875ZM28.875 19.9375H26.125C25.9427 19.9375 25.7678 20.0099 25.6389 20.1389C25.5099 20.2678 25.4375 20.4427 25.4375 20.625C25.4375 20.8073 25.5099 20.9822 25.6389 21.1111C25.7678 21.2401 25.9427 21.3125 26.125 21.3125H28.875C29.0573 21.3125 29.2322 21.2401 29.3611 21.1111C29.4901 20.9822 29.5625 20.8073 29.5625 20.625C29.5625 20.4427 29.4901 20.2678 29.3611 20.1389C29.2322 20.0099 29.0573 19.9375 28.875 19.9375ZM13.75 7.5625H17.875C18.0573 7.5625 18.2322 7.49007 18.3611 7.36114C18.4901 7.2322 18.5625 7.05734 18.5625 6.875C18.5625 6.69266 18.4901 6.5178 18.3611 6.38886C18.2322 6.25993 18.0573 6.1875 17.875 6.1875H13.75C13.5677 6.1875 13.3928 6.25993 13.2639 6.38886C13.1349 6.5178 13.0625 6.69266 13.0625 6.875C13.0625 7.05734 13.1349 7.2322 13.2639 7.36114C13.3928 7.49007 13.5677 7.5625 13.75 7.5625ZM17.875 8.9375H15.125C14.9427 8.9375 14.7678 9.00993 14.6389 9.13886C14.5099 9.2678 14.4375 9.44266 14.4375 9.625C14.4375 9.80734 14.5099 9.9822 14.6389 10.1111C14.7678 10.2401 14.9427 10.3125 15.125 10.3125H17.875C18.0573 10.3125 18.2322 10.2401 18.3611 10.1111C18.4901 9.9822 18.5625 9.80734 18.5625 9.625C18.5625 9.44266 18.4901 9.2678 18.3611 9.13886C18.2322 9.00993 18.0573 8.9375 17.875 8.9375Z" fill="white"/>
<path id="Vector_4" d="M22 41.9375C22.3797 41.9375 22.6875 41.6297 22.6875 41.25C22.6875 40.8703 22.3797 40.5625 22 40.5625C21.6203 40.5625 21.3125 40.8703 21.3125 41.25C21.3125 41.6297 21.6203 41.9375 22 41.9375Z" fill="#1F2A37"/>
</g>
</g>
</svg>
