<svg width="40" height="40" viewBox="0 0 40 40" fill="none" xmlns="http://www.w3.org/2000/svg">
<path d="M13 13.532H13.44C13.685 15.0959 14.4806 16.5208 15.6834 17.5498C16.8862 18.5789 18.417 19.1444 20 19.1444C21.5829 19.1444 23.1138 18.5789 24.3166 17.5498C25.5194 16.5208 26.315 15.0959 26.56 13.532H27C27.4151 13.532 27.8134 13.3674 28.1073 13.0742C28.4012 12.781 28.5669 12.3832 28.568 11.968V10.4C28.568 10.1878 28.4837 9.98434 28.3337 9.83431C28.1836 9.68428 27.9801 9.6 27.768 9.6H26.652V6.4C26.6536 5.83622 26.5439 5.27766 26.3294 4.75629C26.1149 4.23492 25.7996 3.76098 25.4017 3.36158C25.0038 2.96218 24.531 2.64517 24.0105 2.4287C23.4899 2.21222 22.9318 2.10052 22.368 2.1H17.632C17.0684 2.10052 16.5104 2.21225 15.9901 2.42877C15.4697 2.6453 14.9972 2.96237 14.5996 3.36182C14.2021 3.76127 13.8872 4.23525 13.6731 4.75659C13.459 5.27794 13.3499 5.83641 13.352 6.4V9.6H12.232C12.0198 9.6 11.8163 9.68428 11.6663 9.83431C11.5163 9.98434 11.432 10.1878 11.432 10.4V11.968C11.433 12.3832 11.5987 12.781 11.8926 13.0742C12.1866 13.3674 12.5848 13.532 13 13.532ZM20 18.352C18.4493 18.3488 16.963 17.7311 15.8669 16.6342C14.7708 15.5373 14.1541 14.0507 14.152 12.5V9.76C14.3 9.444 15.156 7.9 17.5 7.9C19.1314 7.91307 20.7346 7.47419 22.132 6.632C23.1548 7.72692 24.4328 8.55147 25.852 9.032V12.492C25.8509 14.0445 25.2343 15.5331 24.1373 16.6317C23.0403 17.7302 21.5524 18.3488 20 18.352ZM27.768 10.4V11.968C27.7669 12.171 27.6855 12.3653 27.5416 12.5085C27.3977 12.6516 27.203 12.732 27 12.732H26.652V10.4H27.768ZM14.168 6.4C14.168 5.47668 14.5345 4.59111 15.187 3.93785C15.8395 3.28459 16.7247 2.91706 17.648 2.916H22.368C23.2917 2.91706 24.1772 3.28446 24.8304 3.93761C25.4835 4.59075 25.8509 5.47631 25.852 6.4V8.2C24.5625 7.70392 23.4153 6.89743 22.512 5.852C22.4467 5.77013 22.3518 5.71715 22.2479 5.70443C22.1439 5.69172 22.0391 5.72029 21.956 5.784C20.6384 6.66421 19.0844 7.12316 17.5 7.1C16.8825 7.07425 16.2663 7.17644 15.6901 7.40015C15.114 7.62387 14.5903 7.96427 14.152 8.4L14.168 6.4ZM12.248 10.4H13.368V12.732H13C12.797 12.732 12.6022 12.6516 12.4583 12.5085C12.3144 12.3653 12.233 12.171 12.232 11.968L12.248 10.4ZM4.99998 36.592H14.884C15.1404 36.5931 15.386 36.6954 15.5673 36.8767C15.7486 37.058 15.8509 37.3036 15.852 37.56C15.852 37.6661 15.8941 37.7678 15.9691 37.8428C16.0441 37.9179 16.1459 37.96 16.252 37.96H23.752C23.8581 37.96 23.9598 37.9179 24.0348 37.8428C24.1098 37.7678 24.152 37.6661 24.152 37.56C24.152 37.304 24.2534 37.0583 24.4341 36.8769C24.6147 36.6955 24.8599 36.5931 25.116 36.592H35C35.1061 36.592 35.2078 36.5499 35.2828 36.4748C35.3578 36.3998 35.4 36.2981 35.4 36.192V34.592C35.4 34.4859 35.3578 34.3842 35.2828 34.3092C35.2078 34.2341 35.1061 34.192 35 34.192H34.132C34.1381 34.1268 34.1381 34.0612 34.132 33.996V32.692C34.1309 32.4289 34.0262 32.1767 33.8405 31.9903C33.6548 31.8038 33.4031 31.6981 33.14 31.696H32.88V28.252C32.8769 26.2973 32.1017 24.4229 30.7232 23.037C29.3448 21.651 27.4747 20.8657 25.52 20.852H23.12C23.0612 20.8519 23.0031 20.8648 22.9499 20.8896C22.8967 20.9145 22.8496 20.9508 22.812 20.996L20.012 24.376L17.212 20.996C17.1744 20.9508 17.1273 20.9145 17.074 20.8896C17.0208 20.8648 16.9627 20.8519 16.904 20.852H14.464C12.5138 20.873 10.6504 21.6614 9.27733 23.0465C7.90427 24.4315 7.13207 26.3017 7.12798 28.252V31.696H6.87198C6.60884 31.6981 6.35714 31.8038 6.17144 31.9903C5.98574 32.1767 5.88102 32.4289 5.87998 32.692V34C5.87388 34.0652 5.87388 34.1308 5.87998 34.196H4.99998C4.89389 34.196 4.79215 34.2381 4.71713 34.3132C4.64212 34.3882 4.59998 34.4899 4.59998 34.596V36.196C4.60103 36.3014 4.64364 36.4021 4.71854 36.4763C4.79344 36.5504 4.89458 36.592 4.99998 36.592ZM23.312 21.652H25.044L23.896 26.872L20.608 24.896L23.312 21.652ZM19.392 24.896L16.104 26.872L14.956 21.652H16.688L19.392 24.896ZM7.89998 28.252C7.9045 26.5652 8.55357 24.9438 9.71433 23.7199C10.8751 22.4959 12.4597 21.7619 14.144 21.668L15.44 27.6C15.4532 27.6624 15.4812 27.7207 15.5215 27.7702C15.5619 27.8196 15.6135 27.8586 15.672 27.884C15.723 27.9042 15.7772 27.915 15.832 27.916C15.9038 27.916 15.9742 27.8966 16.036 27.86L20 25.468L23.964 27.844C24.0257 27.8806 24.0962 27.9 24.168 27.9C24.2228 27.899 24.277 27.8882 24.328 27.868C24.3846 27.8442 24.435 27.8076 24.4753 27.7611C24.5155 27.7146 24.5445 27.6595 24.56 27.6L25.856 21.684C27.5375 21.7777 29.1198 22.5095 30.2802 23.7301C31.4405 24.9506 32.0914 26.5679 32.1 28.252V31.696L22.548 31.66C22.1622 31.6587 21.7801 31.7341 21.4237 31.8817C21.0673 32.0293 20.7438 32.2463 20.472 32.52C20.289 32.6969 20.1303 32.8973 20 33.116C19.8721 32.8978 19.7161 32.6974 19.536 32.52C19.2641 32.2463 18.9407 32.0293 18.5843 31.8817C18.2279 31.7341 17.8457 31.6587 17.46 31.66L7.90798 31.696L7.89998 28.252ZM6.65198 34V32.692C6.653 32.6403 6.67398 32.5911 6.71051 32.5545C6.74705 32.518 6.79631 32.497 6.84798 32.496L17.452 32.46C17.7338 32.4584 18.0132 32.5126 18.274 32.6195C18.5348 32.7264 18.7719 32.8838 18.9715 33.0828C19.1712 33.2817 19.3295 33.5182 19.4374 33.7786C19.5453 34.039 19.6005 34.3181 19.6 34.6C19.6 34.7061 19.6421 34.8078 19.7171 34.8828C19.7921 34.9579 19.8939 35 20 35C20.1061 35 20.2078 34.9579 20.2828 34.8828C20.3578 34.8078 20.4 34.7061 20.4 34.6C20.3994 34.3188 20.4544 34.0403 20.5618 33.7804C20.6692 33.5206 20.8268 33.2844 21.0256 33.0856C21.2244 32.8868 21.4605 32.7292 21.7204 32.6218C21.9803 32.5145 22.2588 32.4595 22.54 32.46L33.148 32.496C33.1996 32.497 33.2489 32.518 33.2854 32.5545C33.322 32.5911 33.343 32.6403 33.344 32.692V34C33.344 34.052 33.3233 34.1018 33.2866 34.1386C33.2498 34.1754 33.2 34.196 33.148 34.196H23.748C23.3805 34.1964 23.0236 34.3194 22.7338 34.5454C22.444 34.7714 22.2379 35.0876 22.148 35.444H17.852C17.7621 35.0876 17.556 34.7714 17.2662 34.5454C16.9764 34.3194 16.6195 34.1964 16.252 34.196H6.84798C6.79599 34.196 6.74614 34.1754 6.70938 34.1386C6.67263 34.1018 6.65198 34.052 6.65198 34ZM5.39998 35H16.252C16.3633 35 16.4736 35.0219 16.5765 35.0645C16.6794 35.1072 16.7729 35.1696 16.8516 35.2484C16.9303 35.3271 16.9928 35.4206 17.0354 35.5235C17.078 35.6264 17.1 35.7366 17.1 35.848C17.1 35.9541 17.1421 36.0558 17.2171 36.1308C17.2921 36.2059 17.3939 36.248 17.5 36.248H22.5C22.6061 36.248 22.7078 36.2059 22.7828 36.1308C22.8578 36.0558 22.9 35.9541 22.9 35.848C22.9 35.7366 22.9219 35.6264 22.9645 35.5235C23.0071 35.4206 23.0696 35.3271 23.1483 35.2484C23.2271 35.1696 23.3206 35.1072 23.4235 35.0645C23.5263 35.0219 23.6366 35 23.748 35H34.6V35.8H25.116C24.7172 35.8012 24.3304 35.9369 24.0183 36.1852C23.7062 36.4334 23.4869 36.7797 23.396 37.168H16.596C16.5042 36.7794 16.2842 36.433 15.9714 36.1848C15.6586 35.9366 15.2713 35.801 14.872 35.8H5.39998V35Z" fill="#1F2A37"/>
<path d="M29.164 29.6H25.832V30.4H29.164V29.6Z" fill="white"/>
</svg>
