<svg width="11" height="11" viewBox="0 0 11 11" fill="none" xmlns="http://www.w3.org/2000/svg">
<path id="Vector" fill-rule="evenodd" clip-rule="evenodd" d="M5.5 11C6.95869 11 8.35764 10.4205 9.38909 9.38909C10.4205 8.35764 11 6.95869 11 5.5C11 4.04131 10.4205 2.64236 9.38909 1.61091C8.35764 0.579463 6.95869 0 5.5 0C4.04131 0 2.64236 0.579463 1.61091 1.61091C0.579463 2.64236 0 4.04131 0 5.5C0 6.95869 0.579463 8.35764 1.61091 9.38909C2.64236 10.4205 4.04131 11 5.5 11ZM4.61106 3.63894C4.4814 3.5137 4.30773 3.44441 4.12747 3.44597C3.94721 3.44754 3.77478 3.51984 3.64731 3.64731C3.51984 3.77478 3.44754 3.94721 3.44597 4.12747C3.44441 4.30773 3.5137 4.4814 3.63894 4.61106L4.52788 5.5L3.63894 6.38894C3.57327 6.45236 3.5209 6.52822 3.48487 6.6121C3.44884 6.69597 3.42987 6.78619 3.42908 6.87747C3.42828 6.96876 3.44568 7.05929 3.48025 7.14378C3.51482 7.22827 3.56586 7.30503 3.63042 7.36958C3.69497 7.43414 3.77173 7.48518 3.85622 7.51975C3.94071 7.55432 4.03124 7.57172 4.12253 7.57092C4.21381 7.57013 4.30403 7.55116 4.3879 7.51513C4.47178 7.4791 4.54764 7.42673 4.61106 7.36106L5.5 6.47213L6.38894 7.36106C6.5186 7.4863 6.69227 7.55559 6.87253 7.55403C7.05279 7.55246 7.22522 7.48016 7.35269 7.35269C7.48016 7.22522 7.55246 7.05279 7.55403 6.87253C7.55559 6.69227 7.4863 6.5186 7.36106 6.38894L6.47213 5.5L7.36106 4.61106C7.4863 4.4814 7.55559 4.30773 7.55403 4.12747C7.55246 3.94721 7.48016 3.77478 7.35269 3.64731C7.22522 3.51984 7.05279 3.44754 6.87253 3.44597C6.69227 3.44441 6.5186 3.5137 6.38894 3.63894L5.5 4.52788L4.61106 3.63894Z" fill="#E02424"/>
</svg>
