<svg width="18" height="19" viewBox="0 0 18 19" fill="none" xmlns="http://www.w3.org/2000/svg">
<g id="search">
<path id="Vector" d="M15.7501 16.25L11.2501 11.75M12.7501 8C12.7501 8.68944 12.6143 9.37213 12.3504 10.0091C12.0866 10.646 11.6999 11.2248 11.2124 11.7123C10.7249 12.1998 10.1461 12.5865 9.50915 12.8504C8.87219 13.1142 8.1895 13.25 7.50006 13.25C6.81062 13.25 6.12793 13.1142 5.49097 12.8504C4.85401 12.5865 4.27526 12.1998 3.78775 11.7123C3.30024 11.2248 2.91353 10.646 2.64969 10.0091C2.38586 9.37213 2.25006 8.68944 2.25006 8C2.25006 6.60761 2.80318 5.27226 3.78775 4.28769C4.77232 3.30312 6.10767 2.75 7.50006 2.75C8.89245 2.75 10.2278 3.30312 11.2124 4.28769C12.1969 5.27226 12.7501 6.60761 12.7501 8Z" stroke="#9CA3AF" stroke-width="2" stroke-linecap="round" stroke-linejoin="round"/>
</g>
</svg>
