<svg width="24" height="24" viewBox="0 0 24 24" fill="none" xmlns="http://www.w3.org/2000/svg">
<g id="Setting">
<path id="Vector" d="M10.0758 12.0165H1.25537M22.7758 12.0165H13.954M4.03257 3.69595H1.25537M22.7758 3.69595H7.9096M6.45564 20.3372H1.25537M22.7758 20.3372H10.3327" stroke="#6B7280" stroke-miterlimit="2.613" stroke-linecap="round" stroke-linejoin="round"/>
<path id="Vector_2" d="M5.97233 6.05592C4.67014 6.05592 3.61072 4.99725 3.61072 3.6959C3.61072 2.39428 4.67014 1.33542 5.97233 1.33542C7.2732 1.33542 8.33155 2.39433 8.33155 3.6959C8.3315 4.99725 7.2732 6.05592 5.97233 6.05592ZM5.97233 2.17917C5.13537 2.17917 4.45447 2.85961 4.45447 3.6959C4.45447 4.53197 5.13537 5.21217 5.97233 5.21217C6.80797 5.21217 7.4878 4.53197 7.4878 3.6959C7.48775 2.85961 6.80792 2.17917 5.97233 2.17917ZM12.0156 14.377C10.7134 14.377 9.65398 13.3181 9.65398 12.0165C9.65398 10.715 10.7134 9.6562 12.0156 9.6562C13.3171 9.6562 14.3759 10.715 14.3759 12.0165C14.3759 13.3181 13.3171 14.377 12.0156 14.377ZM12.0156 10.4999C11.1786 10.4999 10.4977 11.1803 10.4977 12.0165C10.4977 12.8528 11.1786 13.5332 12.0156 13.5332C12.8518 13.5332 13.5321 12.8528 13.5321 12.0165C13.5321 11.1803 12.8518 10.4999 12.0156 10.4999ZM8.39436 22.6975C7.09273 22.6975 6.03378 21.6387 6.03378 20.3372C6.03378 19.0358 7.09273 17.977 8.39436 17.977C9.6958 17.977 10.7546 19.0358 10.7546 20.3372C10.7546 21.6387 9.6958 22.6975 8.39436 22.6975ZM8.39436 18.8208C7.55797 18.8208 6.87753 19.5011 6.87753 20.3373C6.87753 21.1735 7.55797 21.8538 8.39436 21.8538C9.23056 21.8538 9.91086 21.1735 9.91086 20.3373C9.91086 19.5011 9.23051 18.8208 8.39436 18.8208Z" fill="#6B7280"/>
</g>
</svg>
