<svg xmlns="http://www.w3.org/2000/svg" width="32" height="32" viewBox="0 0 32 32" fill="none">
  <path d="M6.125 22.5C5.28443 22.5 4.46274 22.2507 3.76383 21.7837C3.06492 21.3167 2.52018 20.653 2.19851 19.8764C1.87684 19.0998 1.79268 18.2453 1.95666 17.4209C2.12065 16.5964 2.52542 15.8392 3.1198 15.2448C3.71417 14.6504 4.47145 14.2456 5.29587 14.0817C6.12029 13.9177 6.97482 14.0018 7.7514 14.3235C8.52799 14.6452 9.19175 15.1899 9.65875 15.8888C10.1257 16.5877 10.375 17.4094 10.375 18.25C10.3737 19.3768 9.92549 20.457 9.12874 21.2537C8.332 22.0505 7.25176 22.4987 6.125 22.5ZM6.125 15.5C5.5811 15.5 5.04942 15.6613 4.59718 15.9635C4.14495 16.2656 3.79247 16.6951 3.58433 17.1976C3.37619 17.7001 3.32173 18.253 3.42784 18.7865C3.53395 19.3199 3.79586 19.8099 4.18046 20.1945C4.56505 20.5791 5.05505 20.841 5.5885 20.9472C6.12195 21.0533 6.67488 20.9988 7.17738 20.7907C7.67988 20.5825 8.10937 20.2301 8.41154 19.7778C8.71372 19.3256 8.875 18.7939 8.875 18.25C8.87368 17.5211 8.58352 16.8224 8.06808 16.3069C7.55264 15.7915 6.85394 15.5013 6.125 15.5Z" fill="#1F2A37"/>
  <path d="M9.875 28.5H2.375C2.17609 28.5 1.98532 28.421 1.84467 28.2803C1.70402 28.1397 1.625 27.9489 1.625 27.75V24.25C1.62632 23.3885 1.96916 22.5626 2.57836 21.9534C3.18757 21.3442 4.01345 21.0013 4.875 21H7.375C8.23655 21.0013 9.06243 21.3442 9.67164 21.9534C10.2808 22.5626 10.6237 23.3885 10.625 24.25V27.75C10.625 27.9489 10.546 28.1397 10.4053 28.2803C10.2647 28.421 10.0739 28.5 9.875 28.5ZM3.125 27H9.125V24.25C9.125 23.7859 8.94063 23.3408 8.61244 23.0126C8.28425 22.6844 7.83913 22.5 7.375 22.5H4.875C4.41087 22.5 3.96575 22.6844 3.63756 23.0126C3.30937 23.3408 3.125 23.7859 3.125 24.25V27Z" fill="#1F2A37"/>
  <path d="M10.125 25.5C9.98065 25.5003 9.83929 25.4589 9.71787 25.3809C9.59645 25.3028 9.50014 25.1914 9.44049 25.0599C9.38083 24.9285 9.36038 24.7826 9.38158 24.6399C9.40278 24.4971 9.46473 24.3634 9.56 24.255L16.56 16.255C16.6926 16.1052 16.8793 16.0141 17.079 16.0019C17.2788 15.9897 17.4752 16.0574 17.625 16.19C17.7748 16.3226 17.8659 16.5093 17.8781 16.709C17.8903 16.9088 17.8226 17.1052 17.69 17.255L10.69 25.255C10.6187 25.3338 10.5314 25.3964 10.434 25.4386C10.3366 25.4809 10.2312 25.5018 10.125 25.5ZM29.625 5H5.125C4.92609 5 4.73532 4.92098 4.59467 4.78033C4.45402 4.63968 4.375 4.44891 4.375 4.25C4.375 4.05109 4.45402 3.86032 4.59467 3.71967C4.73532 3.57902 4.92609 3.5 5.125 3.5H29.625C29.8239 3.5 30.0147 3.57902 30.1553 3.71967C30.296 3.86032 30.375 4.05109 30.375 4.25C30.375 4.44891 30.296 4.63968 30.1553 4.78033C30.0147 4.92098 29.8239 5 29.625 5ZM29.625 20.5H19.125C18.9261 20.5 18.7353 20.421 18.5947 20.2803C18.454 20.1397 18.375 19.9489 18.375 19.75C18.375 19.5511 18.454 19.3603 18.5947 19.2197C18.7353 19.079 18.9261 19 19.125 19H29.625C29.8239 19 30.0147 19.079 30.1553 19.2197C30.296 19.3603 30.375 19.5511 30.375 19.75C30.375 19.9489 30.296 20.1397 30.1553 20.2803C30.0147 20.421 29.8239 20.5 29.625 20.5Z" fill="#1F2A37"/>
  <path d="M27.625 20.5C27.4261 20.5 27.2353 20.421 27.0947 20.2803C26.954 20.1397 26.875 19.9489 26.875 19.75V4.25C26.875 4.05109 26.954 3.86032 27.0947 3.71967C27.2353 3.57902 27.4261 3.5 27.625 3.5C27.8239 3.5 28.0147 3.57902 28.1553 3.71967C28.296 3.86032 28.375 4.05109 28.375 4.25V19.75C28.375 19.9489 28.296 20.1397 28.1553 20.2803C28.0147 20.421 27.8239 20.5 27.625 20.5ZM7.125 12C6.92609 12 6.73532 11.921 6.59467 11.7803C6.45402 11.6397 6.375 11.4489 6.375 11.25V4.25C6.375 4.05109 6.45402 3.86032 6.59467 3.71967C6.73532 3.57902 6.92609 3.5 7.125 3.5C7.32391 3.5 7.51468 3.57902 7.65533 3.71967C7.79598 3.86032 7.875 4.05109 7.875 4.25V11.25C7.875 11.4489 7.79598 11.6397 7.65533 11.7803C7.51468 11.921 7.32391 12 7.125 12ZM18.125 9.5H12.625C12.4261 9.5 12.2353 9.42098 12.0947 9.28033C11.954 9.13968 11.875 8.94891 11.875 8.75C11.875 8.55109 11.954 8.36032 12.0947 8.21967C12.2353 8.07902 12.4261 8 12.625 8H18.125C18.3239 8 18.5147 8.07902 18.6553 8.21967C18.796 8.36032 18.875 8.55109 18.875 8.75C18.875 8.94891 18.796 9.13968 18.6553 9.28033C18.5147 9.42098 18.3239 9.5 18.125 9.5ZM21.625 13.5H12.625C12.4261 13.5 12.2353 13.421 12.0947 13.2803C11.954 13.1397 11.875 12.9489 11.875 12.75C11.875 12.5511 11.954 12.3603 12.0947 12.2197C12.2353 12.079 12.4261 12 12.625 12H21.625C21.8239 12 22.0147 12.079 22.1553 12.2197C22.296 12.3603 22.375 12.5511 22.375 12.75C22.375 12.9489 22.296 13.1397 22.1553 13.2803C22.0147 13.421 21.8239 13.5 21.625 13.5Z" fill="#1F2A37"/>
</svg>