 <svg width="24" height="25" viewBox="0 0 24 25" fill="none" xmlns="http://www.w3.org/2000/svg">
                <g clipPath="url(#clip0_1508_285)">
                  <path
                    d="M17.6921 11.1754C17.5887 11.1259 17.4837 11.0782 17.3774 11.0325C17.1921 7.61915 15.327 5.665 12.1952 5.645C12.181 5.64492 12.1669 5.64492 12.1528 5.64492C10.2795 5.64492 8.72164 6.44449 7.76275 7.89947L9.48512 9.08098C10.2014 7.99417 11.3257 7.76248 12.1536 7.76248C12.1631 7.76248 12.1727 7.76248 12.1822 7.76257C13.2134 7.76914 13.9915 8.06896 14.4951 8.65363C14.8616 9.07929 15.1067 9.66751 15.2281 10.4099C14.3139 10.2545 13.3251 10.2067 12.2681 10.2673C9.29059 10.4388 7.37639 12.1754 7.50495 14.5884C7.57019 15.8124 8.17996 16.8654 9.22188 17.5533C10.1028 18.1348 11.2374 18.4191 12.4165 18.3548C13.9738 18.2694 15.1954 17.6753 16.0476 16.5889C16.6949 15.7639 17.1042 14.6948 17.285 13.3476C18.0271 13.7955 18.5771 14.3849 18.8809 15.0934C19.3974 16.2978 19.4275 18.2769 17.8126 19.8904C16.3978 21.3039 14.697 21.9154 12.1267 21.9343C9.27552 21.9131 7.11922 20.9988 5.71726 19.2165C4.40444 17.5476 3.72596 15.1371 3.70065 12.0519C3.72596 8.96661 4.40444 6.55608 5.71726 4.88722C7.11922 3.10499 9.27549 2.19063 12.1266 2.16944C14.9985 2.19079 17.1924 3.10955 18.648 4.90038C19.3618 5.77858 19.8999 6.88298 20.2546 8.17067L22.273 7.63215C21.843 6.04715 21.1664 4.68134 20.2456 3.54863C18.3795 1.25272 15.6503 0.0762734 12.1337 0.0518799H12.1196C8.6102 0.0761886 5.91151 1.2571 4.09854 3.56179C2.48524 5.61268 1.65305 8.46634 1.62509 12.0434L1.625 12.0519L1.62509 12.0603C1.65305 15.6374 2.48524 18.4911 4.09854 20.542C5.91151 22.8466 8.6102 24.0276 12.1196 24.0519H12.1337C15.2538 24.0303 17.453 23.2134 19.2647 21.4033C21.6351 19.0351 21.5637 16.0668 20.7825 14.2445C20.222 12.9378 19.1534 11.8764 17.6921 11.1754ZM12.3051 16.2403C11.0001 16.3138 9.6443 15.728 9.57745 14.4734C9.5279 13.5431 10.2395 12.5051 12.3851 12.3815C12.6309 12.3673 12.872 12.3604 13.1089 12.3604C13.8883 12.3604 14.6174 12.4361 15.2802 12.581C15.033 15.6688 13.5828 16.1701 12.3051 16.2403Z"
                    fill="#9CA3AF"
                  />
                </g>
                <defs>
                  <clipPath id="clip0_1508_285">
                    <rect width="24" height="24" fill="white" transform="translate(0 0.0518799)" />
                  </clipPath>
                </defs>
              </svg>