<svg width="48" height="48" viewBox="0 0 48 48" fill="none" xmlns="http://www.w3.org/2000/svg">
<g id="verified">
<path id="Vector" fill-rule="evenodd" clip-rule="evenodd" d="M20.9042 2.62315C22.5044 0.668426 25.4938 0.66842 27.0942 2.62315L29.0778 5.04605L32.0072 3.93959C34.3706 3.04695 36.9592 4.54157 37.3678 7.03461L37.8744 10.1247L40.9646 10.6312C43.4576 11.0398 44.9522 13.6286 44.0596 15.9919L42.953 18.9213L45.376 20.905C47.3306 22.5054 47.3306 25.4946 45.376 27.095L42.953 29.0788L44.0596 32.008C44.9522 34.3714 43.4576 36.9602 40.9646 37.3688L37.8744 37.8752L37.368 40.9654C36.9592 43.4584 34.3706 44.953 32.0072 44.0604L29.0778 42.954L27.0942 45.3768C25.4938 47.3316 22.5044 47.3316 20.9042 45.3768L18.9204 42.954L15.9911 44.0604C13.6277 44.953 11.039 43.4584 10.6304 40.9654L10.1239 37.8752L7.03374 37.3688C4.5407 36.9602 3.0461 34.3714 3.93874 32.008L5.0452 29.0788L2.6223 27.095C0.667571 25.4946 0.667563 22.5054 2.6223 20.905L5.0452 18.9213L3.93874 15.9919C3.04608 13.6286 4.54072 11.0398 7.03376 10.6312L10.1239 10.1247L10.6304 7.03461C11.039 4.54157 13.6277 3.04695 15.9911 3.93959L18.9204 5.04605L20.9042 2.62315ZM22.4142 32.4142L36.4142 18.4142L33.5858 15.5858L21 28.1716L14.4142 21.5858L11.5858 24.4142L19.5858 32.4142C19.9609 32.7894 20.4696 33 21 33C21.5304 33 22.0392 32.7894 22.4142 32.4142Z" fill="#D43325"/>
</g>
</svg>
