<svg width="24" height="24" viewBox="0 0 24 24" fill="none" xmlns="http://www.w3.org/2000/svg">
<g id="verify" clip-path="url(#clip0_3420_32731)">
<path id="Vector" d="M22.878 11.5208C23.562 10.44 23.2785 9.01575 22.2337 8.28C21.9517 8.08125 21.8077 7.734 21.867 7.39425C22.086 6.13275 21.2797 4.926 20.031 4.647C19.695 4.57125 19.4287 4.30575 19.3537 3.96975C19.0747 2.721 17.8657 1.917 16.6057 2.13375C16.2675 2.193 15.9195 2.049 15.7207 1.767C14.9857 0.721503 13.5607 0.436503 12.48 1.12275C12.1882 1.30725 11.8117 1.30725 11.5222 1.12275C10.4407 0.436503 9.0165 0.722253 8.2815 1.767C8.08275 2.04825 7.73625 2.1915 7.39575 2.13375C6.1365 1.91625 4.9275 2.72025 4.6485 3.96975C4.57275 4.30575 4.30725 4.572 3.97125 4.647C2.7225 4.926 1.91625 6.13275 2.13525 7.395C2.1945 7.734 2.0505 8.08125 1.7685 8.28C0.722998 9.01575 0.440248 10.44 1.12425 11.5208C1.30875 11.8118 1.30875 12.1883 1.12425 12.4785C0.440248 13.5593 0.723748 14.9835 1.7685 15.7193C2.0505 15.918 2.1945 16.2653 2.13525 16.605C1.91625 17.8665 2.7225 19.0733 3.97125 19.3523C4.30725 19.428 4.5735 19.6935 4.6485 20.0295C4.9275 21.279 6.13875 22.0853 7.3965 21.8655C7.73325 21.807 8.082 21.9495 8.2815 22.2323C9.01725 23.2778 10.4407 23.562 11.5222 22.8765C11.814 22.692 12.1905 22.692 12.48 22.8765C12.8775 23.1285 13.3222 23.2493 13.761 23.2493C14.5155 23.2493 15.2557 22.8923 15.7207 22.2323C15.9195 21.9503 16.2622 21.804 16.6065 21.8655C17.8657 22.083 19.0747 21.279 19.3537 20.0295C19.4295 19.6935 19.695 19.4273 20.031 19.3523C21.2797 19.0733 22.086 17.8665 21.867 16.6043C21.8077 16.2653 21.9517 15.918 22.2337 15.7193C23.2792 14.9835 23.562 13.5593 22.878 12.4785C22.6935 12.1875 22.6935 11.811 22.878 11.5208ZM21.6112 13.2818C21.867 13.686 21.7605 14.2185 21.3697 14.4938C20.616 15.0248 20.2305 15.954 20.3887 16.8615C20.4705 17.3333 20.169 17.784 19.7025 17.889C18.8032 18.0908 18.0915 18.8025 17.8897 19.7018C17.7847 20.169 17.3257 20.469 16.863 20.388C15.9555 20.2313 15.0262 20.616 14.4945 21.369C14.2185 21.7605 13.686 21.8655 13.2825 21.6105C12.8925 21.3638 12.447 21.2408 12.0007 21.2408C11.5545 21.2408 11.109 21.3638 10.719 21.6105C10.3155 21.8655 9.783 21.7605 9.507 21.369C8.976 20.6145 8.0415 20.2298 7.13925 20.388C6.66375 20.4683 6.21675 20.1683 6.11175 19.7018C5.91 18.8025 5.19825 18.0908 4.299 17.889C3.8325 17.784 3.531 17.3333 3.61275 16.8623C3.771 15.954 3.3855 15.0248 2.63175 14.4938C2.241 14.2185 2.1345 13.686 2.39025 13.2818C2.88375 12.5033 2.88375 11.4968 2.39025 10.7183C2.1345 10.314 2.241 9.7815 2.63175 9.50625C3.3855 8.97525 3.771 8.046 3.61275 7.1385C3.531 6.66675 3.8325 6.216 4.299 6.111C5.19825 5.90925 5.91 5.1975 6.11175 4.29825C6.21675 3.831 6.6765 3.53175 7.1385 3.612C8.049 3.771 8.976 3.38475 9.507 2.631C9.783 2.2395 10.3155 2.1345 10.719 2.3895C11.4982 2.883 12.5032 2.883 13.2825 2.3895C13.686 2.1345 14.2185 2.2395 14.4945 2.631C15.0255 3.38475 15.9562 3.7695 16.8622 3.612C17.34 3.534 17.7855 3.8325 17.8897 4.29825C18.0915 5.1975 18.8032 5.90925 19.7025 6.111C20.169 6.216 20.4705 6.66675 20.3887 7.13775C20.2305 8.046 20.616 8.97525 21.3697 9.50625C21.7605 9.7815 21.867 10.314 21.6112 10.7183C21.1177 11.4968 21.1177 12.5033 21.6112 13.2818ZM17.7967 8.4855C18.0802 8.787 18.066 9.26175 17.7645 9.546L11.3895 15.546C11.2455 15.6818 11.061 15.7493 10.875 15.7493C10.6972 15.7493 10.5187 15.6863 10.377 15.5595L7.002 12.5595C6.69225 12.285 6.6645 11.8103 6.93975 11.5013C7.21425 11.1908 7.68825 11.1623 7.998 11.439L10.86 13.983L16.7355 8.45325C17.037 8.16975 17.5117 8.184 17.7967 8.4855Z" fill="#6B7280"/>
</g>
<defs>
<clipPath id="clip0_3420_32731">
<rect width="24" height="24" fill="white"/>
</clipPath>
</defs>
</svg>
